<?xml version="1.0" encoding="iso-8859-1"?>
<!-- Generator: Adobe Illustrator 19.0.0, SVG Export Plug-In . SVG Version: 6.00 Build 0)  -->
<svg xmlns="http://www.w3.org/2000/svg" xmlns:xlink="http://www.w3.org/1999/xlink" version="1.1" id="Layer_1" x="0px" y="0px" viewBox="0 0 512 512" style="enable-background:new 0 0 512 512;" xml:space="preserve">
<path style="fill:#76BFEF;" d="M440.17,327.83C440.17,181.033,256.005,0.005,256,0l-53.443,273.6L256,512  C357.713,512,440.17,429.544,440.17,327.83z"/>
<g>
	<path style="fill:#B0D8FB;" d="M375.367,327.83c0,65.818-53.548,119.366-119.367,119.366V0c0,0-184.17,181.031-184.17,327.83   C71.83,429.544,154.286,512,256,512v-33.457c83.104,0,150.714-67.609,150.714-150.713H375.367z"/>
	<path style="fill:#B0D8FB;" d="M372.043,298.203c-6.566-31.357-22.522-67.731-47.421-108.113l26.681-16.453   c26.808,43.476,44.108,83.225,51.42,118.141L372.043,298.203z"/>
</g>
<g>
</g>
<g>
</g>
<g>
</g>
<g>
</g>
<g>
</g>
<g>
</g>
<g>
</g>
<g>
</g>
<g>
</g>
<g>
</g>
<g>
</g>
<g>
</g>
<g>
</g>
<g>
</g>
<g>
</g>
</svg>
