<?xml version="1.0" encoding="iso-8859-1"?>
<!-- Generator: Adobe Illustrator 19.0.0, SVG Export Plug-In . SVG Version: 6.00 Build 0)  -->
<svg xmlns="http://www.w3.org/2000/svg" xmlns:xlink="http://www.w3.org/1999/xlink" version="1.1" id="Layer_1" x="0px" y="0px" viewBox="0 0 512 512" style="enable-background:new 0 0 512 512;" xml:space="preserve">
<path style="fill:#FF8E00;" d="M473.753,154.423c-48.26-14.468-83.431-59.215-83.431-112.184c0-2.895,0.11-5.764,0.316-8.606  C353.334,11.227,306.659,0,256.001,0l-65.427,228.977L256.001,512c0,0,221.352-100.775,221.352-316.431  C477.353,181.044,476.112,167.333,473.753,154.423z"/>
<path style="fill:#FFBA00;" d="M121.362,33.633c0.207,2.842,0.316,5.711,0.316,8.606c0,52.969-35.17,97.718-83.431,112.185  c-2.359,12.909-3.6,26.621-3.6,41.145C34.648,411.225,256.001,512,256.001,512V0C205.342,0,158.667,11.227,121.362,33.633z"/>
<path style="fill:#B8002A;" d="M423.179,191.27c-20.302-11.524-38.291-27.173-52.42-45.866  c-17.355-22.966-28.431-49.32-32.642-77.321c-23.824-9.179-51.715-13.958-82.116-13.958l-61.649,191.426l61.649,204.973  c0.003,0.002,0.007,0.004,0.01,0.006c18.521-10.999,46.123-29.423,73.544-55.265c62.157-58.577,93.672-125.764,93.672-199.697  C423.227,194.129,423.211,192.695,423.179,191.27z"/>
<g>
	<path style="fill:#DE0436;" d="M173.883,68.082c-4.211,28.001-15.286,54.356-32.643,77.321   c-14.128,18.694-32.117,34.342-52.419,45.866c-0.031,1.426-0.048,2.859-0.048,4.3c0,72.988,30.754,139.452,91.408,197.546   c28.13,26.942,56.75,46.086,75.819,57.41V54.125C225.599,54.125,197.708,58.903,173.883,68.082z"/>
	<path style="fill:#DE0436;" d="M363.871,228.977c-16.901-13.007-31.866-28.064-44.479-44.754   c-16.619-21.99-29.154-46.495-37.256-72.834l29.961-9.216c7.026,22.835,17.894,44.082,32.303,63.15   c10.924,14.455,23.908,27.513,38.59,38.812L363.871,228.977z"/>
</g>
<path style="fill:#FF8E00;" d="M321.428,267.848c0-62.715-65.426-95.961-65.427-95.962l-22.417,98.634l22.417,62.755  C292.135,333.275,321.428,303.983,321.428,267.848z"/>
<path style="fill:#FFBA00;" d="M256.001,171.886c0,0-65.427,33.247-65.427,95.962c0,36.135,29.293,65.427,65.427,65.427l0,0V171.886  L256.001,171.886z"/>
<path style="fill:#B8002A;" d="M276.684,280.642c0-17.089-10.455-31.208-20.684-40.928l-10.341,34.592l10.341,27.019  C267.406,301.326,276.684,292.047,276.684,280.642z"/>
<path style="fill:#DE0436;" d="M256.001,239.714c-10.227,9.721-20.684,23.839-20.684,40.929c0,11.405,9.279,20.684,20.684,20.684  l0,0V239.714L256.001,239.714z"/>
<g>
</g>
<g>
</g>
<g>
</g>
<g>
</g>
<g>
</g>
<g>
</g>
<g>
</g>
<g>
</g>
<g>
</g>
<g>
</g>
<g>
</g>
<g>
</g>
<g>
</g>
<g>
</g>
<g>
</g>
</svg>
