<?xml version="1.0" encoding="iso-8859-1"?>
<!-- Generator: Adobe Illustrator 19.0.0, SVG Export Plug-In . SVG Version: 6.00 Build 0)  -->
<svg xmlns="http://www.w3.org/2000/svg" xmlns:xlink="http://www.w3.org/1999/xlink" version="1.1" id="Layer_1" x="0px" y="0px" viewBox="0 0 512 512" style="enable-background:new 0 0 512 512;" xml:space="preserve">
<polygon style="fill:#707070;" points="254.16,8.746 242.658,23.018 254.16,40.089 254.16,57.188 242.658,73.308 254.16,88.531   254.16,137.852 285.503,137.852 285.503,8.746 "/>
<polygon style="fill:#FF8E00;" points="423.283,177.4 256,177.4 224.632,344.684 256,511.967 423.283,511.967 "/>
<rect x="88.721" y="177.4" style="fill:#FFBA00;" width="167.287" height="334.564"/>
<path style="fill:#B8002A;" d="M256,235.839l-31.368,108.844L256,453.528c60.113,0,108.844-48.731,108.844-108.844  S316.113,235.839,256,235.839z"/>
<path style="fill:#DE0436;" d="M256,267.182v-31.343c-60.113,0-108.844,48.732-108.844,108.844S195.887,453.528,256,453.528V298.525  c25.451,0,46.159,20.706,46.159,46.159h31.343C333.501,301.95,298.735,267.182,256,267.182z"/>
<path style="fill:#B4B4B4;" d="M0,137.852h31.343V88.531h27.851v49.321h31.343V8.746H0V137.852z M31.343,40.089h27.851v17.1H31.343  V40.089z"/>
<polygon style="fill:#707070;" points="457.723,54.441 403.445,0.033 403.445,137.852 434.788,137.852 434.788,75.83 457.723,98.82   480.657,75.83 480.657,137.852 512,137.852 512,0.033 "/>
<polygon style="fill:#B4B4B4;" points="136.662,8.746 105.319,8.746 105.319,137.852 180.184,137.852 180.184,106.509   136.662,106.509 "/>
<path style="fill:#707070;" d="M389.721,88.531V8.746h-90.536v129.106h31.343v-31.578l39.194,32.594l20.041-24.098l-31.552-26.238  h31.51V88.531z M330.528,40.089h27.85v17.1h-27.85V40.089z"/>
<polygon style="fill:#B4B4B4;" points="226.309,57.188 226.309,40.089 254.16,40.089 254.16,8.746 194.966,8.746 194.966,137.852   226.309,137.852 226.309,88.531 254.16,88.531 254.16,57.188 "/>
<g>
</g>
<g>
</g>
<g>
</g>
<g>
</g>
<g>
</g>
<g>
</g>
<g>
</g>
<g>
</g>
<g>
</g>
<g>
</g>
<g>
</g>
<g>
</g>
<g>
</g>
<g>
</g>
<g>
</g>
</svg>
