<?xml version="1.0" encoding="iso-8859-1"?>
<!-- Generator: Adobe Illustrator 19.0.0, SVG Export Plug-In . SVG Version: 6.00 Build 0)  -->
<svg xmlns="http://www.w3.org/2000/svg" xmlns:xlink="http://www.w3.org/1999/xlink" version="1.1" id="Layer_1" x="0px" y="0px" viewBox="0 0 512 512" style="enable-background:new 0 0 512 512;" xml:space="preserve">
<path style="fill:#B8002A;" d="M464.932,308.675c30.182-30.183,46.804-70.311,46.804-112.995s-16.622-82.813-46.804-112.995  l-13.035-13.036l-60.979,14.197l-14.198,60.979l10.603,10.603c10.752,10.751,16.673,25.046,16.673,40.252  c0,15.205-5.921,29.501-16.673,40.252l-75.827,75.827l17.996,65.798l57.18,9.379L464.932,308.675z"/>
<path style="fill:#FF8E00;" d="M254.727,148.044C254.727,51.292,153.792,0.001,153.789,0l-34.584,152.167l34.584,96.816  C209.537,248.982,254.727,203.792,254.727,148.044z"/>
<path style="fill:#FFBA00;" d="M153.79,0c0,0-100.938,51.291-100.938,148.044c0,55.746,45.192,100.938,100.938,100.938l0,0V0  L153.79,0z"/>
<path style="fill:#B8002A;" d="M185.699,167.783c0-26.364-16.13-48.145-31.909-63.141l-15.955,53.367l15.955,41.684  C171.384,199.693,185.699,185.377,185.699,167.783z"/>
<g>
	<path style="fill:#DE0436;" d="M153.79,104.641c-15.779,14.996-31.909,36.777-31.909,63.141c0,17.595,14.315,31.909,31.909,31.909   l0,0V104.641L153.79,104.641z"/>
	<path style="fill:#DE0436;" d="M311.495,311.759l-75.827,75.827c-10.752,10.752-25.047,16.673-40.253,16.673   c-15.205,0-29.501-5.921-40.252-16.673l-10.603-10.602l-60.979,14.197l-14.197,60.979l13.035,13.036   C112.601,495.378,152.732,512,195.415,512c42.684,0,82.813-16.622,112.996-46.804l78.261-78.261L311.495,311.759z"/>
</g>
<path style="fill:#707070;" d="M474.234,47.31L436.511,9.587c-12.078-12.078-31.659-12.078-43.737,0l-38.058,38.058l11.696,52.142  l47.897,7.448L474.234,47.31z"/>
<g>
	<path style="fill:#B4B4B4;" d="M129.176,316.922c-12.078-12.078-31.659-12.078-43.737,0L47.38,354.98l11.134,42.778l48.458,16.815   l59.927-59.927L129.176,316.922z"/>
	<path style="fill:#B4B4B4;" d="M354.717,47.644l-38.058,38.058c-12.078,12.078-12.078,31.659,0,43.737l37.723,37.723l59.927-59.927   L354.717,47.644z"/>
</g>
<path style="fill:#E0E0E0;" d="M9.323,393.038c-12.078,12.078-12.078,31.659,0,43.737l37.723,37.723l59.927-59.927L47.381,354.98  L9.323,393.038z"/>
<g>
</g>
<g>
</g>
<g>
</g>
<g>
</g>
<g>
</g>
<g>
</g>
<g>
</g>
<g>
</g>
<g>
</g>
<g>
</g>
<g>
</g>
<g>
</g>
<g>
</g>
<g>
</g>
<g>
</g>
</svg>
