<?xml version="1.0" encoding="iso-8859-1"?>
<!-- Generator: Adobe Illustrator 19.0.0, SVG Export Plug-In . SVG Version: 6.00 Build 0)  -->
<svg xmlns="http://www.w3.org/2000/svg" xmlns:xlink="http://www.w3.org/1999/xlink" version="1.1" id="Layer_1" x="0px" y="0px" viewBox="0 0 512 512" style="enable-background:new 0 0 512 512;" xml:space="preserve">
<path style="fill:#FF8E00;" d="M391.358,137.349l-10.457,226.973h-0.025c0,41.078-22.842,63.921-63.921,63.921  s-63.921-22.842-63.921-63.921h-0.001V242.437h0.001c0-41.078-43.757-84.835-84.835-84.835s-84.835,43.757-84.835,84.835  c0,0,10.457,195.616,10.457,269.563h26.949V242.437c0-26.153,21.277-47.43,47.43-47.43s47.43,21.276,47.43,47.43v121.884  c0,55.872,45.455,101.327,101.327,101.327s101.327-45.455,101.327-101.327V137.349L391.358,137.349L391.358,137.349z"/>
<path style="fill:#FFBA00;" d="M168.199,168.058c41.078,0,74.378,33.3,74.378,74.378h-0.001V364.32h0.001  c0,41.078,33.3,74.378,74.378,74.378s74.378-33.3,74.378-74.378h0.025V137.348h-26.974V364.32c0,26.153-21.277,47.43-47.43,47.43  s-47.43-21.277-47.43-47.43V242.437c0-55.872-45.455-101.327-101.327-101.327S66.87,186.565,66.87,242.437V512h26.948  c0-73.947,0-269.563,0-269.563C93.82,201.359,127.121,168.058,168.199,168.058z"/>
<polygon style="fill:#B4B4B4;" points="413.327,0 391.334,0 370.419,137.349 428.009,137.349 "/>
<polygon style="fill:#E0E0E0;" points="369.34,0 354.659,137.349 391.334,137.349 391.334,0 "/>
<polygon style="fill:#707070;" points="445.13,121.675 391.334,121.675 370.419,137.349 391.334,153.022 445.13,153.022 "/>
<rect x="337.534" y="121.678" style="fill:#B4B4B4;" width="53.791" height="31.347"/>
<g>
</g>
<g>
</g>
<g>
</g>
<g>
</g>
<g>
</g>
<g>
</g>
<g>
</g>
<g>
</g>
<g>
</g>
<g>
</g>
<g>
</g>
<g>
</g>
<g>
</g>
<g>
</g>
<g>
</g>
</svg>
