<?xml version="1.0" encoding="iso-8859-1"?>
<!-- Generator: Adobe Illustrator 19.0.0, SVG Export Plug-In . SVG Version: 6.00 Build 0)  -->
<svg xmlns="http://www.w3.org/2000/svg" xmlns:xlink="http://www.w3.org/1999/xlink" version="1.1" id="Layer_1" x="0px" y="0px" viewBox="0 0 512 512" style="enable-background:new 0 0 512 512;" xml:space="preserve">
<polygon style="fill:#B8002A;" points="394.301,254.658 235.085,233.743 256.001,512 288.597,512 "/>
<polygon style="fill:#DE0436;" points="117.7,254.658 223.405,512 256.001,512 256.001,233.743 "/>
<path style="fill:#707070;" d="M256.001,0l-20.916,15.651l20.916,15.697c74.026,0,134.249,60.224,134.249,134.25v27.419  l31.348-20.916v-6.504C421.598,74.287,347.312,0,256.001,0z"/>
<g>
	<path style="fill:#B4B4B4;" d="M256.001,0C164.689,0,90.402,74.287,90.402,165.599v6.504l31.348,20.916v-27.419   c0-74.026,60.224-134.25,134.25-134.25l0,0V0L256.001,0z"/>
	<polygon style="fill:#B4B4B4;" points="256.001,172.101 235.085,213.38 256.001,254.658 394.301,254.658 421.598,190.708    421.598,172.101  "/>
</g>
<polygon style="fill:#E0E0E0;" points="90.402,172.101 90.402,190.708 117.7,254.658 256.001,254.658 256.001,172.101 "/>
<g>
</g>
<g>
</g>
<g>
</g>
<g>
</g>
<g>
</g>
<g>
</g>
<g>
</g>
<g>
</g>
<g>
</g>
<g>
</g>
<g>
</g>
<g>
</g>
<g>
</g>
<g>
</g>
<g>
</g>
</svg>
