<?xml version="1.0" encoding="iso-8859-1"?>
<!-- Generator: Adobe Illustrator 19.0.0, SVG Export Plug-In . SVG Version: 6.00 Build 0)  -->
<svg xmlns="http://www.w3.org/2000/svg" xmlns:xlink="http://www.w3.org/1999/xlink" version="1.1" id="Layer_1" x="0px" y="0px" viewBox="0 0 512 512" style="enable-background:new 0 0 512 512;" xml:space="preserve">
<polygon style="fill:#B4B4B4;" points="447.025,299.27 256,299.27 235.085,314.943 256,330.617 447.025,330.617 "/>
<rect x="64.972" y="299.272" style="fill:#E0E0E0;" width="191.028" height="31.347"/>
<rect x="43.154" y="208.616" style="fill:#B4B4B4;" width="43.644" height="192.857"/>
<rect x="425.2" y="208.616" style="fill:#707070;" width="43.644" height="192.857"/>
<polygon style="fill:#FF8E00;" points="512,110.527 505.409,110.527 478.041,120.984 461.078,110.527 440.682,110.527   410.645,120.984 396.351,110.527 256,110.527 224.628,172.12 256,228.408 278.469,228.408 305.633,217.951 322.8,228.408   343.197,228.408 374.073,217.951 387.528,228.408 407.925,228.408 437.812,217.951 452.256,228.408 512,228.408 512,168.664   501.543,148.901 512,124.333 "/>
<polygon style="fill:#FFBA00;" points="0,110.527 0,170.27 10.457,184.95 0,214.604 0,228.408 6.591,228.408 34.482,217.951   50.922,228.408 71.32,228.408 100.833,217.951 115.65,228.408 256,228.408 256,110.527 233.532,110.527 203.755,120.984   189.201,110.527 168.803,110.527 138.971,120.984 124.472,110.527 104.074,110.527 76.278,120.984 59.743,110.527 "/>
<g>
	<polygon style="fill:#707070;" points="59.743,110.527 0,170.27 0,214.601 104.074,110.527  "/>
	<polygon style="fill:#707070;" points="124.472,110.527 6.591,228.408 50.922,228.408 168.803,110.527  "/>
	<polygon style="fill:#707070;" points="189.201,110.527 71.32,228.408 115.65,228.408 233.532,110.527  "/>
</g>
<g>
	<polygon style="fill:#424242;" points="396.351,110.527 278.469,228.408 322.8,228.408 440.682,110.527  "/>
	<polygon style="fill:#424242;" points="461.078,110.527 343.197,228.408 387.528,228.408 505.409,110.527  "/>
	<polygon style="fill:#424242;" points="512,124.333 407.925,228.408 452.256,228.408 512,168.664  "/>
</g>
<g>
</g>
<g>
</g>
<g>
</g>
<g>
</g>
<g>
</g>
<g>
</g>
<g>
</g>
<g>
</g>
<g>
</g>
<g>
</g>
<g>
</g>
<g>
</g>
<g>
</g>
<g>
</g>
<g>
</g>
</svg>
