<?xml version="1.0" encoding="iso-8859-1"?>
<!-- Generator: Adobe Illustrator 19.0.0, SVG Export Plug-In . SVG Version: 6.00 Build 0)  -->
<svg xmlns="http://www.w3.org/2000/svg" xmlns:xlink="http://www.w3.org/1999/xlink" version="1.1" id="Layer_1" x="0px" y="0px" viewBox="0 0 512 512" style="enable-background:new 0 0 512 512;" xml:space="preserve">
<path style="fill:#B4B4B4;" d="M327.644,19.873H256l-31.372,219.003L256,457.879h66.51  c59.583-25.754,101.285-85.045,101.285-154.085V98.164C414.606,53.477,375.05,19.873,327.644,19.873z"/>
<path style="fill:#E0E0E0;" d="M184.356,19.873c-47.406,0-86.962,33.604-96.15,78.291v205.631  c0,69.04,41.701,128.331,101.285,154.085H256V19.873H184.356z"/>
<polygon style="fill:#FF8E00;" points="283.801,0 256,0 235.085,121.252 283.801,121.252 "/>
<rect x="228.195" style="fill:#FFBA00;" width="27.801" height="121.25"/>
<rect x="240.327" y="280.733" style="fill:#707070;" width="31.347" height="118.512"/>
<path style="fill:#FF8E00;" d="M256,376.172l-20.915,67.914L256,512c37.508,0,67.914-30.407,67.914-67.914  S293.508,376.172,256,376.172z"/>
<path style="fill:#FFBA00;" d="M188.086,444.086C188.086,481.593,218.492,512,256,512V376.172  C218.492,376.172,188.086,406.578,188.086,444.086z"/>
<polygon style="fill:#3C8CD8;" points="417.579,98.164 380.641,98.164 354.564,108.621 336.31,98.164 256,98.164 224.628,200.98   256,303.795 440.66,303.795 440.66,119.414 "/>
<polygon style="fill:#76BFEF;" points="71.34,98.164 71.34,199.669 81.798,214.602 71.34,243.992 71.34,303.795 211.948,303.795   242.858,293.337 256,303.795 256,98.164 217.177,98.164 184.949,108.621 172.846,98.164 "/>
<g>
	<polygon style="fill:#B0D8FB;" points="172.846,98.164 71.34,199.669 71.34,243.999 217.177,98.164  "/>
	<polygon style="fill:#B0D8FB;" points="236.669,242.135 380.641,98.164 336.31,98.164 214.504,219.971  "/>
	<polygon style="fill:#B0D8FB;" points="440.66,98.164 417.579,98.164 211.948,303.795 256.279,303.795 440.66,119.414  "/>
</g>
<g>
</g>
<g>
</g>
<g>
</g>
<g>
</g>
<g>
</g>
<g>
</g>
<g>
</g>
<g>
</g>
<g>
</g>
<g>
</g>
<g>
</g>
<g>
</g>
<g>
</g>
<g>
</g>
<g>
</g>
</svg>
