<?xml version="1.0" encoding="iso-8859-1"?>
<!-- Generator: Adobe Illustrator 19.0.0, SVG Export Plug-In . SVG Version: 6.00 Build 0)  -->
<svg xmlns="http://www.w3.org/2000/svg" xmlns:xlink="http://www.w3.org/1999/xlink" version="1.1" id="Layer_1" x="0px" y="0px" viewBox="0 0 512 512" style="enable-background:new 0 0 512 512;" xml:space="preserve">
<path style="fill:#3C8CD8;" d="M256,512h111.736c26.951,0,48.799-21.848,48.799-48.799v-84.415l-10.456-14.117l10.457-30.205v-5.164  l-181.451-20.915L256,512z"/>
<path style="fill:#76BFEF;" d="M95.464,329.301v101.402l9.628,24.864l-8.457,18.306C101.501,495.69,120.978,512,144.264,512h17.567  l28.341-10.457L206.16,512H256V308.386L95.464,329.301z"/>
<g>
	<polygon style="fill:#B0D8FB;" points="328.808,466.517 416.536,378.789 416.536,334.458 306.643,444.351  "/>
	<path style="fill:#B0D8FB;" d="M217.689,316.751l-20.816,12.549L95.464,430.709v32.492c0,3.369,0.342,6.658,0.992,9.835   c0.056,0.277,0.117,0.561,0.179,0.836L241.203,329.3L217.689,316.751z"/>
	<polygon style="fill:#B0D8FB;" points="344.53,329.301 161.83,512 206.16,512 388.86,329.301 364.726,316.751  "/>
</g>
<path style="fill:#B8002A;" d="M416.536,284.077V182.2c0-64.912-39.871-120.503-96.454-143.644V0H256l-20.915,304.992  L416.536,284.077z"/>
<path style="fill:#DE0436;" d="M256,0h-64.082v38.556C135.335,61.698,95.464,117.289,95.464,182.2v101.878L256,304.992V0z"/>
<polygon style="fill:#707070;" points="416.536,284.077 256,284.077 235.085,307.084 256,329.301 416.536,329.301 463.987,329.301   463.987,284.077 "/>
<polygon style="fill:#B4B4B4;" points="256,284.077 95.464,284.077 48.013,284.077 48.013,329.301 95.464,329.301 256,329.301 "/>
<polygon style="fill:#FF8E00;" points="256,104.383 235.085,164.375 256,224.366 315.991,164.375 "/>
<polygon style="fill:#FFBA00;" points="196.009,164.375 256,224.366 256,104.383 "/>
<g>
</g>
<g>
</g>
<g>
</g>
<g>
</g>
<g>
</g>
<g>
</g>
<g>
</g>
<g>
</g>
<g>
</g>
<g>
</g>
<g>
</g>
<g>
</g>
<g>
</g>
<g>
</g>
<g>
</g>
</svg>
