<?xml version="1.0" encoding="iso-8859-1"?>
<!-- Generator: Adobe Illustrator 19.0.0, SVG Export Plug-In . SVG Version: 6.00 Build 0)  -->
<svg xmlns="http://www.w3.org/2000/svg" xmlns:xlink="http://www.w3.org/1999/xlink" version="1.1" id="Layer_1" x="0px" y="0px" viewBox="0 0 512.003 512.003" style="enable-background:new 0 0 512.003 512.003;" xml:space="preserve">
<rect x="258.854" y="48.556" style="fill:#424242;" width="81.701" height="31.347"/>
<g>
	<polygon style="fill:#707070;" points="244.777,53.132 185.024,53.132 185.024,21.785 223.862,21.785  "/>
	<polygon style="fill:#707070;" points="279.86,21.785 251.861,21.785 230.946,152.497 279.86,152.497  "/>
</g>
<rect x="223.86" y="21.785" style="fill:#B4B4B4;" width="27.999" height="130.706"/>
<path style="fill:#B8002A;" d="M251.861,122.335L251.861,122.335l-20.915,356.639l107.413-20.915V208.833  C338.36,161.062,299.633,122.335,251.861,122.335z"/>
<path style="fill:#DE0436;" d="M251.861,155.168v-32.834l0,0c-47.772,0-86.499,38.727-86.499,86.499v249.226l86.499,20.915V186.515  c12.306,0,22.318,10.012,22.318,22.318v43.209h31.347v-43.209C305.525,179.243,281.452,155.168,251.861,155.168z"/>
<polygon style="fill:#707070;" points="251.861,512 338.36,512 338.36,458.059 251.861,458.059 230.946,485.03 "/>
<g>
	<rect x="165.356" y="458.062" style="fill:#B4B4B4;" width="86.497" height="53.941"/>
	<path style="fill:#B4B4B4;" d="M371.066,0c-4.91,0-9.62,0.839-14.011,2.365L336.141,64.23l20.915,61.865   c4.39,1.526,9.101,2.365,14.011,2.365h14.66V0H371.066z"/>
</g>
<path style="fill:#E0E0E0;" d="M328.384,42.681V85.78c0,18.663,11.983,34.517,28.67,40.316V2.365  C340.367,8.164,328.384,24.019,328.384,42.681z"/>
<path style="fill:#B4B4B4;" d="M163.736,0l-20.915,37.459l20.915,37.459c20.688,0,37.459-16.771,37.459-37.459S184.423,0,163.736,0z  "/>
<path style="fill:#E0E0E0;" d="M126.277,37.459c0,20.688,16.771,37.459,37.459,37.459V0C143.048,0,126.277,16.771,126.277,37.459z"/>
<g>
</g>
<g>
</g>
<g>
</g>
<g>
</g>
<g>
</g>
<g>
</g>
<g>
</g>
<g>
</g>
<g>
</g>
<g>
</g>
<g>
</g>
<g>
</g>
<g>
</g>
<g>
</g>
<g>
</g>
</svg>
