<?xml version="1.0" encoding="iso-8859-1"?>
<!-- Generator: Adobe Illustrator 19.0.0, SVG Export Plug-In . SVG Version: 6.00 Build 0)  -->
<svg xmlns="http://www.w3.org/2000/svg" xmlns:xlink="http://www.w3.org/1999/xlink" version="1.1" id="Layer_1" x="0px" y="0px" viewBox="0 0 512 512" style="enable-background:new 0 0 512 512;" xml:space="preserve">
<g>
	
		<rect x="69.261" y="84.89" transform="matrix(0.7071 -0.7071 0.7071 0.7071 -52.0403 128.2563)" style="fill:#B8002A;" width="119.075" height="84.113"/>
	<polygon style="fill:#B8002A;" points="274.285,0 274.027,0.258 253.527,54.335 274.027,76.481 296.609,53.898 426.186,53.898    426.186,106.155 274.027,106.155 231.236,303.02 274.027,512 480.084,512 480.084,93.772 480.084,0  "/>
</g>
<polygon style="fill:#DE0436;" points="244.353,106.155 274.027,76.481 274.027,0.258 67.97,206.315 67.97,512 274.027,512   274.027,106.155 "/>
<g>
	
		<rect x="83.386" y="17.92" transform="matrix(-0.7071 -0.7071 0.7071 -0.7071 100.3728 235.9771)" style="fill:#B4B4B4;" width="31.347" height="158.562"/>
	<polygon style="fill:#B4B4B4;" points="402.183,206.942 380.017,184.777 274.027,290.767 263.57,312.932 274.027,335.098    380.017,441.088 402.183,418.923 296.192,312.932  "/>
</g>
<polygon style="fill:#E0E0E0;" points="168.037,184.777 145.871,206.942 251.861,312.932 145.871,418.923 168.037,441.088   274.027,335.098 274.027,290.767 "/>
<g>
</g>
<g>
</g>
<g>
</g>
<g>
</g>
<g>
</g>
<g>
</g>
<g>
</g>
<g>
</g>
<g>
</g>
<g>
</g>
<g>
</g>
<g>
</g>
<g>
</g>
<g>
</g>
<g>
</g>
</svg>
