<?xml version="1.0" encoding="iso-8859-1"?>
<!-- Generator: Adobe Illustrator 19.0.0, SVG Export Plug-In . SVG Version: 6.00 Build 0)  -->
<svg xmlns="http://www.w3.org/2000/svg" xmlns:xlink="http://www.w3.org/1999/xlink" version="1.1" id="Layer_1" x="0px" y="0px" viewBox="0 0 512 512" style="enable-background:new 0 0 512 512;" xml:space="preserve">
<polygon style="fill:#3C8CD8;" points="422.61,312.09 392.937,208.688 374.572,209.477 362.274,195.031 330.453,195.031   300.583,203.058 286.122,195.031 238.331,195.031 217.416,333.005 "/>
<polygon style="fill:#76BFEF;" points="238.331,195.031 193.275,195.031 158.605,205.489 148.945,195.031 87.644,195.031   54.052,312.09 238.331,333.005 "/>
<g>
	<polygon style="fill:#B0D8FB;" points="193.276,195.031 148.945,195.031 62.973,281.003 54.052,312.09 73.957,314.349  "/>
	<polygon style="fill:#B0D8FB;" points="213.393,312.09 330.453,195.031 286.122,195.031 169.062,312.09 187,321.132  "/>
	<polygon style="fill:#B0D8FB;" points="289.546,312.09 392.939,208.696 389.018,195.031 362.276,195.031 245.216,312.09    261.921,323.57  "/>
</g>
<polygon style="fill:#B8002A;" points="331.967,312.09 238.331,312.09 217.416,429.148 422.61,429.148 422.61,363.168 "/>
<polygon style="fill:#DE0436;" points="54.052,363.168 54.052,429.148 238.331,429.148 238.331,312.09 144.694,312.09 "/>
<rect x="54.052" y="312.09" style="fill:#FDE09C;" width="90.645" height="51.078"/>
<rect x="331.964" y="312.09" style="fill:#FFBA00;" width="90.645" height="51.078"/>
<path style="fill:#FF8E00;" d="M495.414,148.044C495.414,51.292,394.479,0.001,394.476,0l-34.584,152.167l34.584,96.816  C450.222,248.982,495.414,203.792,495.414,148.044z"/>
<path style="fill:#FFBA00;" d="M394.476,0c0,0-100.938,51.291-100.938,148.044c0,55.746,45.192,100.938,100.938,100.938l0,0V0  L394.476,0z"/>
<path style="fill:#B8002A;" d="M426.385,167.783c0-26.364-16.13-48.145-31.909-63.141l-15.955,53.367l15.955,41.684  C412.071,199.693,426.385,185.377,426.385,167.783z"/>
<polygon style="fill:#424242;" points="104.953,429.148 69.045,429.148 79.502,512 104.953,512 "/>
<rect x="54.052" y="429.15" style="fill:#707070;" width="25.451" height="82.85"/>
<polygon style="fill:#424242;" points="422.61,429.148 386.702,429.148 397.159,512 422.61,512 "/>
<rect x="371.712" y="429.15" style="fill:#707070;" width="25.451" height="82.85"/>
<path style="fill:#DE0436;" d="M394.476,104.641c-15.779,14.996-31.909,36.777-31.909,63.141c0,17.595,14.315,31.909,31.909,31.909  l0,0V104.641L394.476,104.641z"/>
<polygon style="fill:#B4B4B4;" points="460.076,413.476 238.331,413.476 217.416,429.148 238.331,444.822 460.076,444.822 "/>
<rect x="16.586" y="413.477" style="fill:#E0E0E0;" width="221.748" height="31.347"/>
<g>
</g>
<g>
</g>
<g>
</g>
<g>
</g>
<g>
</g>
<g>
</g>
<g>
</g>
<g>
</g>
<g>
</g>
<g>
</g>
<g>
</g>
<g>
</g>
<g>
</g>
<g>
</g>
<g>
</g>
</svg>
