<?xml version="1.0" encoding="iso-8859-1"?>
<!-- Generator: Adobe Illustrator 19.0.0, SVG Export Plug-In . SVG Version: 6.00 Build 0)  -->
<svg xmlns="http://www.w3.org/2000/svg" xmlns:xlink="http://www.w3.org/1999/xlink" version="1.1" id="Layer_1" x="0px" y="0px" viewBox="0 0 512 512" style="enable-background:new 0 0 512 512;" xml:space="preserve">
<path style="fill:#FF8E00;" d="M423.203,196.367c0-69.959-42.971-129.871-103.954-154.813V0h-63.251l-20.915,328.242l188.118-20.915  V196.367H423.203z"/>
<g>
	<path style="fill:#FFBA00;" d="M192.749,0v41.554C131.767,66.495,88.795,126.408,88.795,196.367v110.961l167.204,20.915V0H192.749z   "/>
	<path style="fill:#FFBA00;" d="M390.369,196.367h-31.347c0-42.039-25.148-79.49-64.068-95.408l11.867-29.015   C357.573,92.703,390.369,141.541,390.369,196.367z"/>
	<path style="fill:#FFBA00;" d="M88.795,512V333.989l47.576,20.915v110.979c0,25.47-20.647,46.118-46.118,46.118H88.795z"/>
</g>
<path style="fill:#FF8E00;" d="M375.627,465.882V354.904l47.576-20.915V512h-1.459C396.274,512,375.627,491.353,375.627,465.882z"/>
<path style="fill:#B8002A;" d="M310.974,190.254c0-30.362-24.614-54.975-54.975-54.975v109.95  C286.361,245.229,310.974,220.616,310.974,190.254z"/>
<path style="fill:#DE0436;" d="M201.024,190.254c0,30.362,24.614,54.975,54.975,54.975v-109.95  C225.637,135.279,201.024,159.891,201.024,190.254z"/>
<polygon style="fill:#B8002A;" points="474.343,307.327 255.999,307.327 235.084,331.379 255.999,354.904 474.343,354.904 "/>
<rect x="37.657" y="307.325" style="fill:#DE0436;" width="218.342" height="47.576"/>
<g>
</g>
<g>
</g>
<g>
</g>
<g>
</g>
<g>
</g>
<g>
</g>
<g>
</g>
<g>
</g>
<g>
</g>
<g>
</g>
<g>
</g>
<g>
</g>
<g>
</g>
<g>
</g>
<g>
</g>
</svg>
