<?xml version="1.0" encoding="iso-8859-1"?>
<!-- Generator: Adobe Illustrator 19.0.0, SVG Export Plug-In . SVG Version: 6.00 Build 0)  -->
<svg xmlns="http://www.w3.org/2000/svg" xmlns:xlink="http://www.w3.org/1999/xlink" version="1.1" id="Layer_1" x="0px" y="0px" viewBox="0 0 512 512" style="enable-background:new 0 0 512 512;" xml:space="preserve">
<polygon style="fill:#B8002A;" points="436.016,0 255.999,0 208.979,235.102 255.999,512 436.016,512 "/>
<rect x="75.984" style="fill:#DE0436;" width="180.015" height="512"/>
<polygon style="fill:#FF8E00;" points="382.119,251.705 255.999,251.705 225.697,354.904 255.999,458.102 382.119,458.102 "/>
<rect x="129.88" y="251.705" style="fill:#FFBA00;" width="126.119" height="206.399"/>
<polygon style="fill:#707070;" points="324.721,152.002 302.555,129.837 271.672,160.72 271.672,95.413 255.999,95.413   244.505,180.433 255.999,220.724 "/>
<polygon style="fill:#B4B4B4;" points="240.325,160.72 209.442,129.837 187.277,152.002 255.999,220.724 255.999,95.413   240.325,95.413 "/>
<path style="fill:#B8002A;" d="M309.411,354.904c0-29.499-23.914-53.412-53.412-53.412l-20.915,53.412l20.915,53.412  C285.497,408.316,309.411,384.402,309.411,354.904z"/>
<path style="fill:#DE0436;" d="M202.587,354.904c0,29.499,23.914,53.412,53.412,53.412V301.492  C226.5,301.492,202.587,325.405,202.587,354.904z"/>
<polygon style="fill:#FF8E00;" points="398.301,41.373 255.999,41.373 235.084,57.046 255.999,72.72 398.301,72.72 "/>
<rect x="113.694" y="41.373" style="fill:#FFBA00;" width="142.305" height="31.347"/>
<g>
</g>
<g>
</g>
<g>
</g>
<g>
</g>
<g>
</g>
<g>
</g>
<g>
</g>
<g>
</g>
<g>
</g>
<g>
</g>
<g>
</g>
<g>
</g>
<g>
</g>
<g>
</g>
<g>
</g>
</svg>
