<?xml version="1.0" encoding="iso-8859-1"?>
<!-- Generator: Adobe Illustrator 19.0.0, SVG Export Plug-In . SVG Version: 6.00 Build 0)  -->
<svg xmlns="http://www.w3.org/2000/svg" xmlns:xlink="http://www.w3.org/1999/xlink" version="1.1" id="Layer_1" x="0px" y="0px" viewBox="0 0 511.997 511.997" style="enable-background:new 0 0 511.997 511.997;" xml:space="preserve">
<g>
	
		<rect x="350.799" y="50.697" transform="matrix(-0.7071 -0.7071 0.7071 -0.7071 598.2982 380.5634)" style="fill:#D5681E;" width="54.334" height="31.347"/>
	
		<rect x="314.717" y="86.788" transform="matrix(-0.7071 -0.7071 0.7071 -0.7071 511.1811 416.6599)" style="fill:#D5681E;" width="54.334" height="31.347"/>
	
		<rect x="278.629" y="122.868" transform="matrix(-0.7071 -0.7071 0.7071 -0.7071 424.064 452.7354)" style="fill:#D5681E;" width="54.334" height="31.347"/>
	
		<rect x="242.539" y="158.951" transform="matrix(-0.7071 -0.7071 0.7071 -0.7071 336.9394 488.814)" style="fill:#D5681E;" width="54.334" height="31.347"/>
	
		<rect x="206.46" y="195.049" transform="matrix(-0.7071 -0.7071 0.7071 -0.7071 249.8223 524.9252)" style="fill:#D5681E;" width="54.334" height="31.347"/>
	
		<rect x="170.373" y="231.13" transform="matrix(-0.7071 -0.7071 0.7071 -0.7071 162.7051 561.0007)" style="fill:#D5681E;" width="54.334" height="31.347"/>
</g>
<rect x="303.142" y="3.633" transform="matrix(-0.7071 -0.7071 0.7071 -0.7071 424.6015 514.2971)" style="fill:#663300;" width="31.347" height="331.156"/>
<rect x="242.884" y="-45.371" transform="matrix(-0.7071 -0.7071 0.7071 -0.7071 337.1756 434.4111)" style="fill:#983300;" width="31.347" height="385.49"/>
<polygon style="fill:#B4B4B4;" points="484.122,371.287 409.087,290.057 371.154,385.277 409.087,462.848 484.122,462.848 "/>
<polygon style="fill:#E0E0E0;" points="390.172,269.579 334.054,269.579 313.14,371.287 334.054,462.848 409.087,462.848   409.087,290.057 "/>
<polygon style="fill:#B8002A;" points="334.054,269.579 180.964,269.579 149.592,371.287 180.964,462.848 334.054,462.848 "/>
<path style="fill:#DE0436;" d="M52.913,269.579c-13.828,0-25.038,11.21-25.038,25.038v168.231h153.089V269.579H52.913z"/>
<path style="fill:#707070;" d="M104.784,442.248l-20.915,34.875l20.915,34.875c19.23,0,34.875-15.644,34.875-34.875  C139.658,457.892,124.013,442.248,104.784,442.248z"/>
<path style="fill:#B4B4B4;" d="M69.909,477.122c0,19.23,15.644,34.875,34.875,34.875v-69.749  C85.554,442.248,69.909,457.892,69.909,477.122z"/>
<path style="fill:#424242;" d="M409.087,442.248l-20.915,34.875l20.915,34.875c19.23,0,34.875-15.644,34.875-34.875  C443.962,457.892,428.318,442.248,409.087,442.248z"/>
<path style="fill:#707070;" d="M374.213,477.122c0,19.23,15.644,34.875,34.875,34.875v-69.749  C389.858,442.248,374.213,457.892,374.213,477.122z"/>
<polygon style="fill:#3C8CD8;" points="437.147,286.122 416.232,338.778 437.147,371.287 484.122,371.287 "/>
<polygon style="fill:#76BFEF;" points="428.022,269.579 390.172,269.579 390.172,371.287 437.147,371.287 437.147,286.122 "/>
<g>
</g>
<g>
</g>
<g>
</g>
<g>
</g>
<g>
</g>
<g>
</g>
<g>
</g>
<g>
</g>
<g>
</g>
<g>
</g>
<g>
</g>
<g>
</g>
<g>
</g>
<g>
</g>
<g>
</g>
</svg>
