<?xml version="1.0" encoding="iso-8859-1"?>
<!-- Generator: Adobe Illustrator 19.0.0, SVG Export Plug-In . SVG Version: 6.00 Build 0)  -->
<svg xmlns="http://www.w3.org/2000/svg" xmlns:xlink="http://www.w3.org/1999/xlink" version="1.1" id="Layer_1" x="0px" y="0px" viewBox="0 0 512.001 512.001" style="enable-background:new 0 0 512.001 512.001;" xml:space="preserve">
<polygon style="fill:#B8002A;" points="143.046,261.433 101.351,261.433 146.415,401.618 174.262,401.618 "/>
<polygon style="fill:#DE0436;" points="87.353,261.433 118.569,401.618 146.415,401.618 115.199,261.433 "/>
<path style="fill:#B8002A;" d="M127.925,185.004v110.093c0,0,144.084,10.781,255.849,74.621V110.383  C272.009,174.222,127.925,185.004,127.925,185.004z"/>
<g>
	<rect x="445.878" y="224.857" style="fill:#76BFEF;" width="66.123" height="31.348"/>
	
		<rect x="432.015" y="132.014" transform="matrix(-0.7071 -0.7071 0.7071 -0.7071 647.5266 598.3636)" style="fill:#76BFEF;" width="31.347" height="66.122"/>
	
		<rect x="414.618" y="300.308" transform="matrix(-0.7071 -0.7071 0.7071 -0.7071 540.8026 855.9709)" style="fill:#76BFEF;" width="66.122" height="31.347"/>
</g>
<path style="fill:#B8002A;" d="M383.773,110.383c-41.197,23.532-86.78,39.847-127.924,51.078l-31.373,79.068l31.373,78.11  c41.145,11.231,86.727,27.546,127.924,51.078V110.383z"/>
<path style="fill:#DE0436;" d="M127.925,185.004l-20.915,55.526l20.915,54.567c0,0,57.447,4.305,127.925,23.542V161.462  C185.37,180.699,127.925,185.004,127.925,185.004z"/>
<polygon style="fill:#B4B4B4;" points="127.925,185.004 63.962,185.004 43.047,240.53 63.962,295.097 127.925,295.097 "/>
<path style="fill:#E0E0E0;" d="M55.046,185.004C24.644,185.004,0,209.649,0,240.05l0,0c0,30.401,24.644,55.046,55.046,55.046h8.916  V185.004H55.046z"/>
<g>
</g>
<g>
</g>
<g>
</g>
<g>
</g>
<g>
</g>
<g>
</g>
<g>
</g>
<g>
</g>
<g>
</g>
<g>
</g>
<g>
</g>
<g>
</g>
<g>
</g>
<g>
</g>
<g>
</g>
</svg>
