<?xml version="1.0" encoding="iso-8859-1"?>
<!-- Generator: Adobe Illustrator 19.0.0, SVG Export Plug-In . SVG Version: 6.00 Build 0)  -->
<svg xmlns="http://www.w3.org/2000/svg" xmlns:xlink="http://www.w3.org/1999/xlink" version="1.1" id="Layer_1" x="0px" y="0px" viewBox="0 0 512 512" style="enable-background:new 0 0 512 512;" xml:space="preserve">
<polygon style="fill:#707070;" points="338.723,232.184 198.814,232.184 167.442,372.092 198.814,512 338.723,512 "/>
<g>
	<rect x="58.91" y="232.187" style="fill:#B4B4B4;" width="139.912" height="279.813"/>
	<path style="fill:#B4B4B4;" d="M198.814,286.944L177.9,372.092l20.915,85.149c47.026,0,85.149-38.122,85.149-85.149   S245.841,286.944,198.814,286.944z"/>
</g>
<path style="fill:#E0E0E0;" d="M113.667,372.092c0,47.027,38.122,85.149,85.149,85.149V286.944  C151.789,286.944,113.667,325.066,113.667,372.092z"/>
<path style="fill:#FF8E00;" d="M453.09,166.377C453.09,57.644,339.656,0.001,339.653,0l-38.867,171.01l38.867,108.804  C402.303,279.814,453.09,229.027,453.09,166.377z"/>
<path style="fill:#FFBA00;" d="M339.653,0c0,0-113.437,57.643-113.437,166.377c0,62.65,50.787,113.437,113.437,113.437l0,0V0  L339.653,0z"/>
<path style="fill:#B8002A;" d="M375.514,188.56c0-29.629-18.128-54.107-35.861-70.96l-17.93,59.975l17.93,46.846  C359.427,224.42,375.514,208.334,375.514,188.56z"/>
<path style="fill:#DE0436;" d="M339.653,117.599c-17.733,16.853-35.861,41.332-35.861,70.96c0,19.774,16.087,35.861,35.861,35.861  l0,0V117.599L339.653,117.599z"/>
<rect x="152.804" y="348.014" style="fill:#B4B4B4;" width="31.347" height="48.159"/>
<rect x="213.482" y="348.014" style="fill:#707070;" width="31.347" height="48.159"/>
<g>
</g>
<g>
</g>
<g>
</g>
<g>
</g>
<g>
</g>
<g>
</g>
<g>
</g>
<g>
</g>
<g>
</g>
<g>
</g>
<g>
</g>
<g>
</g>
<g>
</g>
<g>
</g>
<g>
</g>
</svg>
