<?xml version="1.0" encoding="iso-8859-1"?>
<!-- Generator: Adobe Illustrator 19.0.0, SVG Export Plug-In . SVG Version: 6.00 Build 0)  -->
<svg xmlns="http://www.w3.org/2000/svg" xmlns:xlink="http://www.w3.org/1999/xlink" version="1.1" id="Layer_1" x="0px" y="0px" viewBox="0 0 512 512" style="enable-background:new 0 0 512 512;" xml:space="preserve">
<path style="fill:#B8002A;" d="M473.753,154.423c-48.26-14.468-83.431-59.215-83.431-112.184c0-2.894,0.11-5.764,0.316-8.606  C353.333,11.227,306.659,0,256,0l-53.764,251.309L256,512c0,0,221.352-100.775,221.352-316.431  C477.352,181.044,476.112,167.333,473.753,154.423z"/>
<path style="fill:#DE0436;" d="M121.363,33.632c0.207,2.842,0.316,5.711,0.316,8.606c0,52.97-35.171,97.718-83.431,112.185  c-2.359,12.909-3.6,26.621-3.6,41.145C34.648,411.225,256,512,256,512V0C205.341,0,158.667,11.227,121.363,33.632z"/>
<path style="fill:#FF8E00;" d="M350.493,269.022c0-90.575-94.491-138.591-94.493-138.593L223.624,272.88L256,363.515  C308.187,363.515,350.493,321.209,350.493,269.022z"/>
<path style="fill:#FFBA00;" d="M256,130.429c0,0-94.493,48.016-94.493,138.593c0,52.187,42.306,94.493,94.493,94.493l0,0V130.429  L256,130.429z"/>
<path style="fill:#B8002A;" d="M285.872,287.499c0-24.68-15.101-45.071-29.872-59.11l-14.936,49.96L256,317.372  C272.472,317.372,285.872,303.971,285.872,287.499z"/>
<path style="fill:#DE0436;" d="M256,228.39c-14.772,14.039-29.872,34.429-29.872,59.11c0,16.472,13.401,29.873,29.872,29.873l0,0  V228.39L256,228.39z"/>
<g>
</g>
<g>
</g>
<g>
</g>
<g>
</g>
<g>
</g>
<g>
</g>
<g>
</g>
<g>
</g>
<g>
</g>
<g>
</g>
<g>
</g>
<g>
</g>
<g>
</g>
<g>
</g>
<g>
</g>
</svg>
