<?xml version="1.0" encoding="iso-8859-1"?>
<!-- Generator: Adobe Illustrator 19.0.0, SVG Export Plug-In . SVG Version: 6.00 Build 0)  -->
<svg xmlns="http://www.w3.org/2000/svg" xmlns:xlink="http://www.w3.org/1999/xlink" version="1.1" id="Layer_1" x="0px" y="0px" viewBox="0 0 512 512" style="enable-background:new 0 0 512 512;" xml:space="preserve">
<polygon style="fill:#D5681E;" points="0,402.373 0,429.054 371.984,429.054 371.984,389.033 "/>
<rect y="375.693" style="fill:#FF9933;" width="371.984" height="26.68"/>
<path style="fill:#B8002A;" d="M292.449,402.373L292.449,402.373c0,37.228,30.18,67.407,67.407,67.407h49.527  c37.228,0,67.407-30.18,67.407-67.407l0,0l-92.17-21.411L292.449,402.373z"/>
<path style="fill:#DE0436;" d="M476.791,402.373c0-37.228-30.18-67.407-67.407-67.407h-49.527  c-37.228,0-67.407,30.179-67.407,67.407l0,0L476.791,402.373L476.791,402.373z"/>
<path style="fill:#FF8E00;" d="M512,229.047c0-122.098-127.377-186.826-127.38-186.828l-43.644,192.029l43.644,122.178  C454.97,356.426,512,299.397,512,229.047z"/>
<path style="fill:#FFBA00;" d="M384.62,42.219c0,0-127.38,64.727-127.38,186.828c0,70.35,57.029,127.38,127.38,127.38l0,0V42.219  L384.62,42.219z"/>
<path style="fill:#B8002A;" d="M424.889,253.955c0-33.271-20.356-60.758-40.268-79.682l-20.134,67.347l20.134,52.603  C406.824,294.223,424.889,276.159,424.889,253.955z"/>
<path style="fill:#DE0436;" d="M384.62,174.273c-19.913,18.925-40.268,46.411-40.268,79.683c0,22.204,18.064,40.268,40.268,40.268  l0,0V174.273L384.62,174.273z"/>
<g>
</g>
<g>
</g>
<g>
</g>
<g>
</g>
<g>
</g>
<g>
</g>
<g>
</g>
<g>
</g>
<g>
</g>
<g>
</g>
<g>
</g>
<g>
</g>
<g>
</g>
<g>
</g>
<g>
</g>
</svg>
