<?xml version="1.0" encoding="iso-8859-1"?>
<!-- Generator: Adobe Illustrator 19.0.0, SVG Export Plug-In . SVG Version: 6.00 Build 0)  -->
<svg xmlns="http://www.w3.org/2000/svg" xmlns:xlink="http://www.w3.org/1999/xlink" version="1.1" id="Layer_1" x="0px" y="0px" viewBox="0 0 512 512" style="enable-background:new 0 0 512 512;" xml:space="preserve">
<polygon style="fill:#FFBA00;" points="256,0 224.628,255.436 512,224.064 512,0 "/>
<polygon style="fill:#FDE09C;" points="256,0 0,0 0,224.064 256,255.436 "/>
<rect x="74.324" y="124.615" style="fill:#FF9933;" width="31.347" height="115.022"/>
<path style="fill:#B8002A;" d="M89.996,43.492L89.996,43.492L74.323,97.058l15.673,53.567l0,0c22.404,0,40.631-18.227,40.631-40.632  V84.122C130.628,61.718,112.401,43.492,89.996,43.492z"/>
<path style="fill:#DE0436;" d="M49.365,84.123v25.872c0,22.404,18.227,40.632,40.631,40.632V43.492  C67.591,43.492,49.365,61.718,49.365,84.123z"/>
<rect x="184.989" y="124.615" style="fill:#FF9933;" width="31.347" height="115.022"/>
<path style="fill:#B8002A;" d="M200.665,43.492L200.665,43.492l-15.673,53.567l15.673,53.567l0,0  c22.404,0,40.631-18.227,40.631-40.632V84.122C241.297,61.718,223.07,43.492,200.665,43.492z"/>
<path style="fill:#DE0436;" d="M160.034,84.123v25.872c0,22.404,18.227,40.632,40.631,40.632V43.492  C178.261,43.492,160.034,61.718,160.034,84.123z"/>
<rect x="295.664" y="124.615" style="fill:#D5681E;" width="31.347" height="115.022"/>
<path style="fill:#B8002A;" d="M311.336,43.492C311.335,43.492,311.335,43.492,311.336,43.492l-15.673,53.567l15.673,53.567l0,0  c22.404,0,40.631-18.227,40.631-40.632V84.122C351.967,61.718,333.739,43.492,311.336,43.492z"/>
<path style="fill:#DE0436;" d="M270.704,84.123v25.872c0,22.404,18.227,40.632,40.631,40.632V43.492  C288.93,43.492,270.704,61.718,270.704,84.123z"/>
<rect x="406.329" y="124.615" style="fill:#D5681E;" width="31.347" height="115.022"/>
<path style="fill:#B8002A;" d="M422.005,43.492L422.005,43.492l-15.673,53.567l15.673,53.567l0,0  c22.404,0,40.631-18.227,40.631-40.632V84.122C462.636,61.718,444.409,43.492,422.005,43.492z"/>
<path style="fill:#DE0436;" d="M381.373,84.123v25.872c0,22.404,18.227,40.632,40.631,40.632V43.492  C399.6,43.492,381.373,61.718,381.373,84.123z"/>
<polygon style="fill:#B8002A;" points="256,512 512,512 512,224.064 256,224.064 224.628,378.253 "/>
<rect y="224.068" style="fill:#DE0436;" width="256" height="287.932"/>
<g>
</g>
<g>
</g>
<g>
</g>
<g>
</g>
<g>
</g>
<g>
</g>
<g>
</g>
<g>
</g>
<g>
</g>
<g>
</g>
<g>
</g>
<g>
</g>
<g>
</g>
<g>
</g>
<g>
</g>
</svg>
