<?xml version="1.0" encoding="iso-8859-1"?>
<!-- Generator: Adobe Illustrator 19.0.0, SVG Export Plug-In . SVG Version: 6.00 Build 0)  -->
<svg xmlns="http://www.w3.org/2000/svg" xmlns:xlink="http://www.w3.org/1999/xlink" version="1.1" id="Layer_1" x="0px" y="0px" viewBox="0 0 512 512" style="enable-background:new 0 0 512 512;" xml:space="preserve">
<path style="fill:#76BFEF;" d="M290.403,78.915h-65.982L177.07,216.078l47.351,137.163h65.982  c75.753,0,137.163-61.41,137.163-137.163l0,0C427.565,140.325,366.155,78.915,290.403,78.915z"/>
<path style="fill:#B0D8FB;" d="M158.439,78.915c-75.753,0-137.163,61.41-137.163,137.163l0,0  c0,75.753,61.41,137.163,137.163,137.163h65.982V78.915H158.439z"/>
<polygon style="fill:#983300;" points="251.76,181.201 251.76,273.457 314.756,210.462 345.434,241.141 251.76,334.815 251.76,512   227.558,512 211.901,312.947 227.558,181.201 "/>
<polygon style="fill:#D5681E;" points="203.357,181.201 203.357,273.457 140.361,210.462 109.683,241.141 203.357,334.815   203.357,512 227.558,512 227.558,181.201 "/>
<path style="fill:#FF8E00;" d="M490.724,155.971C490.724,54.038,384.385,0.001,384.381,0l-36.436,160.313l36.436,101.999  C443.113,262.312,490.724,214.701,490.724,155.971z"/>
<path style="fill:#FFBA00;" d="M384.381,0c0,0-106.341,54.037-106.341,155.971c0,58.731,47.611,106.341,106.341,106.341l0,0V0  L384.381,0z"/>
<path style="fill:#B8002A;" d="M417.999,176.765c0-27.775-16.994-50.722-33.618-66.521l-16.809,56.224l16.809,43.915  C402.918,210.383,417.999,195.302,417.999,176.765z"/>
<path style="fill:#DE0436;" d="M384.381,110.244c-16.623,15.799-33.617,38.746-33.617,66.522c0,18.536,15.081,33.618,33.617,33.618  l0,0V110.244L384.381,110.244z"/>
<g>
</g>
<g>
</g>
<g>
</g>
<g>
</g>
<g>
</g>
<g>
</g>
<g>
</g>
<g>
</g>
<g>
</g>
<g>
</g>
<g>
</g>
<g>
</g>
<g>
</g>
<g>
</g>
<g>
</g>
</svg>
