<?xml version="1.0" encoding="iso-8859-1"?>
<!-- Generator: Adobe Illustrator 19.0.0, SVG Export Plug-In . SVG Version: 6.00 Build 0)  -->
<svg xmlns="http://www.w3.org/2000/svg" xmlns:xlink="http://www.w3.org/1999/xlink" version="1.1" id="Layer_1" x="0px" y="0px" viewBox="0 0 512 512" style="enable-background:new 0 0 512 512;" xml:space="preserve">
<polygon style="fill:#B4B4B4;" points="348.797,41.168 184.691,41.168 146.286,276.585 184.691,512 348.797,512 "/>
<rect x="20.584" y="41.169" style="fill:#E0E0E0;" width="164.112" height="470.831"/>
<polygon style="fill:#76BFEF;" points="299.234,90.732 184.691,90.732 158.059,276.585 184.691,462.436 299.234,462.436 "/>
<rect x="70.144" y="90.728" style="fill:#B0D8FB;" width="114.542" height="371.702"/>
<polygon style="fill:#983300;" points="299.234,230.307 299.234,198.96 200.364,198.96 200.364,90.733 184.691,90.733   175.366,276.585 184.691,462.435 200.364,462.435 200.364,354.208 299.234,354.208 299.234,322.861 200.364,322.861   200.364,230.307 "/>
<polygon style="fill:#D5681E;" points="169.017,90.733 169.017,198.96 70.148,198.96 70.148,230.307 169.017,230.307   169.017,322.861 70.148,322.861 70.148,354.208 169.017,354.208 169.017,462.435 184.691,462.435 184.691,90.733 "/>
<polygon style="fill:#663300;" points="314.908,75.059 184.691,75.059 169.017,90.733 184.691,106.406 283.561,106.406   283.561,446.762 184.691,446.762 169.017,462.435 184.691,478.109 314.908,478.109 "/>
<polygon style="fill:#983300;" points="85.822,446.762 85.822,106.406 184.691,106.406 184.691,75.059 54.475,75.059   54.475,478.109 184.691,478.109 184.691,446.762 "/>
<path style="fill:#FF8E00;" d="M491.415,187.618C491.415,65.003,363.5,0.002,363.497,0l-43.829,192.842l43.829,122.695  C434.145,315.537,491.415,258.265,491.415,187.618z"/>
<path style="fill:#FFBA00;" d="M363.497,0c0,0-127.918,65.001-127.918,187.618c0,70.648,57.271,127.919,127.918,127.919l0,0V0  L363.497,0z"/>
<path style="fill:#B8002A;" d="M403.936,212.633c0-33.412-20.442-61.015-40.439-80.019l-20.22,67.632l20.22,52.826  C385.795,253.071,403.936,234.931,403.936,212.633z"/>
<path style="fill:#DE0436;" d="M363.497,132.613c-19.996,19.005-40.439,46.608-40.439,80.019c0,22.298,18.14,40.439,40.439,40.439  l0,0V132.613L363.497,132.613z"/>
<g>
</g>
<g>
</g>
<g>
</g>
<g>
</g>
<g>
</g>
<g>
</g>
<g>
</g>
<g>
</g>
<g>
</g>
<g>
</g>
<g>
</g>
<g>
</g>
<g>
</g>
<g>
</g>
<g>
</g>
</svg>
