<?xml version="1.0" encoding="iso-8859-1"?>
<!-- Generator: Adobe Illustrator 19.0.0, SVG Export Plug-In . SVG Version: 6.00 Build 0)  -->
<svg xmlns="http://www.w3.org/2000/svg" xmlns:xlink="http://www.w3.org/1999/xlink" version="1.1" id="Layer_1" x="0px" y="0px" viewBox="0 0 512 512" style="enable-background:new 0 0 512 512;" xml:space="preserve">
<path style="fill:#960022;" d="M512,92.188v26.904l-20.915,31.751L512,182.595v235.264l-86.304,50.989l-20.915-234.327  L425.696,0.192C473.866,3.227,512,43.25,512,92.188z"/>
<g>
	<rect x="401.084" y="119.087" style="fill:#E66600;" width="110.916" height="63.503"/>
	<rect x="401.084" y="417.855" style="fill:#E66600;" width="110.916" height="50.988"/>
</g>
<path style="fill:#B8002A;" d="M0,92.188v26.904l20.915,31.751L0,182.595v235.264l86.304,50.989l20.915-234.327L86.304,0.192  C38.134,3.227,0,43.25,0,92.188z"/>
<g>
	<rect y="417.855" style="fill:#FF8E00;" width="111.188" height="50.988"/>
	<rect y="119.087" style="fill:#FF8E00;" width="111.188" height="63.503"/>
</g>
<path style="fill:#B8002A;" d="M419.812,0h-33.363l-65.225,21.595L256,0l-51.897,256L256,512h169.696v-43.152V0.192  C423.749,0.07,421.789,0,419.812,0z"/>
<path style="fill:#DE0436;" d="M92.188,0c-1.977,0-3.937,0.07-5.883,0.192V512H256V0l-65.225,22.291L125.552,0H92.188z"/>
<polygon style="fill:#FFBA00;" points="425.696,140.338 256,140.338 235.085,172.089 256,203.841 425.696,203.841 "/>
<polygon style="fill:#FF8E00;" points="425.696,448.497 425.696,384.995 256,384.995 235.085,469.412 "/>
<polygon style="fill:#FFBA00;" points="86.304,448.497 256,469.412 256,384.995 86.304,384.995 "/>
<rect x="86.309" y="140.34" style="fill:#FDE09C;" width="169.691" height="63.503"/>
<polygon style="fill:#FFBA00;" points="271.673,512 425.696,512 425.696,448.497 256,448.497 235.085,480.249 "/>
<polygon style="fill:#FDE09C;" points="86.304,448.497 86.304,512 240.327,512 256,448.497 "/>
<rect x="240.327" style="fill:#E66600;" width="31.347" height="512"/>
<g>
	<rect x="212.522" y="232.072" style="fill:#FFBA00;" width="86.956" height="31.347"/>
	<rect x="212.522" y="286.009" style="fill:#FFBA00;" width="86.956" height="31.347"/>
</g>
<polygon style="fill:#960022;" points="386.449,0 314.226,59.926 256,0 "/>
<polygon style="fill:#B8002A;" points="256,0 197.774,59.926 125.552,0 "/>
<g>
</g>
<g>
</g>
<g>
</g>
<g>
</g>
<g>
</g>
<g>
</g>
<g>
</g>
<g>
</g>
<g>
</g>
<g>
</g>
<g>
</g>
<g>
</g>
<g>
</g>
<g>
</g>
<g>
</g>
</svg>
