<?xml version="1.0" encoding="iso-8859-1"?>
<!-- Generator: Adobe Illustrator 19.0.0, SVG Export Plug-In . SVG Version: 6.00 Build 0)  -->
<svg xmlns="http://www.w3.org/2000/svg" xmlns:xlink="http://www.w3.org/1999/xlink" version="1.1" id="Layer_1" x="0px" y="0px" viewBox="0 0 512 512" style="enable-background:new 0 0 512 512;" xml:space="preserve">
<rect x="38.294" y="316.05" style="fill:#B4B4B4;" width="55.693" height="31.347"/>
<rect x="418.013" y="316.05" style="fill:#707070;" width="55.693" height="31.347"/>
<path style="fill:#B8002A;" d="M105.609,380.027h30.741l20.915-48.308l-20.915-48.308h-30.741  c-25.861,0-46.827,20.965-46.827,46.827v2.962C58.782,359.062,79.747,380.027,105.609,380.027z"/>
<path style="fill:#960022;" d="M406.394,380.027h-30.741l-31.372-48.308l31.372-48.308h30.741c25.861,0,46.827,20.965,46.827,46.827  v2.962C453.221,359.062,432.256,380.027,406.394,380.027z"/>
<polygon style="fill:#707070;" points="277.578,0 256.002,0 245.544,75.93 277.578,75.93 "/>
<rect x="234.424" style="fill:#B4B4B4;" width="21.576" height="75.933"/>
<path style="fill:#B8002A;" d="M256.002,43.152L256.002,43.152l-20.915,435.33l140.567-20.915V165.82v-3.017  C375.654,96.722,322.084,43.152,256.002,43.152z"/>
<path style="fill:#DE0436;" d="M256.002,43.152c-66.081,0-119.652,53.57-119.652,119.652v3.017v291.747l119.652,20.914V43.152  L256.002,43.152z"/>
<rect x="180.508" y="245.582" style="fill:#B8002A;" width="31.347" height="172.283"/>
<rect x="300.148" y="245.582" style="fill:#960022;" width="31.347" height="172.283"/>
<g>
	<path style="fill:#B4B4B4;" d="M428.472,488.066c0-16.844-13.655-30.498-30.498-30.498H256.002l-20.915,27.216L256.002,512h172.471   V488.066z"/>
	<polygon style="fill:#B4B4B4;" points="418.772,165.82 256.002,165.82 235.087,185.847 256.002,205.872 418.772,205.872  "/>
</g>
<polygon style="fill:#960022;" points="271.675,245.579 256.002,245.579 248.681,331.72 256.002,417.859 271.675,417.859 "/>
<g>
	<path style="fill:#E0E0E0;" d="M114.028,457.567c-16.844,0-30.498,13.655-30.498,30.498V512h172.472v-54.433H114.028z"/>
	<rect x="93.227" y="165.815" style="fill:#E0E0E0;" width="162.774" height="40.051"/>
</g>
<rect x="240.328" y="245.582" style="fill:#B8002A;" width="15.673" height="172.283"/>
<g>
</g>
<g>
</g>
<g>
</g>
<g>
</g>
<g>
</g>
<g>
</g>
<g>
</g>
<g>
</g>
<g>
</g>
<g>
</g>
<g>
</g>
<g>
</g>
<g>
</g>
<g>
</g>
<g>
</g>
</svg>
