<?xml version="1.0" encoding="iso-8859-1"?>
<!-- Generator: Adobe Illustrator 19.0.0, SVG Export Plug-In . SVG Version: 6.00 Build 0)  -->
<svg xmlns="http://www.w3.org/2000/svg" xmlns:xlink="http://www.w3.org/1999/xlink" version="1.1" id="Layer_1" x="0px" y="0px" viewBox="0 0 512 512" style="enable-background:new 0 0 512 512;" xml:space="preserve">
<path style="fill:#FF8E00;" d="M376.026,350.346h-74.256v-56.827l-10.457-15.675l10.457-15.673v-22.594l-10.457-15.672  l10.457-15.673v-22.593l-10.457-15.673l10.457-15.673v-22.594l-10.457-15.673l10.457-15.673V62.084l-56.445-20.915v448.593  l234.414-20.915V454.06C479.74,396.78,433.306,350.346,376.026,350.346z"/>
<polygon style="fill:#FFBA00;" points="266.24,41.169 52.74,62.084 52.74,468.848 266.24,489.762 "/>
<g>
	<rect x="186.483" y="100.352" style="fill:#FDE09C;" width="115.294" height="31.347"/>
	<rect x="186.483" y="154.29" style="fill:#FDE09C;" width="115.294" height="31.347"/>
	<rect x="186.483" y="208.227" style="fill:#FDE09C;" width="115.294" height="31.347"/>
	<rect x="186.483" y="262.175" style="fill:#FDE09C;" width="115.294" height="31.347"/>
</g>
<polygon style="fill:#B8002A;" points="266.24,512 479.74,512 479.74,468.848 266.24,468.848 245.325,489.762 "/>
<rect x="52.736" y="468.846" style="fill:#DE0436;" width="213.504" height="43.154"/>
<polygon style="fill:#B8002A;" points="322.252,0 177.255,0 156.341,31.042 177.255,62.084 322.252,62.084 "/>
<rect x="32.26" style="fill:#DE0436;" width="145.001" height="62.088"/>
<g>
</g>
<g>
</g>
<g>
</g>
<g>
</g>
<g>
</g>
<g>
</g>
<g>
</g>
<g>
</g>
<g>
</g>
<g>
</g>
<g>
</g>
<g>
</g>
<g>
</g>
<g>
</g>
<g>
</g>
</svg>
