<?xml version="1.0" encoding="iso-8859-1"?>
<!-- Generator: Adobe Illustrator 19.0.0, SVG Export Plug-In . SVG Version: 6.00 Build 0)  -->
<svg xmlns="http://www.w3.org/2000/svg" xmlns:xlink="http://www.w3.org/1999/xlink" version="1.1" id="Layer_1" x="0px" y="0px" viewBox="0 0 512 512" style="enable-background:new 0 0 512 512;" xml:space="preserve">
<polygon style="fill:#B4B4B4;" points="348.356,54.652 196.804,54.652 165.432,295.33 196.804,512 348.356,512 "/>
<rect x="45.254" y="54.648" style="fill:#E0E0E0;" width="151.552" height="457.352"/>
<g>
	<rect x="83.748" y="429.558" style="fill:#FFBA00;" width="31.347" height="43.112"/>
	<rect x="148.668" y="429.558" style="fill:#FFBA00;" width="31.347" height="43.112"/>
</g>
<g>
	<rect x="213.587" y="429.558" style="fill:#FF8E00;" width="31.347" height="43.112"/>
	<rect x="278.517" y="429.558" style="fill:#FF8E00;" width="31.347" height="43.112"/>
</g>
<g>
	<rect x="83.748" y="362.444" style="fill:#FFBA00;" width="31.347" height="43.112"/>
	<rect x="148.668" y="362.444" style="fill:#FFBA00;" width="31.347" height="43.112"/>
</g>
<g>
	<rect x="213.587" y="362.444" style="fill:#FF8E00;" width="31.347" height="43.112"/>
	<rect x="278.517" y="362.444" style="fill:#FF8E00;" width="31.347" height="43.112"/>
</g>
<g>
	<rect x="83.748" y="295.33" style="fill:#FFBA00;" width="31.347" height="43.112"/>
	<rect x="148.668" y="295.33" style="fill:#FFBA00;" width="31.347" height="43.112"/>
</g>
<g>
	<rect x="213.587" y="295.33" style="fill:#FF8E00;" width="31.347" height="43.112"/>
	<rect x="278.517" y="295.33" style="fill:#FF8E00;" width="31.347" height="43.112"/>
</g>
<g>
	<rect x="83.748" y="228.216" style="fill:#FFBA00;" width="31.347" height="43.112"/>
	<rect x="148.668" y="228.216" style="fill:#FFBA00;" width="31.347" height="43.112"/>
</g>
<g>
	<rect x="213.587" y="228.216" style="fill:#FF8E00;" width="31.347" height="43.112"/>
	<rect x="278.517" y="228.216" style="fill:#FF8E00;" width="31.347" height="43.112"/>
	<rect x="278.517" y="161.102" style="fill:#FF8E00;" width="31.347" height="43.112"/>
	<rect x="278.517" y="93.978" style="fill:#FF8E00;" width="31.347" height="43.112"/>
</g>
<g>
	<rect x="83.748" y="161.102" style="fill:#FFBA00;" width="31.347" height="43.112"/>
	<rect x="148.668" y="161.102" style="fill:#FFBA00;" width="31.347" height="43.112"/>
</g>
<rect x="213.587" y="161.102" style="fill:#FF8E00;" width="31.347" height="43.112"/>
<g>
	<rect x="83.748" y="93.978" style="fill:#FFBA00;" width="31.347" height="43.112"/>
	<rect x="148.668" y="93.978" style="fill:#FFBA00;" width="31.347" height="43.112"/>
</g>
<g>
	<rect x="213.587" y="93.978" style="fill:#FF8E00;" width="31.347" height="43.112"/>
	<path style="fill:#FF8E00;" d="M466.746,126.9c0-82.934-86.519-126.899-86.521-126.9L350.58,130.434l29.645,82.988   C428.009,213.42,466.746,174.684,466.746,126.9z"/>
</g>
<path style="fill:#FFBA00;" d="M380.225,0c0,0-86.521,43.965-86.521,126.9c0,47.784,38.736,86.521,86.521,86.521l0,0V0L380.225,0z"/>
<path style="fill:#B8002A;" d="M407.577,143.819c0-22.599-13.826-41.268-27.351-54.123l-13.676,45.745l13.676,35.73  C395.306,171.171,407.577,158.901,407.577,143.819z"/>
<path style="fill:#DE0436;" d="M380.225,89.696c-13.525,12.854-27.351,31.525-27.351,54.123c0,15.082,12.27,27.351,27.351,27.351  l0,0V89.696L380.225,89.696z"/>
<g>
</g>
<g>
</g>
<g>
</g>
<g>
</g>
<g>
</g>
<g>
</g>
<g>
</g>
<g>
</g>
<g>
</g>
<g>
</g>
<g>
</g>
<g>
</g>
<g>
</g>
<g>
</g>
<g>
</g>
</svg>
