<?xml version="1.0" encoding="iso-8859-1"?>
<!-- Generator: Adobe Illustrator 19.0.0, SVG Export Plug-In . SVG Version: 6.00 Build 0)  -->
<svg xmlns="http://www.w3.org/2000/svg" xmlns:xlink="http://www.w3.org/1999/xlink" version="1.1" id="Layer_1" x="0px" y="0px" viewBox="0 0 512.004 512.004" style="enable-background:new 0 0 512.004 512.004;" xml:space="preserve">
<polygon style="fill:#707070;" points="457.72,42.899 473.955,60.218 497.51,36.665 486.426,25.581 "/>
<g>
	
		<rect x="452.448" y="23.979" transform="matrix(-0.7071 0.7071 -0.7071 -0.7071 823.3067 -277.3926)" style="fill:#B4B4B4;" width="33.31" height="15.673"/>
	
		<rect x="358.039" y="21.682" transform="matrix(-0.7071 -0.7071 0.7071 -0.7071 613.2292 328.7186)" style="fill:#B4B4B4;" width="33.31" height="31.347"/>
	
		<rect x="318.706" y="61.021" transform="matrix(-0.7071 -0.7071 0.7071 -0.7071 518.2641 368.0614)" style="fill:#B4B4B4;" width="33.309" height="31.347"/>
	
		<rect x="278.076" y="101.647" transform="matrix(-0.7071 -0.7071 0.7071 -0.7071 420.1782 408.6848)" style="fill:#B4B4B4;" width="33.31" height="31.347"/>
	
		<rect x="237.453" y="142.27" transform="matrix(-0.7071 -0.7071 0.7071 -0.7071 322.1063 449.3066)" style="fill:#B4B4B4;" width="33.309" height="31.347"/>
	
		<rect x="196.83" y="182.888" transform="matrix(-0.7071 -0.7071 0.7071 -0.7071 224.0383 489.9227)" style="fill:#B4B4B4;" width="33.31" height="31.347"/>
</g>
<g>
	
		<rect x="418.65" y="160.979" transform="matrix(-0.7071 -0.7071 0.7071 -0.7071 618.1998 609.3716)" style="fill:#707070;" width="33.31" height="31.347"/>
	
		<rect x="378.02" y="201.605" transform="matrix(-0.7071 -0.7071 0.7071 -0.7071 520.1135 649.9943)" style="fill:#707070;" width="33.31" height="31.347"/>
	
		<rect x="337.397" y="242.213" transform="matrix(-0.7071 -0.7071 0.7071 -0.7071 422.0525 690.5916)" style="fill:#707070;" width="33.31" height="31.347"/>
	
		<rect x="296.778" y="282.838" transform="matrix(-0.7071 -0.7071 0.7071 -0.7071 323.9841 731.2216)" style="fill:#707070;" width="33.31" height="31.347"/>
	
		<rect x="457.985" y="121.639" transform="matrix(-0.7071 -0.7071 0.7071 -0.7071 713.1663 570.0273)" style="fill:#707070;" width="33.31" height="31.347"/>
	<rect x="478.694" y="71.661" style="fill:#707070;" width="33.31" height="31.347"/>
</g>
<g>
	<rect x="408.999" y="0.002" style="fill:#B4B4B4;" width="31.347" height="33.309"/>
	<path style="fill:#B4B4B4;" d="M470.254,41.739L176.37,298.522l86.515,41.777L470.75,132.435c24.869-24.869,24.869-65.332,0-90.201   L470.254,41.739z"/>
</g>
<path style="fill:#E0E0E0;" d="M469.775,41.259c-12.048-12.047-28.064-18.681-45.101-18.681s-33.054,6.634-45.101,18.681  L171.708,249.124l25.427,65.735l273.12-273.12L469.775,41.259z"/>
<polygon style="fill:#B8002A;" points="64.026,447.967 128.061,512.002 288.713,351.35 224.678,287.315 121.214,343.426 "/>
<rect x="-1.261" y="290.36" transform="matrix(-0.7071 0.7071 -0.7071 -0.7071 429.0926 493.5231)" style="fill:#DE0436;" width="227.19" height="90.54"/>
<rect x="69.606" y="320.847" transform="matrix(-0.7071 -0.7071 0.7071 -0.7071 -112.1438 682.502)" style="fill:#FDE09C;" width="31.347" height="87.259"/>
<rect x="100.469" y="351.697" transform="matrix(-0.7071 -0.7071 0.7071 -0.7071 -81.2711 756.9895)" style="fill:#FFBA00;" width="31.347" height="87.259"/>
<g>
</g>
<g>
</g>
<g>
</g>
<g>
</g>
<g>
</g>
<g>
</g>
<g>
</g>
<g>
</g>
<g>
</g>
<g>
</g>
<g>
</g>
<g>
</g>
<g>
</g>
<g>
</g>
<g>
</g>
</svg>
