<?xml version="1.0" encoding="iso-8859-1"?>
<!-- Generator: Adobe Illustrator 19.0.0, SVG Export Plug-In . SVG Version: 6.00 Build 0)  -->
<svg xmlns="http://www.w3.org/2000/svg" xmlns:xlink="http://www.w3.org/1999/xlink" version="1.1" id="Layer_1" x="0px" y="0px" viewBox="0 0 512 512" style="enable-background:new 0 0 512 512;" xml:space="preserve">
<polygon style="fill:#B8002A;" points="512,118.669 256,0 208.309,476.3 446.796,512 512,512 "/>
<polygon style="fill:#DE0436;" points="0,118.669 0,512 65.204,512 256,483.44 256,0 "/>
<path style="fill:#FF8E00;" d="M256,61.955l-12.96,71.614L256,188.636c28.364,0,51.357-22.993,51.357-51.357  C307.357,88.051,256,61.955,256,61.955z"/>
<path style="fill:#FFBA00;" d="M204.643,137.28c0,28.364,22.993,51.357,51.357,51.357V61.955  C256,61.955,204.643,88.051,204.643,137.28z"/>
<polygon style="fill:#B4B4B4;" points="256,512 446.796,512 446.796,466.061 235.085,445.146 "/>
<polygon style="fill:#E0E0E0;" points="65.204,466.061 65.204,512 256,512 256,445.146 "/>
<polygon style="fill:#707070;" points="256,466.061 446.796,466.061 446.796,420.122 235.085,399.207 "/>
<g>
	<polygon style="fill:#B4B4B4;" points="256,399.207 65.204,420.122 65.204,466.061 256,466.061  "/>
	<polygon style="fill:#B4B4B4;" points="256,420.122 446.796,420.122 446.796,374.182 235.085,353.268  "/>
</g>
<polygon style="fill:#E0E0E0;" points="256,353.268 65.204,374.182 65.204,420.122 256,420.122 "/>
<polygon style="fill:#707070;" points="256,374.182 446.796,374.182 446.796,328.243 235.085,307.328 "/>
<g>
	<polygon style="fill:#B4B4B4;" points="256,307.328 65.204,328.243 65.204,374.182 256,374.182  "/>
	<polygon style="fill:#B4B4B4;" points="256,328.243 446.796,328.243 446.796,282.304 235.085,261.39  "/>
</g>
<polygon style="fill:#E0E0E0;" points="256,261.39 65.204,282.304 65.204,328.243 256,328.243 "/>
<polygon style="fill:#707070;" points="256,236.365 235.085,261.39 256,282.304 446.796,282.304 446.796,236.365 "/>
<rect x="65.202" y="236.366" style="fill:#B4B4B4;" width="190.798" height="45.939"/>
<path style="fill:#B8002A;" d="M256,108.321l-10.457,33.329L256,163.558c10.224,0,18.543-8.318,18.543-18.543  C274.543,129.694,265.169,117.036,256,108.321z"/>
<path style="fill:#DE0436;" d="M237.457,145.014c0,10.224,8.318,18.543,18.543,18.543V108.32  C246.831,117.036,237.457,129.694,237.457,145.014z"/>
<g>
</g>
<g>
</g>
<g>
</g>
<g>
</g>
<g>
</g>
<g>
</g>
<g>
</g>
<g>
</g>
<g>
</g>
<g>
</g>
<g>
</g>
<g>
</g>
<g>
</g>
<g>
</g>
<g>
</g>
</svg>
