<?xml version="1.0" encoding="iso-8859-1"?>
<!-- Generator: Adobe Illustrator 19.0.0, SVG Export Plug-In . SVG Version: 6.00 Build 0)  -->
<svg xmlns="http://www.w3.org/2000/svg" xmlns:xlink="http://www.w3.org/1999/xlink" version="1.1" id="Layer_1" x="0px" y="0px" viewBox="0 0 512 512" style="enable-background:new 0 0 512 512;" xml:space="preserve">
<polygon style="fill:#D5681E;" points="137.217,190.141 145.917,153.928 430.87,454.014 415.98,468.904 "/>
<polygon style="fill:#983300;" points="166.998,160.361 445.76,439.124 430.87,454.014 138.351,161.494 "/>
<path style="fill:#E0E0E0;" d="M43.766,167.563l50.326-50.326l43.698,6.705l14.318,51.311l-14.89,14.89l-9.225,9.225  c-7.187,7.187-12.778,15.377-17.15,23.733l-48.929-7.704L43.766,167.563z"/>
<path style="fill:#B4B4B4;" d="M128.835,82.493c48.215-48.215,88.15-44.204,102.694-29.66l-66.177,66.178l21.499,21.499  l-19.853,19.853l-14.89,14.89l-58.015-58.015L128.835,82.493z"/>
<path style="fill:#DE0436;" d="M0,211.328l43.767-43.767c10.212,13.026,37.386,44.805,67.076,55.537  c-14.747,28.184-15.474,58.275-15.474,58.275C35.588,262.463,0,211.328,0,211.328z"/>
<polygon style="fill:#983300;" points="374.783,190.141 366.083,153.928 81.13,454.014 96.02,468.904 "/>
<polygon style="fill:#D5681E;" points="345.002,160.361 66.24,439.124 81.13,454.014 373.649,161.494 "/>
<path style="fill:#B4B4B4;" d="M468.234,167.563l-50.326-50.326l-43.698,6.705l-14.318,51.311l14.89,14.89l9.224,9.225  c7.187,7.187,12.778,15.377,17.15,23.733l48.929-7.704L468.234,167.563z"/>
<path style="fill:#E0E0E0;" d="M383.165,82.493c-48.215-48.215-88.15-44.204-102.694-29.66l66.178,66.178l-21.499,21.499  l19.853,19.853l14.89,14.89l58.015-58.015L383.165,82.493z"/>
<path style="fill:#B8002A;" d="M512,211.328l-43.766-43.767c-10.212,13.026-37.386,44.805-67.076,55.537  c14.747,28.184,15.474,58.275,15.474,58.275C476.412,262.463,512,211.328,512,211.328z"/>
<g>
</g>
<g>
</g>
<g>
</g>
<g>
</g>
<g>
</g>
<g>
</g>
<g>
</g>
<g>
</g>
<g>
</g>
<g>
</g>
<g>
</g>
<g>
</g>
<g>
</g>
<g>
</g>
<g>
</g>
</svg>
