<?xml version="1.0" encoding="iso-8859-1"?>
<!-- Generator: Adobe Illustrator 19.0.0, SVG Export Plug-In . SVG Version: 6.00 Build 0)  -->
<svg xmlns="http://www.w3.org/2000/svg" xmlns:xlink="http://www.w3.org/1999/xlink" version="1.1" id="Layer_1" x="0px" y="0px" viewBox="0 0 512.001 512.001" style="enable-background:new 0 0 512.001 512.001;" xml:space="preserve">
<path style="fill:#707070;" d="M206.835,501.267h-15.674V403.49h31.348v65.954c61.51-3.743,118.814-29.486,162.764-73.436  c47.663-47.663,73.911-111.033,73.911-178.439h31.348c0,75.779-29.51,147.021-83.093,200.604  C353.856,471.757,282.614,501.267,206.835,501.267z"/>
<path style="fill:#FF8E00;" d="M206.835,10.734L185.92,217.569l20.915,206.835c114.232,0,206.835-92.603,206.835-206.835  S321.067,10.734,206.835,10.734z"/>
<path style="fill:#FFBA00;" d="M206.835,42.083V10.735C92.603,10.734,0,103.338,0,217.569s92.603,206.835,206.835,206.835V73.43  c79.479,0,144.14,64.661,144.14,144.14h31.348C382.322,120.806,303.599,42.083,206.835,42.083z"/>
<path style="fill:#B4B4B4;" d="M206.835,119.013L185.92,217.57l20.915,98.557c54.431,0,98.557-44.125,98.557-98.557  S261.266,119.013,206.835,119.013z"/>
<path style="fill:#E0E0E0;" d="M108.278,217.569c0,54.431,44.126,98.557,98.557,98.557V119.013  C152.404,119.013,108.278,163.138,108.278,217.569z"/>
<rect x="441.229" y="201.9" style="fill:#B4B4B4;" width="70.773" height="31.348"/>
<path style="fill:#707070;" d="M206.835,180.365l-20.915,37.203l20.915,37.203c20.547,0,37.203-16.657,37.203-37.203  S227.382,180.365,206.835,180.365z"/>
<path style="fill:#B4B4B4;" d="M169.632,217.569c0,20.547,16.657,37.203,37.203,37.203v-74.407  C186.289,180.365,169.632,197.023,169.632,217.569z"/>
<g>
</g>
<g>
</g>
<g>
</g>
<g>
</g>
<g>
</g>
<g>
</g>
<g>
</g>
<g>
</g>
<g>
</g>
<g>
</g>
<g>
</g>
<g>
</g>
<g>
</g>
<g>
</g>
<g>
</g>
</svg>
