<?xml version="1.0" encoding="iso-8859-1"?>
<!-- Generator: Adobe Illustrator 19.0.0, SVG Export Plug-In . SVG Version: 6.00 Build 0)  -->
<svg xmlns="http://www.w3.org/2000/svg" xmlns:xlink="http://www.w3.org/1999/xlink" version="1.1" id="Layer_1" x="0px" y="0px" viewBox="0 0 512 512" style="enable-background:new 0 0 512 512;" xml:space="preserve">
<polygon style="fill:#B8002A;" points="336.253,89.397 315.034,0 256,0 235.085,110.312 "/>
<polygon style="fill:#DE0436;" points="256,0 196.966,0 175.747,89.397 256,110.312 "/>
<polygon style="fill:#FFBA00;" points="235.085,206.082 358.986,185.167 336.253,89.397 256,89.397 "/>
<polygon style="fill:#FDE09C;" points="256,89.397 175.747,89.397 153.014,185.167 256,206.082 "/>
<polygon style="fill:#B8002A;" points="235.085,295.479 380.206,274.565 358.986,185.167 256,185.167 "/>
<polygon style="fill:#DE0436;" points="256,185.167 153.014,185.167 131.794,274.565 256,295.479 "/>
<polygon style="fill:#FFBA00;" points="235.085,391.249 402.939,370.335 380.206,274.565 256,274.565 "/>
<polygon style="fill:#FDE09C;" points="256,274.565 131.794,274.565 109.061,370.335 256,391.249 "/>
<polygon style="fill:#B8002A;" points="235.085,480.647 424.16,459.732 402.939,370.335 256,370.335 "/>
<polygon style="fill:#DE0436;" points="256,370.335 109.061,370.335 87.84,459.732 256,480.647 "/>
<polygon style="fill:#960022;" points="512,459.732 424.16,459.732 256,459.732 235.085,485.875 256,512 512,512 "/>
<polygon style="fill:#B8002A;" points="87.84,459.732 0,459.732 0,512 256,512 256,459.732 "/>
<g>
</g>
<g>
</g>
<g>
</g>
<g>
</g>
<g>
</g>
<g>
</g>
<g>
</g>
<g>
</g>
<g>
</g>
<g>
</g>
<g>
</g>
<g>
</g>
<g>
</g>
<g>
</g>
<g>
</g>
</svg>
