<?xml version="1.0" encoding="iso-8859-1"?>
<!-- Generator: Adobe Illustrator 19.0.0, SVG Export Plug-In . SVG Version: 6.00 Build 0)  -->
<svg xmlns="http://www.w3.org/2000/svg" xmlns:xlink="http://www.w3.org/1999/xlink" version="1.1" id="Layer_1" x="0px" y="0px" viewBox="0 0 512 512" style="enable-background:new 0 0 512 512;" xml:space="preserve">
<path style="fill:#FF8E00;" d="M352.282,31.023h-0.677c-11.995,0-21.899,8.934-23.434,20.51h-0.213V23.648  C327.958,10.588,317.371,0,304.311,0h-0.677c-11.996,0-21.899,8.934-23.434,20.51h-0.427C278.238,8.934,268.334,0,256.339,0H256  l-20.915,360.268l115.068-20.915l0,0c17.055-47.306,25.776-97.21,25.776-147.497V54.67C375.93,41.61,365.343,31.023,352.282,31.023z  "/>
<path style="fill:#FFBA00;" d="M255.661,0c-13.06,0-23.648,10.588-23.648,23.648v27.885H231.8  c-1.535-11.576-11.439-20.51-23.434-20.51h-0.677c-13.06,0-23.648,10.588-23.648,23.648v89.93h-0.213  c-1.535-11.576-11.439-20.51-23.434-20.51h-0.677c-13.06,0-23.648,10.588-23.648,23.648v72.5c0,41.089,8.789,81.703,25.777,119.115  l0,0L256,360.268V0H255.661z"/>
<polygon style="fill:#FF8E00;" points="360.266,393.293 235.085,372.379 256,512 382.518,512 "/>
<polygon style="fill:#FFBA00;" points="151.734,393.293 129.482,512 256,512 256,372.379 "/>
<polygon style="fill:#424242;" points="256,393.293 360.266,393.293 350.154,339.354 256,339.354 235.085,366.323 "/>
<polygon style="fill:#707070;" points="256,339.354 161.846,339.354 161.846,339.354 151.734,393.293 256,393.293 "/>
<g>
</g>
<g>
</g>
<g>
</g>
<g>
</g>
<g>
</g>
<g>
</g>
<g>
</g>
<g>
</g>
<g>
</g>
<g>
</g>
<g>
</g>
<g>
</g>
<g>
</g>
<g>
</g>
<g>
</g>
</svg>
