<?xml version="1.0" encoding="iso-8859-1"?>
<!-- Generator: Adobe Illustrator 19.0.0, SVG Export Plug-In . SVG Version: 6.00 Build 0)  -->
<svg xmlns="http://www.w3.org/2000/svg" xmlns:xlink="http://www.w3.org/1999/xlink" version="1.1" id="Layer_1" x="0px" y="0px" viewBox="0 0 512.002 512.002" style="enable-background:new 0 0 512.002 512.002;" xml:space="preserve">
<rect x="399.444" y="273.932" style="fill:#B4B4B4;" width="67.822" height="60.276"/>
<rect x="44.736" y="273.932" style="fill:#E0E0E0;" width="67.822" height="60.276"/>
<path style="fill:#B8002A;" d="M357.363,251.977V132.733c0-45.452-29.918-83.915-71.134-96.775V0h-30.226l-20.916,302.043  l20.916,194.281h101.36V356.165h68.076V251.977H357.363z"/>
<path style="fill:#DE0436;" d="M225.778,0v35.958c-41.217,12.86-71.134,51.324-71.134,96.775v119.244H86.567v104.188h68.076v140.159  h101.36V0H225.778z"/>
<path style="fill:#B4B4B4;" d="M256.004,242.427l-20.916,61.643l20.916,61.643c34.045,0,61.643-27.599,61.643-61.643  S290.048,242.427,256.004,242.427z"/>
<path style="fill:#E0E0E0;" d="M194.36,304.072c0,34.045,27.599,61.643,61.643,61.643V242.427  C221.958,242.427,194.36,270.026,194.36,304.072z"/>
<path style="fill:#707070;" d="M280.896,304.072c0-13.748-11.145-24.893-24.893-24.893l-10.458,24.893l10.458,24.893  C269.751,328.964,280.896,317.819,280.896,304.072z"/>
<path style="fill:#B4B4B4;" d="M231.111,304.072c0,13.748,11.145,24.893,24.893,24.893v-49.786  C242.255,279.178,231.111,290.323,231.111,304.072z"/>
<g>
	<polygon style="fill:#707070;" points="391.868,137.975 256.004,137.975 235.088,153.649 256.004,169.323 391.868,169.323  "/>
	<polygon style="fill:#707070;" points="391.868,512 391.868,480.652 256.004,480.652 235.088,496.325 256.004,512  "/>
</g>
<g>
	<rect x="120.141" y="137.975" style="fill:#B4B4B4;" width="135.864" height="31.348"/>
	<rect x="120.141" y="480.654" style="fill:#B4B4B4;" width="135.864" height="31.348"/>
</g>
<g>
</g>
<g>
</g>
<g>
</g>
<g>
</g>
<g>
</g>
<g>
</g>
<g>
</g>
<g>
</g>
<g>
</g>
<g>
</g>
<g>
</g>
<g>
</g>
<g>
</g>
<g>
</g>
<g>
</g>
</svg>
