<?xml version="1.0" encoding="iso-8859-1"?>
<!-- Generator: Adobe Illustrator 19.0.0, SVG Export Plug-In . SVG Version: 6.00 Build 0)  -->
<svg xmlns="http://www.w3.org/2000/svg" xmlns:xlink="http://www.w3.org/1999/xlink" version="1.1" id="Layer_1" x="0px" y="0px" viewBox="0 0 512 512" style="enable-background:new 0 0 512 512;" xml:space="preserve">
<rect x="382.621" y="120.582" style="fill:#FF8E00;" width="31.347" height="44.803"/>
<g>
	<rect x="56.22" y="114.647" style="fill:#983300;" width="31.347" height="50.733"/>
	<rect x="100.77" y="114.647" style="fill:#983300;" width="31.347" height="50.733"/>
	<rect x="145.324" y="114.647" style="fill:#983300;" width="31.347" height="50.733"/>
</g>
<g>
	<rect x="189.868" y="114.647" style="fill:#663300;" width="31.347" height="50.733"/>
	<rect x="234.423" y="114.647" style="fill:#663300;" width="31.347" height="50.733"/>
	<rect x="278.967" y="114.647" style="fill:#663300;" width="31.347" height="50.733"/>
	<rect x="323.521" y="114.647" style="fill:#663300;" width="31.347" height="50.733"/>
</g>
<polygon style="fill:#FFBA00;" points="484.123,256.631 409.089,175.401 371.156,270.621 409.089,348.192 484.123,348.192 "/>
<polygon style="fill:#FDE09C;" points="390.173,154.923 334.056,154.923 313.141,256.631 334.056,348.192 409.089,348.192   409.089,175.401 "/>
<polygon style="fill:#B8002A;" points="334.056,154.923 180.966,154.923 149.594,256.631 180.966,348.192 334.056,348.192 "/>
<path style="fill:#DE0436;" d="M52.915,154.923c-13.828,0-25.038,11.21-25.038,25.038v168.231h153.089V154.923H52.915z"/>
<polygon style="fill:#B4B4B4;" points="512,332.518 256,332.518 235.085,348.192 256,363.865 512,363.865 "/>
<rect y="332.518" style="fill:#E0E0E0;" width="256" height="31.347"/>
<path style="fill:#707070;" d="M104.785,343.278l-20.915,34.875l20.915,34.875c19.23,0,34.875-15.644,34.875-34.875  S124.016,343.278,104.785,343.278z"/>
<path style="fill:#B4B4B4;" d="M69.911,378.152c0,19.23,15.644,34.875,34.875,34.875v-69.749  C85.555,343.278,69.911,358.923,69.911,378.152z"/>
<path style="fill:#424242;" d="M409.089,343.278l-20.915,34.875l20.915,34.875c19.23,0,34.875-15.644,34.875-34.875  S428.319,343.278,409.089,343.278z"/>
<path style="fill:#707070;" d="M374.215,378.152c0,19.23,15.644,34.875,34.875,34.875v-69.749  C389.86,343.278,374.215,358.923,374.215,378.152z"/>
<polygon style="fill:#983300;" points="372.202,98.974 185.578,98.974 164.663,114.648 185.578,130.321 372.202,130.321 "/>
<rect y="98.973" style="fill:#D5681E;" width="185.574" height="31.347"/>
<polygon style="fill:#3C8CD8;" points="437.149,171.466 416.234,224.123 437.149,256.631 484.123,256.631 "/>
<polygon style="fill:#76BFEF;" points="428.024,154.923 390.173,154.923 390.173,256.631 437.149,256.631 437.149,171.466 "/>
<g>
</g>
<g>
</g>
<g>
</g>
<g>
</g>
<g>
</g>
<g>
</g>
<g>
</g>
<g>
</g>
<g>
</g>
<g>
</g>
<g>
</g>
<g>
</g>
<g>
</g>
<g>
</g>
<g>
</g>
</svg>
