<?xml version="1.0" encoding="iso-8859-1"?>
<!-- Generator: Adobe Illustrator 19.0.0, SVG Export Plug-In . SVG Version: 6.00 Build 0)  -->
<svg xmlns="http://www.w3.org/2000/svg" xmlns:xlink="http://www.w3.org/1999/xlink" version="1.1" id="Layer_1" x="0px" y="0px" viewBox="0 0 512 512" style="enable-background:new 0 0 512 512;" xml:space="preserve">
<polygon style="fill:#FFBA00;" points="247.877,512 418.006,512 418.006,271.828 216.505,240.456 "/>
<polygon style="fill:#FDE09C;" points="77.748,271.828 77.748,512 247.877,512 247.877,240.456 "/>
<polygon style="fill:#B8002A;" points="247.877,85.428 216.505,209.107 247.877,271.828 418.006,271.828 449.088,271.828 "/>
<polygon style="fill:#DE0436;" points="247.877,85.428 46.667,271.828 77.748,271.828 247.877,271.828 "/>
<polygon style="fill:#983300;" points="285.55,391.914 247.877,391.914 226.962,451.957 247.877,512 285.55,512 "/>
<rect x="210.202" y="391.91" style="fill:#D5681E;" width="37.669" height="120.09"/>
<path style="fill:#FF8E00;" d="M465.333,133.55c0-87.28-91.053-133.549-91.056-133.55l-31.199,137.269l31.199,87.337  C424.566,224.606,465.333,183.839,465.333,133.55z"/>
<path style="fill:#FFBA00;" d="M374.277,0c0,0-91.056,46.269-91.056,133.55c0,50.289,40.767,91.056,91.056,91.056l0,0V0L374.277,0z"/>
<path style="fill:#B8002A;" d="M403.063,151.357c0-23.783-14.551-43.431-28.785-56.959l-14.392,48.143l14.392,37.603  C390.149,180.141,403.063,167.229,403.063,151.357z"/>
<path style="fill:#DE0436;" d="M374.277,94.397c-14.234,13.528-28.785,33.177-28.785,56.959c0,15.872,12.913,28.785,28.785,28.785  l0,0V94.397L374.277,94.397z"/>
<g>
</g>
<g>
</g>
<g>
</g>
<g>
</g>
<g>
</g>
<g>
</g>
<g>
</g>
<g>
</g>
<g>
</g>
<g>
</g>
<g>
</g>
<g>
</g>
<g>
</g>
<g>
</g>
<g>
</g>
</svg>
