<?xml version="1.0" encoding="iso-8859-1"?>
<!-- Generator: Adobe Illustrator 19.0.0, SVG Export Plug-In . SVG Version: 6.00 Build 0)  -->
<svg xmlns="http://www.w3.org/2000/svg" xmlns:xlink="http://www.w3.org/1999/xlink" version="1.1" id="Layer_1" x="0px" y="0px" viewBox="0 0 512 512" style="enable-background:new 0 0 512 512;" xml:space="preserve">
<path style="fill:#983300;" d="M283.174,0.092C274.312,0.032,265.256,0,256.002,0h-0.001l-13.594,256l13.594,256h27.174V0.092z"/>
<path style="fill:#D5681E;" d="M255.999,0c-9.255,0-18.311,0.032-27.173,0.092V512h27.174L255.999,0L255.999,0z"/>
<path style="fill:#B4B4B4;" d="M304.513,57.261V40.875h-48.513l-20.915,44.553l20.915,44.552h48.513v-15.557  c131.172,1.813,203.4,10.455,203.4,10.455C507.914,109.689,420.426,67.187,304.513,57.261z"/>
<path style="fill:#E0E0E0;" d="M207.488,40.875v16.386C91.575,67.187,4.087,109.689,4.087,124.879c0,0,72.228-8.642,203.4-10.455  v15.557h48.514V40.875H207.488z"/>
<g>
</g>
<g>
</g>
<g>
</g>
<g>
</g>
<g>
</g>
<g>
</g>
<g>
</g>
<g>
</g>
<g>
</g>
<g>
</g>
<g>
</g>
<g>
</g>
<g>
</g>
<g>
</g>
<g>
</g>
</svg>
