<?xml version="1.0" encoding="iso-8859-1"?>
<!-- Generator: Adobe Illustrator 19.0.0, SVG Export Plug-In . SVG Version: 6.00 Build 0)  -->
<svg xmlns="http://www.w3.org/2000/svg" xmlns:xlink="http://www.w3.org/1999/xlink" version="1.1" id="Layer_1" x="0px" y="0px" viewBox="0 0 512 512" style="enable-background:new 0 0 512 512;" xml:space="preserve">
<path style="fill:#FF8E00;" d="M246.034,0l-20.915,209.107l20.915,209.107c62.657,0,118.87-27.566,157.194-71.223v69.962h51.913  V209.107C455.141,93.621,361.52,0,246.034,0z"/>
<g>
	<path style="fill:#FFBA00;" d="M36.927,209.107c0,115.486,93.621,209.107,209.107,209.107V0   C130.546,0,36.927,93.621,36.927,209.107z"/>
	<path style="fill:#FFBA00;" d="M246.034,51.913l-20.915,157.194l20.915,157.194c86.816,0,157.194-70.378,157.194-157.194   S332.849,51.913,246.034,51.913z"/>
</g>
<path style="fill:#FDE09C;" d="M88.839,209.107c0,86.816,70.378,157.194,157.194,157.194V51.913  C159.217,51.913,88.839,122.291,88.839,209.107z"/>
<path style="fill:#FF8E00;" d="M246.034,103.825l-20.915,105.282l20.915,105.282c58.145,0,105.282-47.136,105.282-105.282  C351.315,150.962,304.179,103.825,246.034,103.825z"/>
<polygon style="fill:#B4B4B4;" points="460.018,417.051 408.27,417.051 429.185,512 451.048,512 "/>
<polygon style="fill:#E0E0E0;" points="398.35,417.051 407.321,512 429.185,512 429.185,417.051 "/>
<polygon style="fill:#707070;" points="475.073,401.378 429.185,401.378 418.727,417.051 429.185,432.725 475.073,432.725 "/>
<rect x="383.3" y="401.377" style="fill:#B4B4B4;" width="45.889" height="31.347"/>
<g>
	<path style="fill:#FFBA00;" d="M140.752,209.107c0,58.145,47.136,105.282,105.282,105.282V103.825   C187.888,103.825,140.752,150.962,140.752,209.107z"/>
	<path style="fill:#FFBA00;" d="M246.034,155.739l-20.915,53.368l20.915,53.368c29.474,0,53.368-23.894,53.368-53.368   C299.402,179.633,275.508,155.739,246.034,155.739z"/>
</g>
<path style="fill:#FDE09C;" d="M192.665,209.107c0,29.474,23.894,53.368,53.368,53.368V155.739  C216.559,155.739,192.665,179.633,192.665,209.107z"/>
<g>
</g>
<g>
</g>
<g>
</g>
<g>
</g>
<g>
</g>
<g>
</g>
<g>
</g>
<g>
</g>
<g>
</g>
<g>
</g>
<g>
</g>
<g>
</g>
<g>
</g>
<g>
</g>
<g>
</g>
</svg>
