<?xml version="1.0" encoding="iso-8859-1"?>
<!-- Generator: Adobe Illustrator 19.0.0, SVG Export Plug-In . SVG Version: 6.00 Build 0)  -->
<svg xmlns="http://www.w3.org/2000/svg" xmlns:xlink="http://www.w3.org/1999/xlink" version="1.1" id="Layer_1" x="0px" y="0px" viewBox="0 0 512 512" style="enable-background:new 0 0 512 512;" xml:space="preserve">
<polygon style="fill:#983300;" points="282.724,88.2 248.584,67.285 260.086,512 282.724,512 "/>
<polygon style="fill:#D5681E;" points="237.45,88.2 237.45,512 260.086,512 260.086,67.285 "/>
<path style="fill:#B4B4B4;" d="M336.597,0h-76.511l-28.119,38.313L260.086,88.2h22.637h14.025c10.925,0,21.402,1.976,31.077,5.004  l31.338-43.049L336.597,0z"/>
<path style="fill:#E0E0E0;" d="M207.268,0C133.967,0,106.66,33.404,106.66,55.515h100.608V88.2h30.183h22.637V0H207.268z"/>
<path style="fill:#B8002A;" d="M403.134,0h-66.537c2.139,17.664,5.639,62.478-8.772,93.204c32.634,10.214,56.06,32.534,56.06,32.534  C414.952,65.923,403.134,0,403.134,0z"/>
<g>
</g>
<g>
</g>
<g>
</g>
<g>
</g>
<g>
</g>
<g>
</g>
<g>
</g>
<g>
</g>
<g>
</g>
<g>
</g>
<g>
</g>
<g>
</g>
<g>
</g>
<g>
</g>
<g>
</g>
</svg>
