<?xml version="1.0" encoding="iso-8859-1"?>
<!-- Generator: Adobe Illustrator 19.0.0, SVG Export Plug-In . SVG Version: 6.00 Build 0)  -->
<svg xmlns="http://www.w3.org/2000/svg" xmlns:xlink="http://www.w3.org/1999/xlink" version="1.1" id="Layer_1" x="0px" y="0px" viewBox="0 0 512.002 512.002" style="enable-background:new 0 0 512.002 512.002;" xml:space="preserve">
<polygon style="fill:#983300;" points="277.945,199.593 240.314,178.677 256.001,496.325 277.945,496.325 "/>
<path style="fill:#B4B4B4;" d="M350.569,94.568C350.569,42.339,308.229,0,256.001,0l0,0l-20.916,112.328l20.916,87.264h94.568  V94.568z"/>
<path style="fill:#E0E0E0;" d="M256.001,0c-52.228,0-94.568,42.339-94.568,94.568v105.025h94.568V0L256.001,0z"/>
<polygon style="fill:#D5681E;" points="234.057,199.593 234.057,496.325 256.001,496.325 256.001,178.677 "/>
<path style="fill:#707070;" d="M277.945,134.272c0-12.119-9.825-21.944-21.944-21.944l0,0l-10.458,49.987l10.458,37.278h21.944  V134.272z"/>
<path style="fill:#B4B4B4;" d="M234.057,134.272v65.321h21.944v-87.264C243.882,112.328,234.057,122.153,234.057,134.272z"/>
<polygon style="fill:#663300;" points="319.743,512 319.743,480.652 256.001,480.652 245.543,496.325 256.001,512 "/>
<rect x="192.26" y="480.654" style="fill:#983300;" width="63.742" height="31.348"/>
<g>
</g>
<g>
</g>
<g>
</g>
<g>
</g>
<g>
</g>
<g>
</g>
<g>
</g>
<g>
</g>
<g>
</g>
<g>
</g>
<g>
</g>
<g>
</g>
<g>
</g>
<g>
</g>
<g>
</g>
</svg>
