<?xml version="1.0" encoding="iso-8859-1"?>
<!-- Generator: Adobe Illustrator 19.0.0, SVG Export Plug-In . SVG Version: 6.00 Build 0)  -->
<svg xmlns="http://www.w3.org/2000/svg" xmlns:xlink="http://www.w3.org/1999/xlink" version="1.1" id="Layer_1" x="0px" y="0px" viewBox="0 0 512 512" style="enable-background:new 0 0 512 512;" xml:space="preserve">
<path style="fill:#B8002A;" d="M452.04,408.274V278.177c0-82.024-50.382-152.27-121.882-181.512V47.945H256l-20.915,381.244  L452.04,408.274z"/>
<path style="fill:#DE0436;" d="M256,47.945h-74.158v48.719C110.342,125.907,59.96,196.152,59.96,278.177v130.097L256,429.189V47.945  z"/>
<path style="fill:#FF8E00;" d="M315.913,208.06c-3.63,0.672-7.367,1.04-11.19,1.04c-19.887,0-37.55-9.495-48.724-24.193  l-20.915,72.998L256,330.902c0,0,64.677-16.169,64.677-92.004C320.677,230.276,318.976,215.582,315.913,208.06z"/>
<path style="fill:#FFBA00;" d="M207.276,209.1c-3.824,0-7.56-0.368-11.19-1.04c-3.062,7.521-4.763,22.216-4.763,30.837  c0,75.836,64.677,92.004,64.677,92.004V184.907C244.827,199.605,227.163,209.1,207.276,209.1z"/>
<polygon style="fill:#707070;" points="512,408.274 452.04,408.274 256,408.274 235.085,436.164 256,464.055 512,464.055 "/>
<polygon style="fill:#B4B4B4;" points="59.96,408.274 0,408.274 0,464.055 256,464.055 256,408.274 "/>
<g>
</g>
<g>
</g>
<g>
</g>
<g>
</g>
<g>
</g>
<g>
</g>
<g>
</g>
<g>
</g>
<g>
</g>
<g>
</g>
<g>
</g>
<g>
</g>
<g>
</g>
<g>
</g>
<g>
</g>
</svg>
