<?xml version="1.0" encoding="iso-8859-1"?>
<!-- Generator: Adobe Illustrator 19.0.0, SVG Export Plug-In . SVG Version: 6.00 Build 0)  -->
<svg xmlns="http://www.w3.org/2000/svg" xmlns:xlink="http://www.w3.org/1999/xlink" version="1.1" id="Layer_1" x="0px" y="0px" viewBox="0 0 512 512" style="enable-background:new 0 0 512 512;" xml:space="preserve">
<polygon style="fill:#B8002A;" points="512,111.865 401.276,111.865 380.362,169.862 401.276,227.859 512,227.859 "/>
<polygon style="fill:#707070;" points="235.041,111.865 132.089,119.734 111.174,169.862 132.089,219.99 235.041,227.859   255.956,169.862 "/>
<rect x="278.465" y="111.867" style="fill:#DE0436;" width="122.807" height="115.994"/>
<polygon style="fill:#B4B4B4;" points="29.136,127.603 29.136,212.122 132.089,219.99 132.089,119.734 "/>
<g>
	<path style="fill:#76BFEF;" d="M58.273,309.385c0-23.21-29.136-51.377-29.136-51.377l-10.457,45.03l10.457,35.483   C45.227,338.521,58.273,325.476,58.273,309.385z"/>
	<path style="fill:#76BFEF;" d="M29.136,364.643l-10.457,43.929l10.457,36.584c16.091,0,29.136-13.044,29.136-29.136   C58.273,392.81,29.136,364.643,29.136,364.643z"/>
</g>
<g>
	<path style="fill:#B0D8FB;" d="M0,309.385c0,16.091,13.045,29.136,29.136,29.136v-80.513C29.136,258.008,0,286.175,0,309.385z"/>
	<path style="fill:#B0D8FB;" d="M0,416.02c0,16.091,13.045,29.136,29.136,29.136v-80.513C29.136,364.643,0,392.81,0,416.02z"/>
</g>
<polygon style="fill:#B4B4B4;" points="290.552,66.844 262.796,66.844 243.973,169.862 262.796,272.879 290.552,272.879 "/>
<rect x="235.039" y="66.844" style="fill:#E0E0E0;" width="27.756" height="206.033"/>
<g>
</g>
<g>
</g>
<g>
</g>
<g>
</g>
<g>
</g>
<g>
</g>
<g>
</g>
<g>
</g>
<g>
</g>
<g>
</g>
<g>
</g>
<g>
</g>
<g>
</g>
<g>
</g>
<g>
</g>
</svg>
