<?xml version="1.0" encoding="iso-8859-1"?>
<!-- Generator: Adobe Illustrator 19.0.0, SVG Export Plug-In . SVG Version: 6.00 Build 0)  -->
<svg xmlns="http://www.w3.org/2000/svg" xmlns:xlink="http://www.w3.org/1999/xlink" version="1.1" id="Layer_1" x="0px" y="0px" viewBox="0 0 512 512" style="enable-background:new 0 0 512 512;" xml:space="preserve">
<path style="fill:#E0E0E0;" d="M31.347,196.316H0c0-15.378,3.748-23.741,6.76-30.462c2.42-5.4,4.019-8.967,4.019-17.641  c0-8.677-1.599-12.244-4.02-17.645C3.748,123.847,0,115.481,0,100.103S3.748,76.36,6.76,69.639c2.42-5.401,4.02-8.968,4.02-17.645  h31.347c0,15.379-3.748,23.743-6.76,30.465c-2.421,5.4-4.02,8.967-4.02,17.644s1.599,12.244,4.02,17.645  c3.011,6.722,6.76,15.086,6.76,30.465c0,15.378-3.748,23.741-6.76,30.462C32.946,184.074,31.347,187.642,31.347,196.316z"/>
<path style="fill:#B4B4B4;" d="M77.501,196.316H46.154c0-15.378,3.748-23.741,6.76-30.462c2.42-5.399,4.019-8.967,4.019-17.641  c0-8.677-1.599-12.245-4.02-17.646c-3.011-6.721-6.759-15.086-6.759-30.464s3.748-23.743,6.759-30.464  c2.42-5.401,4.02-8.969,4.02-17.646H88.28c0,15.379-3.748,23.743-6.759,30.464c-2.42,5.401-4.02,8.969-4.02,17.645  c0,8.677,1.599,12.245,4.02,17.646c3.011,6.721,6.759,15.086,6.759,30.464s-3.748,23.741-6.76,30.462  C79.1,184.074,77.501,187.642,77.501,196.316z"/>
<polygon style="fill:#E66600;" points="345.387,241.305 366.302,295.756 512,295.756 512,262.219 "/>
<polygon style="fill:#FF8E00;" points="512,228.681 366.302,228.681 345.387,262.219 512,262.219 "/>
<polygon style="fill:#FFBA00;" points="64.493,295.756 64.493,295.756 64.493,295.756 366.3,295.756 366.3,262.219 43.579,241.305   "/>
<polygon style="fill:#FDE09C;" points="64.493,228.681 43.579,262.219 366.3,262.219 366.3,228.681 "/>
<polygon style="fill:#707070;" points="0,262.219 0,295.756 64.493,295.756 64.493,262.219 32.247,241.305 "/>
<polygon style="fill:#B4B4B4;" points="64.493,228.681 64.493,228.681 64.493,228.681 0,228.681 0,262.219 64.493,262.219 "/>
<polygon style="fill:#B8002A;" points="74.981,443.237 91.749,460.007 453.788,97.968 437.019,81.199 256,241.305 "/>
<rect x="-8.385" y="241.975" transform="matrix(-0.7071 0.7071 -0.7071 -0.7071 602.1879 258.231)" style="fill:#DE0436;" width="511.995" height="23.715"/>
<g>
</g>
<g>
</g>
<g>
</g>
<g>
</g>
<g>
</g>
<g>
</g>
<g>
</g>
<g>
</g>
<g>
</g>
<g>
</g>
<g>
</g>
<g>
</g>
<g>
</g>
<g>
</g>
<g>
</g>
</svg>
