<?xml version="1.0" encoding="iso-8859-1"?>
<!-- Generator: Adobe Illustrator 19.0.0, SVG Export Plug-In . SVG Version: 6.00 Build 0)  -->
<svg xmlns="http://www.w3.org/2000/svg" xmlns:xlink="http://www.w3.org/1999/xlink" version="1.1" id="Layer_1" x="0px" y="0px" viewBox="0 0 512.001 512.001" style="enable-background:new 0 0 512.001 512.001;" xml:space="preserve">
<polygon style="fill:#FFBA00;" points="462.326,34.983 427.938,34.983 407.023,169.733 427.938,304.482 462.326,304.482   483.239,169.733 "/>
<rect x="462.326" y="0.001" style="fill:#707070;" width="49.675" height="339.466"/>
<polygon style="fill:#FDE09C;" points="393.55,34.983 372.636,169.733 393.55,304.482 427.938,304.482 427.938,34.983 "/>
<polygon style="fill:#FFBA00;" points="393.55,34.983 359.163,34.983 338.248,169.733 359.163,390.727 393.55,390.727 "/>
<polygon style="fill:#FDE09C;" points="324.775,34.983 303.86,169.733 324.775,304.482 324.775,390.727 359.163,390.727   359.163,34.983 "/>
<polygon style="fill:#FFBA00;" points="324.775,34.983 290.388,34.983 269.473,169.733 290.388,304.482 324.775,304.482 "/>
<polygon style="fill:#FDE09C;" points="256,34.983 235.085,169.733 256,304.482 290.388,304.482 290.388,34.983 "/>
<polygon style="fill:#FFBA00;" points="256,34.983 221.612,34.983 200.698,169.733 221.612,304.482 256,304.482 "/>
<polygon style="fill:#FDE09C;" points="187.225,34.983 166.31,169.733 187.225,304.482 221.612,304.482 221.612,34.983 "/>
<polygon style="fill:#FFBA00;" points="187.225,34.983 152.837,34.983 131.923,169.733 152.837,304.482 187.225,304.482 "/>
<polygon style="fill:#FDE09C;" points="118.45,34.983 97.535,169.733 118.45,304.482 152.837,304.482 152.837,34.983 "/>
<polygon style="fill:#FFBA00;" points="118.45,34.983 84.062,34.983 63.147,169.733 84.062,304.482 118.45,304.482 "/>
<polygon style="fill:#FDE09C;" points="49.675,34.983 28.761,169.733 49.675,304.482 84.062,304.482 84.062,34.983 "/>
<g>
	<rect y="0.001" style="fill:#B4B4B4;" width="49.675" height="339.466"/>
	<polygon style="fill:#B4B4B4;" points="393.55,390.727 338.248,390.727 359.163,512 382.762,512  "/>
</g>
<polygon style="fill:#E0E0E0;" points="324.775,390.727 335.563,512 359.163,512 359.163,390.727 "/>
<polygon style="fill:#707070;" points="415.172,375.053 359.163,375.053 338.248,390.727 359.163,406.4 415.172,406.4 "/>
<rect x="303.156" y="375.056" style="fill:#B4B4B4;" width="56.01" height="31.347"/>
<g>
</g>
<g>
</g>
<g>
</g>
<g>
</g>
<g>
</g>
<g>
</g>
<g>
</g>
<g>
</g>
<g>
</g>
<g>
</g>
<g>
</g>
<g>
</g>
<g>
</g>
<g>
</g>
<g>
</g>
</svg>
