<?xml version="1.0" encoding="iso-8859-1"?>
<!-- Generator: Adobe Illustrator 19.0.0, SVG Export Plug-In . SVG Version: 6.00 Build 0)  -->
<svg xmlns="http://www.w3.org/2000/svg" xmlns:xlink="http://www.w3.org/1999/xlink" version="1.1" id="Layer_1" x="0px" y="0px" viewBox="0 0 512 512" style="enable-background:new 0 0 512 512;" xml:space="preserve">
<path style="fill:#424242;" d="M247.914,27.523c-88.879,0-161.188,72.308-161.188,161.187v268.89h31.347V188.71  c0-71.594,58.247-129.84,129.841-129.84h107.524V27.523C355.438,27.523,247.914,27.523,247.914,27.523z"/>
<polygon style="fill:#707070;" points="294.255,0 271.269,0 254.537,61.649 271.269,123.298 294.255,123.298 "/>
<rect x="247.915" style="fill:#B4B4B4;" width="23.356" height="123.298"/>
<path style="fill:#B8002A;" d="M373.673,199.497c0-56.556-45.848-102.404-102.405-102.404l0,0l-37.04,214.984L271.269,512h102.405  V199.497H373.673z"/>
<path style="fill:#DE0436;" d="M271.269,129.927V97.093l0,0c-56.556,0-102.405,45.848-102.405,102.404V512h102.405V161.274  c21.077,0,38.223,17.147,38.223,38.223v33.337h31.347v-33.337C340.839,161.136,309.63,129.927,271.269,129.927z"/>
<polygon style="fill:#707070;" points="406.038,441.926 238.036,441.926 217.121,457.599 238.036,473.273 406.038,473.273 "/>
<g>
	<rect x="70.031" y="441.929" style="fill:#B4B4B4;" width="167.999" height="31.347"/>
	<polygon style="fill:#B4B4B4;" points="441.969,4.877 391.639,11.026 370.725,43.196 391.639,75.365 441.969,81.516  "/>
</g>
<polygon style="fill:#E0E0E0;" points="341.31,17.175 341.31,69.216 391.639,75.365 391.639,11.026 "/>
<g>
</g>
<g>
</g>
<g>
</g>
<g>
</g>
<g>
</g>
<g>
</g>
<g>
</g>
<g>
</g>
<g>
</g>
<g>
</g>
<g>
</g>
<g>
</g>
<g>
</g>
<g>
</g>
<g>
</g>
</svg>
