<?xml version="1.0" encoding="iso-8859-1"?>
<!-- Generator: Adobe Illustrator 19.0.0, SVG Export Plug-In . SVG Version: 6.00 Build 0)  -->
<svg xmlns="http://www.w3.org/2000/svg" xmlns:xlink="http://www.w3.org/1999/xlink" version="1.1" id="Layer_1" x="0px" y="0px" viewBox="0 0 512 512" style="enable-background:new 0 0 512 512;" xml:space="preserve">
<polygon style="fill:#D5681E;" points="378.91,43.152 256.003,43.152 235.088,66.591 256.003,90.03 378.91,90.03 "/>
<rect x="133.092" y="43.154" style="fill:#FF9933;" width="122.911" height="46.878"/>
<polygon style="fill:#D5681E;" points="378.91,169.424 256.003,169.424 235.088,192.863 256.003,216.303 378.91,216.303 "/>
<rect x="133.092" y="169.42" style="fill:#FF9933;" width="122.911" height="46.878"/>
<polygon style="fill:#D5681E;" points="378.91,295.697 256.003,295.697 235.088,319.136 256.003,342.575 378.91,342.575 "/>
<rect x="133.092" y="295.696" style="fill:#FF9933;" width="122.911" height="46.878"/>
<polygon style="fill:#D5681E;" points="378.91,421.969 256.003,421.969 235.088,445.409 256.003,468.848 378.91,468.848 "/>
<rect x="133.092" y="421.972" style="fill:#FF9933;" width="122.911" height="46.878"/>
<rect x="109.655" style="fill:#D5681E;" width="46.878" height="512"/>
<rect x="355.467" style="fill:#983300;" width="46.878" height="512"/>
<g>
</g>
<g>
</g>
<g>
</g>
<g>
</g>
<g>
</g>
<g>
</g>
<g>
</g>
<g>
</g>
<g>
</g>
<g>
</g>
<g>
</g>
<g>
</g>
<g>
</g>
<g>
</g>
<g>
</g>
</svg>
