<?xml version="1.0" encoding="iso-8859-1"?>
<!-- Generator: Adobe Illustrator 19.0.0, SVG Export Plug-In . SVG Version: 6.00 Build 0)  -->
<svg xmlns="http://www.w3.org/2000/svg" xmlns:xlink="http://www.w3.org/1999/xlink" version="1.1" id="Layer_1" x="0px" y="0px" viewBox="0 0 512 512" style="enable-background:new 0 0 512 512;" xml:space="preserve">
<path style="fill:#707070;" d="M256,0L256,0l-11.551,16.763L256,31.477l0,0c80.629,0,146.225,65.597,146.225,146.226v56.939  l31.477-21.001v-35.937C433.703,79.717,353.986,0,256,0z"/>
<g>
	<path style="fill:#B4B4B4;" d="M78.298,177.703v35.937l31.477,21.001v-56.939c0-80.629,65.596-146.226,146.225-146.226V0   C158.014,0,78.298,79.717,78.298,177.703z"/>
	<polygon style="fill:#B4B4B4;" points="402.226,213.64 256,213.64 224.498,466.86 416.068,435.358 433.703,230.05 433.703,213.64     "/>
</g>
<polygon style="fill:#E0E0E0;" points="109.775,213.64 78.298,213.64 78.298,230.05 95.933,435.358 256,466.86 256,213.64 "/>
<polygon style="fill:#707070;" points="454.359,264.976 256,264.976 245.499,280.715 256,296.453 454.359,296.453 "/>
<rect x="57.641" y="264.973" style="fill:#B4B4B4;" width="198.357" height="31.477"/>
<polygon style="fill:#707070;" points="409.744,512 416.068,435.358 256,435.358 234.999,477.348 256,512 "/>
<polygon style="fill:#B4B4B4;" points="102.257,512 256,512 256,435.358 95.933,435.358 "/>
<g>
</g>
<g>
</g>
<g>
</g>
<g>
</g>
<g>
</g>
<g>
</g>
<g>
</g>
<g>
</g>
<g>
</g>
<g>
</g>
<g>
</g>
<g>
</g>
<g>
</g>
<g>
</g>
<g>
</g>
</svg>
