<?xml version="1.0" encoding="iso-8859-1"?>
<!-- Generator: Adobe Illustrator 19.0.0, SVG Export Plug-In . SVG Version: 6.00 Build 0)  -->
<svg xmlns="http://www.w3.org/2000/svg" xmlns:xlink="http://www.w3.org/1999/xlink" version="1.1" id="Layer_1" x="0px" y="0px" viewBox="0 0 512 512" style="enable-background:new 0 0 512 512;" xml:space="preserve">
<path style="fill:#663300;" d="M432.895,438.857h-27.538l-181.846-36.571l-36.571,73.143c0,20.198,16.374,36.571,36.571,36.571  h209.384V438.857L432.895,438.857z"/>
<path style="fill:#983300;" d="M219.429,475.429c0-20.198,16.374-36.571,36.571-36.571l-54.335-43.363l-95.022,43.363h-0.003H79.105  c-20.198,0-36.571,16.374-36.571,36.571c0,20.198,16.374,36.571,36.571,36.571H256C235.802,512,219.429,495.626,219.429,475.429z"/>
<path style="fill:#FF8E00;" d="M387.741,193.223C387.741,66.945,256.003,0.002,256,0l-45.139,198.603L256,324.963  C328.758,324.963,387.741,265.981,387.741,193.223z"/>
<path style="fill:#FFBA00;" d="M256,0c0,0-131.741,66.943-131.741,193.223c0,72.758,58.982,131.741,131.741,131.741l0,0V0L256,0z"/>
<path style="fill:#B8002A;" d="M297.646,218.984c0-34.41-21.053-62.837-41.646-82.41l-20.824,69.653L256,260.632  C278.964,260.632,297.646,241.948,297.646,218.984z"/>
<path style="fill:#DE0436;" d="M256,136.574c-20.594,19.573-41.646,48.001-41.646,82.41c0,22.964,18.683,41.646,41.646,41.646l0,0  V136.574L256,136.574z"/>
<path style="fill:#983300;" d="M469.418,473.547c-0.063-1.247-0.189-2.476-0.374-3.687s-0.429-2.402-0.73-3.57  c-1.353-5.258-3.846-10.059-7.199-14.123c-0.745-0.903-1.533-1.77-2.36-2.598c-1.654-1.654-3.467-3.151-5.413-4.466  c-0.973-0.657-1.979-1.268-3.016-1.832c-1.037-0.563-2.103-1.077-3.197-1.54c-1.094-0.463-2.215-0.874-3.36-1.23  c-1.145-0.356-2.314-0.657-3.505-0.901c-2.38-0.487-4.845-0.743-7.371-0.743l-21.66,38.738L432.895,512  c0.631,0,1.258-0.016,1.882-0.048c8.727-0.442,16.646-3.943,22.708-9.453c0.866-0.787,1.694-1.615,2.481-2.481  c1.574-1.731,2.984-3.615,4.206-5.626c0.305-0.503,0.599-1.014,0.881-1.532c0.563-1.037,1.077-2.103,1.54-3.197  c1.388-3.281,2.31-6.808,2.685-10.496c0.124-1.23,0.189-2.477,0.189-3.74C469.466,474.797,469.451,474.17,469.418,473.547z"/>
<path style="fill:#D5681E;" d="M432.895,438.857c-20.198,0-36.571,16.374-36.571,36.571c0,20.198,16.374,36.571,36.571,36.571l0,0  V438.857L432.895,438.857z"/>
<path style="fill:#983300;" d="M223.511,365.714c-20.198,0-36.571,16.374-36.571,36.571c0,20.198,16.374,36.571,36.571,36.571  h181.846v-73.143H223.511z"/>
<g>
	<path style="fill:#D5681E;" d="M256,438.857c-20.198,0-36.571-16.374-36.571-36.571c0-20.198,16.374-36.571,36.571-36.571H106.643   c-20.198,0-36.571,16.374-36.571,36.571c0,20.197,16.373,36.57,36.568,36.571h0.003H256z"/>
	<path style="fill:#D5681E;" d="M441.88,400.404c-0.063-1.247-0.189-2.476-0.374-3.687c-0.185-1.211-0.429-2.402-0.73-3.57   c-1.353-5.258-3.846-10.059-7.199-14.123c-0.745-0.903-1.533-1.77-2.36-2.598c-1.654-1.654-3.467-3.151-5.413-4.466   c-0.973-0.657-1.979-1.268-3.016-1.832c-1.037-0.563-2.103-1.077-3.197-1.54s-2.215-0.874-3.36-1.23   c-1.145-0.356-2.314-0.657-3.505-0.901c-2.38-0.487-4.845-0.743-7.371-0.743l-21.66,38.738l21.662,34.405   c0.631,0,1.258-0.016,1.882-0.048c8.727-0.442,16.646-3.943,22.708-9.453c0.866-0.787,1.694-1.615,2.481-2.481   c1.574-1.731,2.984-3.615,4.206-5.626c0.305-0.503,0.599-1.014,0.881-1.532c0.563-1.037,1.077-2.103,1.54-3.197   c1.388-3.281,2.31-6.808,2.685-10.496c0.124-1.23,0.189-2.477,0.189-3.74C441.928,401.655,441.911,401.028,441.88,400.404z"/>
</g>
<path style="fill:#FF9933;" d="M405.357,365.714c-20.198,0-36.571,16.374-36.571,36.571c0,20.198,16.374,36.571,36.571,36.571l0,0  V365.714L405.357,365.714z"/>
<g>
</g>
<g>
</g>
<g>
</g>
<g>
</g>
<g>
</g>
<g>
</g>
<g>
</g>
<g>
</g>
<g>
</g>
<g>
</g>
<g>
</g>
<g>
</g>
<g>
</g>
<g>
</g>
<g>
</g>
</svg>
