<?xml version="1.0" encoding="iso-8859-1"?>
<!-- Generator: Adobe Illustrator 19.0.0, SVG Export Plug-In . SVG Version: 6.00 Build 0)  -->
<svg xmlns="http://www.w3.org/2000/svg" xmlns:xlink="http://www.w3.org/1999/xlink" version="1.1" id="Layer_1" x="0px" y="0px" viewBox="0 0 512 512" style="enable-background:new 0 0 512 512;" xml:space="preserve">
<polygon style="fill:#983300;" points="279.455,219.211 239.268,219.211 256,512 279.455,512 "/>
<rect x="232.542" y="219.209" style="fill:#D5681E;" width="23.455" height="292.791"/>
<path style="fill:#FF8E00;" d="M366.804,162.515C366.804,56.305,256.003,0.001,256,0l-37.964,167.041L256,273.319  C317.195,273.319,366.804,223.711,366.804,162.515z"/>
<path style="fill:#FFBA00;" d="M256,0c0,0-110.804,56.304-110.804,162.515c0,61.195,49.609,110.804,110.804,110.804l0,0V0L256,0z"/>
<path style="fill:#B8002A;" d="M291.028,184.183c0-28.942-17.707-52.851-35.028-69.313l-17.515,58.583L256,219.211  C275.315,219.211,291.028,203.497,291.028,184.183z"/>
<path style="fill:#DE0436;" d="M256,114.87c-17.321,16.462-35.028,40.372-35.028,69.313c0,19.315,15.714,35.028,35.028,35.028l0,0  V114.87L256,114.87z"/>
<g>
</g>
<g>
</g>
<g>
</g>
<g>
</g>
<g>
</g>
<g>
</g>
<g>
</g>
<g>
</g>
<g>
</g>
<g>
</g>
<g>
</g>
<g>
</g>
<g>
</g>
<g>
</g>
<g>
</g>
</svg>
