<?xml version="1.0" encoding="iso-8859-1"?>
<!-- Generator: Adobe Illustrator 19.0.0, SVG Export Plug-In . SVG Version: 6.00 Build 0)  -->
<svg version="1.1" id="Layer_1" xmlns="http://www.w3.org/2000/svg" xmlns:xlink="http://www.w3.org/1999/xlink" x="0px" y="0px"
	 viewBox="0 0 512 512" style="enable-background:new 0 0 512 512;" xml:space="preserve">
<path style="fill:#E6E6E6;" d="M159.705,366.571h135.036l30.763-259.278H35.815c-14.834,0-26.859,12.025-26.859,26.859v232.419
	h25.386"/>
<path style="fill:#CCCCCC;" d="M77.007,107.293H35.815c-14.834,0-26.859,12.025-26.859,26.859v232.419h25.386h15.807V134.152
	C50.148,119.319,62.173,107.293,77.007,107.293z"/>
<polygon style="fill:#F95428;" points="221.042,188.538 185.662,188.538 185.662,153.157 135.118,153.157 135.118,188.538 
	99.737,188.538 99.737,239.081 135.118,239.081 135.118,274.461 185.662,274.461 185.662,239.081 221.042,239.081 "/>
<path style="fill:#2BA5F7;" d="M447.72,82.748h-29.911c-4.216,0-7.634,3.417-7.634,7.634v26.463h45.178V90.382
	C455.354,86.167,451.937,82.748,447.72,82.748z"/>
<path style="fill:#269BDB;" d="M423.295,82.748h-5.487c-4.216,0-7.634,3.417-7.634,7.634v26.463h13.12V82.748z"/>
<path style="fill:#F95428;" d="M475.522,366.571h27.523V128.118c0-11.501-9.323-20.824-20.824-20.824H294.741v259.278h55.416"/>
<polyline style="fill:#E03F20;" points="311.076,366.571 313.563,366.571 313.563,107.293 294.741,107.293 294.741,366.571 
	299.748,366.571 "/>
<g>
	<path style="fill:#4D4D4D;" d="M401.923,375.526H8.955c-4.946,0-8.955-4.01-8.955-8.955c0-4.946,4.01-8.955,8.955-8.955h392.968
		c4.946,0,8.955,4.01,8.955,8.955C410.879,371.517,406.869,375.526,401.923,375.526z"/>
	<path style="fill:#4D4D4D;" d="M503.045,375.526H462.82c-4.946,0-8.955-4.01-8.955-8.955c0-4.946,4.01-8.955,8.955-8.955h40.224
		c4.946,0,8.955,4.01,8.955,8.955C512,371.517,507.99,375.526,503.045,375.526z"/>
</g>
<g>
	<circle style="fill:#666666;" cx="97.029" cy="366.564" r="62.688"/>
	<circle style="fill:#666666;" cx="412.833" cy="366.564" r="62.688"/>
</g>
<g>
	<circle style="fill:#E6E6E6;" cx="412.833" cy="366.564" r="27.991"/>
	<path style="fill:#E6E6E6;" d="M125.021,366.569c0,13.397-9.433,24.61-22.03,27.344c-1.922,0.418-3.917,0.645-5.97,0.645
		c-15.451,0-27.989-12.538-27.989-27.989c0-15.463,12.538-27.989,27.989-27.989c2.054,0,4.048,0.215,5.97,0.645
		C115.588,341.96,125.021,353.159,125.021,366.569z"/>
</g>
<g>
	<path style="fill:#FFFFFF;" d="M125.021,366.569c0,13.397-9.433,24.61-22.03,27.344c-12.585-2.734-22.018-13.947-22.018-27.344
		c0-13.409,9.433-24.61,22.018-27.344C115.588,341.96,125.021,353.159,125.021,366.569z"/>
	<path style="fill:#FFFFFF;" d="M440.828,366.569c0,13.397-9.433,24.61-22.03,27.344c-12.585-2.734-22.018-13.947-22.018-27.344
		c0-13.409,9.433-24.61,22.018-27.344C431.395,341.96,440.828,353.159,440.828,366.569z"/>
</g>
<rect x="409.98" y="144.684" style="fill:#E6E6E6;" width="93.065" height="82.02"/>
<g>
	<rect x="323.411" y="144.684" style="fill:#F2F2F2;" width="55.524" height="82.02"/>
	<polygon style="fill:#F2F2F2;" points="503.048,144.678 503.048,226.698 435.476,226.698 498.463,144.678 	"/>
</g>
<rect x="464.011" y="256.567" style="fill:#F7B239;" width="22.687" height="44.18"/>
<g>
</g>
<g>
</g>
<g>
</g>
<g>
</g>
<g>
</g>
<g>
</g>
<g>
</g>
<g>
</g>
<g>
</g>
<g>
</g>
<g>
</g>
<g>
</g>
<g>
</g>
<g>
</g>
<g>
</g>
</svg>
