<?xml version="1.0" encoding="iso-8859-1"?>
<!-- Generator: Adobe Illustrator 19.0.0, SVG Export Plug-In . SVG Version: 6.00 Build 0)  -->
<svg version="1.1" id="Layer_1" xmlns="http://www.w3.org/2000/svg" xmlns:xlink="http://www.w3.org/1999/xlink" x="0px" y="0px"
	 viewBox="0 0 512.017 512.017" style="enable-background:new 0 0 512.017 512.017;" xml:space="preserve">
<path style="fill:#F95428;" d="M232.172,0c0,151.546-107.248,125.9-104.917,228.484c1.317,57.919,50.067,91.077,104.782,97.521
	c-13.113-15.155-70.96-90.618,18.786-151.145c2.881,58.337,51.293,67.613,51.293,109.579c0,17.672-3.723,29.541-8.032,37.378
	c45.153-11.804,83.418-43.275,89.634-95.664C400.039,88.596,232.172,0,232.172,0z"/>
<polygon style="fill:#F7B239;" points="418.129,398.962 301.232,442.551 214.77,474.8 115.029,511.995 93.921,455.39 
	128.321,442.564 214.783,410.315 397.021,342.345 "/>
<g>
	<polygon style="fill:#E09B2D;" points="301.232,442.551 214.77,474.8 128.321,442.564 214.783,410.315 	"/>
	
		<rect x="100.629" y="432.268" transform="matrix(-0.937 0.3494 -0.3494 -0.937 663.4424 768.8553)" style="fill:#E09B2D;" width="323.499" height="23.992"/>
</g>
<rect x="94.259" y="396.948" transform="matrix(0.937 0.3494 -0.3494 0.937 165.3798 -62.5264)" style="fill:#F7B239;" width="323.499" height="60.42"/>
<rect x="87.885" y="432.232" transform="matrix(0.937 0.3494 -0.3494 0.937 170.9421 -59.2236)" style="fill:#E09B2D;" width="323.499" height="23.992"/>
<g>
</g>
<g>
</g>
<g>
</g>
<g>
</g>
<g>
</g>
<g>
</g>
<g>
</g>
<g>
</g>
<g>
</g>
<g>
</g>
<g>
</g>
<g>
</g>
<g>
</g>
<g>
</g>
<g>
</g>
</svg>
