<?xml version="1.0" encoding="iso-8859-1"?>
<!-- Generator: Adobe Illustrator 19.0.0, SVG Export Plug-In . SVG Version: 6.00 Build 0)  -->
<svg version="1.1" id="Layer_1" xmlns="http://www.w3.org/2000/svg" xmlns:xlink="http://www.w3.org/1999/xlink" x="0px" y="0px"
	 viewBox="0 0 512 512" style="enable-background:new 0 0 512 512;" xml:space="preserve">
<path style="fill:#999999;" d="M474.863,512l-265.757-36.058l-19.717,29.234c0,0-129.963-26.727-129.28-45.004
	c4.976-131.377-24.221-310.129-22.93-460.168h228.595c-17.52,79.263-36.07,212.911,7.222,310.972
	c1.253,2.841,2.556,5.658,3.921,8.438c1.415,2.879,2.866,5.72,4.392,8.524c0.323,0.608,0.658,1.204,0.993,1.799
	c0.36,0.682,0.745,1.365,1.129,2.035c2.779,4.876,5.906,9.331,9.368,13.401c21.416,25.102,55.502,35.14,95.902,35.4
	c44.347,0.285,81.298,34.42,84.549,78.63c0.012,0.323,0.037,0.645,0.062,0.968C474.292,473.274,474.863,499.803,474.863,512z"/>
<path style="fill:#808080;" d="M74.736,0H37.184c-1.3,150.048,27.903,328.797,22.925,460.165c-0.675,18.278,36.877,18.278,37.553,0
	C102.639,328.797,73.435,150.048,74.736,0z"/>
<g>
	<path style="fill:#F7B239;" d="M247.112,133.763h0.025c-0.608,12.123-0.869,24.407-0.695,36.74H44.686
		c-0.931-12.259-1.836-24.518-2.655-36.74C42.03,133.763,247.112,133.763,247.112,133.763z"/>
	<path style="fill:#F7B239;" d="M257.15,44.09h0.012c-1.985,11.701-3.822,24.01-5.398,36.753h-0.025H38.953
		c-0.583-12.358-1.042-24.63-1.352-36.753h0.012C37.613,44.09,257.15,44.09,257.15,44.09z"/>
</g>
<path style="fill:#808080;" d="M283.43,331.772c2.779,4.876,5.906,9.331,9.368,13.401c-8.363,4.926-19.009,12.247-29.556,22.322
	c-29.742,28.427-44.831,64.497-44.831,107.206H199.8c0-60.142,27.831-99.116,51.171-121.227
	c11.155-10.547,22.285-18.327,31.331-23.737C282.661,330.42,283.046,331.102,283.43,331.772z"/>
<path style="fill:#4D4D4D;" d="M474.863,510.759H278.901l-69.796-36.058l-13.512,36.058H55.915
	c2.196-16.217,3.511-33.552,4.194-51.829h149.505h263.697C474.292,472.033,474.863,498.562,474.863,510.759z"/>
<g>
</g>
<g>
</g>
<g>
</g>
<g>
</g>
<g>
</g>
<g>
</g>
<g>
</g>
<g>
</g>
<g>
</g>
<g>
</g>
<g>
</g>
<g>
</g>
<g>
</g>
<g>
</g>
<g>
</g>
</svg>
