<?xml version="1.0" encoding="iso-8859-1"?>
<!-- Generator: Adobe Illustrator 19.0.0, SVG Export Plug-In . SVG Version: 6.00 Build 0)  -->
<svg version="1.1" id="Layer_1" xmlns="http://www.w3.org/2000/svg" xmlns:xlink="http://www.w3.org/1999/xlink" x="0px" y="0px"
	 viewBox="0 0 512 512" style="enable-background:new 0 0 512 512;" xml:space="preserve">
<path style="fill:#666666;" d="M398.079,160.439h-18.352v-9.176c0-43.471-23.163-84.14-60.517-106.382l-65.717-20.958
	l-60.618,20.903c-37.408,22.233-60.609,62.932-60.609,106.437v9.176h-18.352v-9.176c0-50.297,27.001-97.325,70.466-122.733
	c0.521-0.305,1.069-0.557,1.639-0.752L250.39,5.58c1.869-0.644,3.896-0.667,5.781-0.067l69.601,22.198
	c0.641,0.204,1.259,0.481,1.843,0.82c43.464,25.407,70.466,72.436,70.466,122.733v9.176H398.079z"/>
<polygon style="fill:#F95428;" points="406.837,151.257 105.163,151.257 255.999,512 255.999,512 "/>
<polygon style="fill:#E03F20;" points="187.968,151.257 256.006,511.999 105.163,151.257 "/>
<path style="fill:#F7B239;" d="M189.018,27.58c0,13.006,13.111,21.769,25.215,17.01c12.947-5.088,27.035-7.885,41.767-7.885
	c14.732,0,28.82,2.797,41.767,7.887c12.104,4.758,25.215-4.004,25.215-17.01l0,0c0-7.495-4.542-14.277-11.51-17.036
	C294.288,3.744,275.574,0,255.999,0s-38.287,3.744-55.471,10.545C193.559,13.303,189.018,20.085,189.018,27.58L189.018,27.58z"/>
<g>
</g>
<g>
</g>
<g>
</g>
<g>
</g>
<g>
</g>
<g>
</g>
<g>
</g>
<g>
</g>
<g>
</g>
<g>
</g>
<g>
</g>
<g>
</g>
<g>
</g>
<g>
</g>
<g>
</g>
</svg>
