<?xml version="1.0" encoding="iso-8859-1"?>
<!-- Generator: Adobe Illustrator 19.0.0, SVG Export Plug-In . SVG Version: 6.00 Build 0)  -->
<svg version="1.1" id="Layer_1" xmlns="http://www.w3.org/2000/svg" xmlns:xlink="http://www.w3.org/1999/xlink" x="0px" y="0px"
	 viewBox="0 0 512 512" style="enable-background:new 0 0 512 512;" xml:space="preserve">
<path style="fill:#F95428;" d="M398.455,284.346c0,105.827-74.893,87.918-73.265,159.555c0.92,40.445,34.962,63.601,73.171,68.099
	c-9.157-10.582-49.553-63.28,13.118-105.546c2.012,40.737,35.818,47.215,35.818,76.521c0,12.341-2.6,20.629-5.609,26.102
	c31.531-8.243,58.252-30.219,62.592-66.805C515.678,346.214,398.455,284.346,398.455,284.346z"/>
<polygon style="fill:#CCCCCC;" points="156.204,56.62 312.377,212.794 124.825,362.058 6.94,244.172 "/>
<polygon style="fill:#B3B3B3;" points="36.276,273.509 195.069,95.485 156.204,56.62 6.94,244.172 "/>
<path style="fill:#999999;" d="M320.87,230.447c-2.345,0-4.689-0.894-6.478-2.683L141.234,54.605c-3.578-3.578-3.578-9.378,0-12.954
	c3.578-3.578,9.378-3.578,12.954,0l173.159,173.159c3.578,3.578,3.578,9.378,0,12.954
	C325.559,229.552,323.214,230.447,320.87,230.447z"/>
<g>
	<path style="fill:#2BA5F7;" d="M437.748,199.347c-22.052-17.99-55.109-29.012-104.648-20.675c0,0,42.357,17.15,63.552,54.576
		c7.614,13.445,24.761,17.998,37.784,9.681l0.721-0.46C450.442,232.708,451.802,210.813,437.748,199.347z"/>
	<path style="fill:#2BA5F7;" d="M450.004,83.671c-28.457-0.406-61.212,11.485-94.862,48.785c0,0,43.849-12.863,83.704,3.308
		c14.319,5.809,30.584-1.27,35.626-15.876l0.278-0.809C480.671,101.935,468.139,83.93,450.004,83.671z"/>
</g>
<path style="fill:#808080;" d="M282.681,170.142c-1.515,1.576-3.054,3.151-4.617,4.715c-2.785,2.785-5.606,5.496-8.452,8.135
	c-13.814,12.764-28.374,23.72-43.409,32.649c-1.466,0.867-3.078,1.283-4.666,1.283c-3.127,0-6.168-1.6-7.878-4.483
	c-2.589-4.348-1.16-9.967,3.188-12.544c13.521-8.037,27.103-18.248,39.794-29.876c2.87-2.638,5.704-5.338,8.477-8.11
	c1.563-1.563,3.09-3.127,4.617-4.715c22.999-24.135,40.112-50.848,48.454-75.789c8.049-24.074,6.718-43.837-3.677-54.231
	c-10.394-10.382-30.157-11.726-54.231-3.676c-24.929,8.342-51.642,25.454-75.777,48.466l-12.959-12.959
	C229.427,3.625,297.106-16.137,327.47,14.227C357.822,44.58,338.071,112.259,282.681,170.142z"/>
<g>
</g>
<g>
</g>
<g>
</g>
<g>
</g>
<g>
</g>
<g>
</g>
<g>
</g>
<g>
</g>
<g>
</g>
<g>
</g>
<g>
</g>
<g>
</g>
<g>
</g>
<g>
</g>
<g>
</g>
</svg>
