<?xml version="1.0" encoding="iso-8859-1"?>
<!-- Generator: Adobe Illustrator 19.0.0, SVG Export Plug-In . SVG Version: 6.00 Build 0)  -->
<svg version="1.1" id="Layer_1" xmlns="http://www.w3.org/2000/svg" xmlns:xlink="http://www.w3.org/1999/xlink" x="0px" y="0px"
	 viewBox="0 0 512 512" style="enable-background:new 0 0 512 512;" xml:space="preserve">
<path style="fill:#E6E6E6;" d="M380.255,341.231H58.624l-0.011-0.011c0.909-0.82,1.763-1.695,2.571-2.605
	c3.481-3.941,6.063-8.657,7.489-13.844l6.187-22.445c9.432-34.291,40.612-58.038,76.161-58.038h133.39
	c26.644,0,51.178,11.969,67.582,31.562c6.961,8.298,12.452,17.976,16.023,28.699l8.545,25.6l0.011,0.022L380.255,341.231z"/>
<g>
	<polygon style="fill:#F2F2F2;" points="255.532,337.863 184.121,337.863 253.242,240.919 253.478,240.582 253.489,240.919 	"/>
	<path style="fill:#F2F2F2;" d="M376.796,337.863h-71.411l46.608-65.381c6.961,8.298,12.452,17.976,16.023,28.699l8.545,25.6
		l0.011,0.022L376.796,337.863z"/>
	<polygon style="fill:#F2F2F2;" points="151.021,255.942 151.021,337.863 92.612,337.863 	"/>
</g>
<path style="fill:#F7B239;" d="M394.817,371.592l-6.277-35.211c-0.067-0.393-0.168-0.797-0.303-1.179l-12.239-36.682
	c-13.148-39.489-49.965-66.021-91.588-66.021h-133.39c-7.994,0-15.798,1.1-23.242,3.166c-29.092,8.073-52.761,30.945-61.036,61.059
	l-6.187,22.445c-1.067,3.862-10.364,18.976-10.341,19.267l1.067,31.181l0.09,2.627c0.157,4.525,3.862,8.118,8.387,8.129
	l31.394,0.112h0.011l295.334,1.011h0.034c2.481,0,4.851-1.1,6.445-2.998C394.582,376.577,395.255,374.051,394.817,371.592z
	 M95.419,363.643l-27.486-0.09l-0.764-22.366c0.101-0.112,0.202-0.225,0.314-0.348c0,0,0.011-0.011,0.011-0.022
	c4.345-4.918,7.557-10.858,9.297-17.179l6.187-22.445c5.771-20.963,20.761-37.581,39.849-45.946
	c8.702-3.806,18.268-5.906,28.194-5.906h133.39c34.369,0,64.753,21.906,75.622,54.501l12.037,36.11l4.401,24.668L95.419,363.643z"/>
<path style="fill:#F95428;" d="M219.616,0c0,100.414-71.063,83.422-69.518,151.395c0.872,38.377,33.175,60.348,69.429,64.617
	c-8.688-10.041-47.019-60.044,12.448-100.148c1.909,38.654,33.986,44.8,33.986,72.608c0,11.71-2.467,19.574-5.322,24.767
	c29.919-7.822,55.273-28.674,59.391-63.387C330.844,58.704,219.616,0,219.616,0z"/>
<path style="fill:#F7B239;" d="M495.467,386.121l-9.69,54.322l-4.761,26.667H39.817c-7.186,0-13.002-5.816-13.002-13.002v-77.463
	c0-14.125,8.511-26.858,21.558-32.258c3.818-1.572,7.265-3.806,10.24-6.535l0.011,0.011h84.065v-96.528h16.842v96.528h85.603
	v-94.732h16.842v94.732h118.277l82.493,6.108C483.991,345.543,499.217,365.147,495.467,386.121z"/>
<path style="fill:#E09B2D;" d="M59.377,454.109v-77.463c0-14.125,8.511-26.858,21.558-32.258c3.812-1.57,7.253-3.801,10.227-6.524
	H58.624l-0.011-0.011c-2.975,2.728-6.423,4.963-10.24,6.535c-13.047,5.401-21.558,18.133-21.558,32.258v77.463
	c0,7.18,5.821,13.002,13.002,13.002h32.562C65.197,467.11,59.377,461.289,59.377,454.109z"/>
<path style="fill:#FFFFFF;" d="M466.939,414.613c-0.492,0-0.989-0.044-1.49-0.133c-4.579-0.817-7.627-5.192-6.81-9.771l4.369-24.471
	c0.817-4.579,5.19-7.628,9.771-6.81c4.579,0.817,7.627,5.192,6.81,9.771l-4.369,24.471
	C474.491,411.747,470.942,414.613,466.939,414.613z"/>
<path style="fill:#E09B2D;" d="M485.777,440.443l-4.761,26.667H39.817c-7.186,0-13.002-5.816-13.002-13.002v-13.665H485.777z"/>
<g>
	<path style="fill:#CCCCCC;" d="M492.402,448.588h-44.451c-4.651,0-8.421-3.77-8.421-8.421s3.77-8.421,8.421-8.421h44.451
		c4.651,0,8.421,3.77,8.421,8.421S497.053,448.588,492.402,448.588z"/>
	<path style="fill:#CCCCCC;" d="M64.61,448.588H19.598c-4.651,0-8.421-3.77-8.421-8.421s3.77-8.421,8.421-8.421H64.61
		c4.651,0,8.421,3.77,8.421,8.421S69.261,448.588,64.61,448.588z"/>
</g>
<circle style="fill:#F95428;" cx="432.564" cy="392.165" r="7.86"/>
<path style="fill:#666666;" d="M455.292,462.385c0.074-1.142,0.111-2.296,0.111-3.45c0-29.3-23.753-53.052-53.052-53.052
	c-29.312,0-53.065,23.753-53.065,53.052c0,1.154,0.037,2.309,0.111,3.45C351.173,490.084,374.193,512,402.35,512
	C430.497,512,453.518,490.085,455.292,462.385z"/>
<path style="fill:#CCCCCC;" d="M402.348,480.706c-12.003,0-21.766-9.764-21.766-21.766c0-12.002,9.764-21.766,21.766-21.766
	c12.001,0,21.765,9.764,21.765,21.766C424.113,470.942,414.349,480.706,402.348,480.706z"/>
<path style="fill:#4D4D4D;" d="M402.348,485.05c-14.397,0-26.11-11.713-26.11-26.11c0-14.397,11.713-26.109,26.11-26.109
	c14.397,0,26.108,11.712,26.108,26.109C428.456,473.337,416.744,485.05,402.348,485.05z M402.348,441.518
	c-9.607,0-17.423,7.816-17.423,17.423c0,9.607,7.816,17.423,17.423,17.423c9.606,0,17.422-7.816,17.422-17.423
	C419.77,449.333,411.954,441.518,402.348,441.518z"/>
<path style="fill:#666666;" d="M163.361,462.385c0.074-1.142,0.111-2.296,0.111-3.45c0-29.3-23.753-53.052-53.052-53.052
	c-29.312,0-53.065,23.753-53.065,53.052c0,1.154,0.037,2.309,0.111,3.45C59.241,490.084,82.261,512,110.419,512
	C138.565,512,161.586,490.085,163.361,462.385z"/>
<path style="fill:#CCCCCC;" d="M110.416,480.706c-12.003,0-21.766-9.764-21.766-21.766c0-12.002,9.764-21.766,21.766-21.766
	c12.001,0,21.765,9.764,21.765,21.766C132.181,470.942,122.417,480.706,110.416,480.706z"/>
<path style="fill:#4D4D4D;" d="M110.416,485.05c-14.397,0-26.11-11.713-26.11-26.11c0-14.397,11.713-26.109,26.11-26.109
	s26.108,11.712,26.108,26.109C136.524,473.337,124.812,485.05,110.416,485.05z M110.416,441.518
	c-9.607,0-17.423,7.816-17.423,17.423c0,9.607,7.816,17.423,17.423,17.423c9.606,0,17.422-7.816,17.422-17.423
	C127.838,449.333,120.022,441.518,110.416,441.518z"/>
<path style="fill:#E09B2D;" d="M127.779,235.664l-4.952,19.582c-19.088,8.365-34.077,24.983-39.849,45.946l-6.187,22.445
	c-1.74,6.321-4.952,12.261-9.297,17.179c0,0.011-0.011,0.022-0.011,0.022c-0.112,0.124-0.213,0.236-0.314,0.348l-15.888,28.43
	L33.177,356.55c-0.022-0.292,26.311-28.95,27.378-37.382l6.187-22.445C75.017,266.609,98.686,243.737,127.779,235.664z"/>
<g>
</g>
<g>
</g>
<g>
</g>
<g>
</g>
<g>
</g>
<g>
</g>
<g>
</g>
<g>
</g>
<g>
</g>
<g>
</g>
<g>
</g>
<g>
</g>
<g>
</g>
<g>
</g>
<g>
</g>
</svg>
