<?xml version="1.0" encoding="iso-8859-1"?>
<!-- Generator: Adobe Illustrator 19.0.0, SVG Export Plug-In . SVG Version: 6.00 Build 0)  -->
<svg version="1.1" id="Layer_1" xmlns="http://www.w3.org/2000/svg" xmlns:xlink="http://www.w3.org/1999/xlink" x="0px" y="0px"
	 viewBox="0 0 512.001 512.001" style="enable-background:new 0 0 512.001 512.001;" xml:space="preserve">
<polygon style="fill:#F95428;" points="447.963,456.958 64.036,456.958 193.304,0 318.694,0 "/>
<polygon style="fill:#E03F20;" points="193.304,0 64.036,456.957 169.475,456.957 227.74,0 "/>
<g>
	<polygon style="fill:#F2F2F2;" points="417.947,350.83 94.059,350.83 95.469,345.864 100.843,326.847 113.673,281.533 
		398.333,281.533 	"/>
	<polygon style="fill:#F2F2F2;" points="366.473,168.89 145.521,168.89 165.135,99.581 346.858,99.581 	"/>
</g>
<g>
	<polygon style="fill:#E6E6E6;" points="191.851,281.533 183.009,350.83 94.059,350.83 95.469,345.864 100.843,326.847 
		113.673,281.533 	"/>
	<polygon style="fill:#E6E6E6;" points="215.047,99.581 206.206,168.89 145.521,168.89 165.135,99.581 	"/>
</g>
<rect x="4.757" y="455.687" style="fill:#F2F2F2;" width="502.486" height="56.315"/>
<rect x="4.757" y="455.687" style="fill:#E6E6E6;" width="94.997" height="56.315"/>
<g>
</g>
<g>
</g>
<g>
</g>
<g>
</g>
<g>
</g>
<g>
</g>
<g>
</g>
<g>
</g>
<g>
</g>
<g>
</g>
<g>
</g>
<g>
</g>
<g>
</g>
<g>
</g>
<g>
</g>
</svg>
