<?xml version="1.0" encoding="iso-8859-1"?>
<!-- Generator: Adobe Illustrator 19.0.0, SVG Export Plug-In . SVG Version: 6.00 Build 0)  -->
<svg version="1.1" id="Layer_1" xmlns="http://www.w3.org/2000/svg" xmlns:xlink="http://www.w3.org/1999/xlink" x="0px" y="0px"
	 viewBox="0 0 512 512" style="enable-background:new 0 0 512 512;" xml:space="preserve">
<polygon style="fill:#E6E6E6;" points="259.872,166.187 259.872,244.788 167.518,244.788 196.18,166.187 "/>
<polygon style="fill:#F2F2F2;" points="258.809,166.192 258.811,244.788 198.738,244.788 "/>
<path style="fill:#666666;" d="M174.025,287.646c-2.081,0-4.17-0.738-5.841-2.239L30.476,161.72
	c-3.592-3.228-3.89-8.757-0.662-12.349c3.229-3.594,8.757-3.89,12.35-0.662l137.709,123.687c3.592,3.228,3.89,8.757,0.662,12.349
	C178.808,286.667,176.421,287.646,174.025,287.646z"/>
<polyline style="fill:#F95428;" points="167.98,419.857 299.844,419.857 299.844,310.089 20.771,310.089 20.771,419.857 
	45.561,419.857 "/>
<polyline style="fill:#E03F20;" points="39.639,419.857 46.047,419.857 46.047,310.089 20.771,310.089 20.771,419.857 
	23.949,419.857 "/>
<path style="fill:#2BA5F7;" d="M449.23,142.702h-29.209c-4.117,0-7.454,3.337-7.454,7.454v25.841h44.117v-25.841
	C456.684,146.039,453.346,142.702,449.23,142.702z"/>
<path style="fill:#269BDB;" d="M425.378,142.702h-5.358c-4.117,0-7.454,3.337-7.454,7.454v25.841h12.812V142.702z"/>
<path style="fill:#F95428;" d="M476.378,419.857h26.877V187.005c0-11.231-9.104-20.335-20.335-20.335H318.224
	c-10.151,0-18.38,8.229-18.38,18.38v234.808h54.115"/>
<path style="fill:#E03F20;" d="M315.795,419.857h2.429V166.67l0,0c-10.151,0-18.38,8.229-18.38,18.38v234.808h4.89"/>
<g>
	<path style="fill:#4D4D4D;" d="M404.509,428.602H20.771c-4.83,0-8.745-3.915-8.745-8.745c0-4.83,3.915-8.745,8.745-8.745h383.738
		c4.83,0,8.745,3.915,8.745,8.745C413.254,424.687,409.339,428.602,404.509,428.602z"/>
	<path style="fill:#4D4D4D;" d="M503.255,428.602h-39.279c-4.83,0-8.745-3.915-8.745-8.745c0-4.83,3.915-8.745,8.745-8.745h39.279
		c4.83,0,8.745,3.915,8.745,8.745C512,424.687,508.085,428.602,503.255,428.602z"/>
</g>
<g>
	<circle style="fill:#666666;" cx="106.772" cy="419.855" r="61.216"/>
	<circle style="fill:#666666;" cx="415.17" cy="419.855" r="61.216"/>
</g>
<g>
	<circle style="fill:#E6E6E6;" cx="415.17" cy="419.855" r="27.334"/>
	<path style="fill:#E6E6E6;" d="M134.111,419.856c0,13.083-9.211,24.031-21.513,26.702c-1.877,0.408-3.825,0.63-5.83,0.63
		c-15.088,0-27.331-12.243-27.331-27.331c0-15.1,12.243-27.331,27.331-27.331c2.006,0,3.953,0.21,5.83,0.63
		C124.9,395.825,134.111,406.762,134.111,419.856z"/>
</g>
<g>
	<path style="fill:#FFFFFF;" d="M134.111,419.856c0,13.083-9.211,24.031-21.513,26.702c-12.29-2.67-21.501-13.619-21.501-26.702
		c0-13.094,9.211-24.031,21.501-26.702C124.9,395.825,134.111,406.762,134.111,419.856z"/>
	<path style="fill:#FFFFFF;" d="M442.5,419.856c0,13.083-9.211,24.031-21.513,26.702c-12.29-2.67-21.501-13.619-21.501-26.702
		c0-13.094,9.211-24.031,21.501-26.702C433.288,395.825,442.5,406.762,442.5,419.856z"/>
</g>
<rect x="412.383" y="203.175" style="fill:#E6E6E6;" width="90.879" height="80.093"/>
<g>
	<rect x="327.847" y="203.187" style="fill:#F2F2F2;" width="54.219" height="80.093"/>
	<polygon style="fill:#F2F2F2;" points="503.258,203.176 503.258,283.27 437.274,283.27 498.781,203.176 	"/>
</g>
<rect x="465.145" y="312.43" style="fill:#F7B239;" width="22.154" height="43.142"/>
<path style="fill:#F95428;" d="M191.962,167.17l-29.107,77.618v65.297h101.443V170.597c0-5.392-4.371-9.763-9.763-9.763h-53.432
	C197.032,160.835,193.39,163.359,191.962,167.17z M202.417,172.495h50.22v60.633H179.68L202.417,172.495z"/>
<path style="fill:#666666;" d="M39.979,139.772c-3.537,0-6.865-2.161-8.185-5.666c-1.702-4.519,0.582-9.564,5.102-11.266
	l174.762-65.798c4.521-1.701,9.564,0.583,11.265,5.102c1.702,4.519-0.582,9.564-5.102,11.266L43.058,139.209
	C42.045,139.591,41.003,139.772,39.979,139.772z"/>
<path style="fill:#F95428;" d="M301.832,104h-82.458c-8.141,0-14.74-6.6-14.74-14.74V37.537h111.937V89.26
	C316.572,97.4,309.972,104,301.832,104z"/>
<path style="fill:#E03F20;" d="M231.822,104h-12.447c-8.141,0-14.74-6.6-14.74-14.74V37.537h27.187L231.822,104L231.822,104z"/>
<circle style="fill:#F95428;" cx="25.069" cy="139.849" r="25.069"/>
<circle style="fill:#666666;" cx="25.069" cy="139.849" r="8.857"/>
<path style="fill:#E03F20;" d="M315.406,30.93H205.801c-3.435,0-6.218,2.784-6.218,6.218l0,0c0,3.435,2.784,6.218,6.218,6.218
	h109.605c3.435,0,6.218-2.784,6.218-6.218l0,0C321.624,33.714,318.841,30.93,315.406,30.93z"/>
<g>
</g>
<g>
</g>
<g>
</g>
<g>
</g>
<g>
</g>
<g>
</g>
<g>
</g>
<g>
</g>
<g>
</g>
<g>
</g>
<g>
</g>
<g>
</g>
<g>
</g>
<g>
</g>
<g>
</g>
</svg>
