<?xml version="1.0" encoding="iso-8859-1"?>
<!-- Generator: Adobe Illustrator 19.0.0, SVG Export Plug-In . SVG Version: 6.00 Build 0)  -->
<svg version="1.1" id="Layer_1" xmlns="http://www.w3.org/2000/svg" xmlns:xlink="http://www.w3.org/1999/xlink" x="0px" y="0px"
	 viewBox="0 0 512.005 512.005" style="enable-background:new 0 0 512.005 512.005;" xml:space="preserve">
<rect x="71.467" y="10.177" style="fill:#E6E6E6;" width="369.072" height="150.763"/>
<polygon style="fill:#E03F20;" points="450.715,155.505 430.362,155.505 430.362,20.353 81.644,20.353 81.644,155.505 
	61.29,155.505 61.29,0 450.715,0 "/>
<rect x="0.909" y="132.079" style="fill:#F95428;" width="510.187" height="379.927"/>
<rect x="47.043" y="244.7" style="fill:#E6E6E6;" width="267.306" height="267.306"/>
<rect x="47.043" y="244.7" style="fill:#CCCCCC;" width="267.306" height="25.112"/>
<rect x="361.313" y="338.718" style="fill:#F7B239;" width="102.295" height="173.287"/>
<rect x="370.743" y="196.178" style="fill:#E6E6E6;" width="83.421" height="83.421"/>
<path style="fill:#F7B239;" d="M447.323,203.025v69.731h-69.731v-69.731h28.576H447.323 M463.605,186.742h-57.437h-29.851h-15.008
	v102.297h102.297V186.742L463.605,186.742z"/>
<g>
	<path style="fill:#999999;" d="M314.349,303.719H47.043c-3.748,0-6.784-3.038-6.784-6.784s3.037-6.784,6.784-6.784h267.306
		c3.748,0,6.784,3.038,6.784,6.784S318.096,303.719,314.349,303.719z"/>
	<path style="fill:#999999;" d="M314.349,416.219H47.043c-3.748,0-6.784-3.038-6.784-6.784s3.037-6.784,6.784-6.784h267.306
		c3.748,0,6.784,3.038,6.784,6.784S318.096,416.219,314.349,416.219z"/>
	<rect x="47.043" y="346.398" style="fill:#999999;" width="267.306" height="13.569"/>
	<rect x="47.043" y="458.897" style="fill:#999999;" width="267.306" height="13.569"/>
</g>
<g>
	<path style="fill:#F7B239;" d="M209.487,32.428c-5.622,0-10.177,4.556-10.177,10.177v57.042c0,5.62,4.555,10.177,10.177,10.177
		s10.177-4.556,10.177-10.177V42.605C219.664,36.985,215.109,32.428,209.487,32.428z"/>
	<path style="fill:#F7B239;" d="M144.964,32.428h-24.447c-5.622,0-10.177,4.556-10.177,10.177v57.042
		c0,5.62,4.555,10.177,10.177,10.177c5.622,0,10.177-4.556,10.177-10.177V81.71h9.38c5.622,0,10.177-4.556,10.177-10.177
		c0-5.62-4.555-10.177-10.177-10.177h-9.38v-8.575h14.27c5.622,0,10.177-4.556,10.177-10.177S150.584,32.428,144.964,32.428z"/>
	<path style="fill:#F7B239;" d="M391.49,89.47h-14.27v-7.76h9.38c5.622,0,10.177-4.556,10.177-10.177
		c0-5.62-4.555-10.177-10.177-10.177h-9.38v-8.575h14.27c5.622,0,10.177-4.556,10.177-10.177s-4.555-10.177-10.177-10.177h-24.447
		c-5.622,0-10.177,4.556-10.177,10.177v57.042c0,5.62,4.555,10.177,10.177,10.177h24.447c5.622,0,10.177-4.556,10.177-10.177
		C401.667,94.026,397.112,89.47,391.49,89.47z"/>
	<path style="fill:#F7B239;" d="M307.89,78.705c6.324-4.679,10.449-12.166,10.449-20.618c0-14.148-11.51-25.659-25.66-25.659
		h-14.261c-5.622,0-10.177,4.556-10.177,10.177v57.042c0,5.62,4.555,10.177,10.177,10.177c5.622,0,10.177-4.556,10.177-10.177
		V86.235l11.755,18.805c1.931,3.088,5.246,4.784,8.638,4.784c1.843,0,3.707-0.501,5.385-1.548c4.765-2.98,6.215-9.258,3.235-14.023
		L307.89,78.705z M288.595,52.781h4.084c2.925,0,5.307,2.38,5.307,5.305s-2.381,5.307-5.307,5.307h-4.084V52.781z"/>
</g>
<polygon style="fill:#E03F20;" points="324.525,512 304.172,512 304.172,254.871 57.22,254.871 57.22,512 36.866,512 
	36.866,234.518 324.525,234.518 "/>
<rect x="376.32" y="426.427" style="fill:#999999;" width="27.138" height="9.95"/>
<g>
</g>
<g>
</g>
<g>
</g>
<g>
</g>
<g>
</g>
<g>
</g>
<g>
</g>
<g>
</g>
<g>
</g>
<g>
</g>
<g>
</g>
<g>
</g>
<g>
</g>
<g>
</g>
<g>
</g>
</svg>
