<?xml version="1.0" encoding="iso-8859-1"?>
<!-- Generator: Adobe Illustrator 19.0.0, SVG Export Plug-In . SVG Version: 6.00 Build 0)  -->
<svg version="1.1" id="Layer_1" xmlns="http://www.w3.org/2000/svg" xmlns:xlink="http://www.w3.org/1999/xlink" x="0px" y="0px"
	 viewBox="0 0 512 512" style="enable-background:new 0 0 512 512;" xml:space="preserve">
<path style="fill:#F95428;" d="M309.981,107.291l-15.236,259.278H8.959V134.157c0-14.842,12.024-26.866,26.854-26.866
	C35.813,107.291,309.981,107.291,309.981,107.291z"/>
<path style="fill:#E03F20;" d="M63.396,107.291c-14.83,0-26.854,12.024-26.854,26.866v232.411H8.959V134.157
	c0-14.842,12.024-26.866,26.854-26.866C35.813,107.291,63.396,107.291,63.396,107.291z"/>
<g>
	<path style="fill:#E6E6E6;" d="M162.795,164.486c-31.272,0-56.715,25.442-56.715,56.715s25.443,56.715,56.715,56.715
		s56.714-25.442,56.714-56.715S194.069,164.486,162.795,164.486z M162.795,260.005c-21.398,0-38.804-17.407-38.804-38.805
		s17.407-38.804,38.804-38.804c21.396,0,38.803,17.407,38.803,38.804S184.192,260.005,162.795,260.005z"/>
	<path style="fill:#E6E6E6;" d="M162.795,193.822c-15.098,0-27.38,12.282-27.38,27.379c0,15.096,12.282,27.379,27.38,27.379
		c15.096,0,27.379-12.282,27.379-27.379C190.174,206.104,177.892,193.822,162.795,193.822z M162.795,230.669
		c-5.22,0-9.469-4.247-9.469-9.468s4.248-9.468,9.469-9.468s9.468,4.247,9.468,9.468S168.016,230.669,162.795,230.669z"/>
	<path style="fill:#E6E6E6;" d="M162.795,135.423H76.267v17.911h34.162c-20.301,15.702-33.41,40.274-33.41,67.867
		c0,47.298,38.48,85.778,85.778,85.778c27.591,0,52.166-13.108,67.867-33.41v39.07h17.911v-91.439
		C248.573,173.904,210.094,135.423,162.795,135.423z M162.795,289.068c-37.422,0-67.867-30.445-67.867-67.867
		s30.445-67.867,67.867-67.867s67.867,30.445,67.867,67.867S200.217,289.068,162.795,289.068z"/>
</g>
<path style="fill:#2BA5F7;" d="M447.72,82.748h-29.911c-4.216,0-7.634,3.417-7.634,7.634v26.463h45.178V90.382
	C455.354,86.167,451.937,82.748,447.72,82.748z"/>
<path style="fill:#269BDB;" d="M423.295,82.748h-5.487c-4.216,0-7.634,3.417-7.634,7.634v26.463h13.12V82.748z"/>
<path style="fill:#F95428;" d="M475.522,366.571h27.523V128.118c0-11.501-9.323-20.824-20.824-20.824H294.741v259.278h55.416"/>
<g>
	<path style="fill:#4D4D4D;" d="M401.923,375.526H8.955c-4.946,0-8.955-4.01-8.955-8.955c0-4.946,4.01-8.955,8.955-8.955h392.968
		c4.946,0,8.955,4.01,8.955,8.955C410.879,371.517,406.869,375.526,401.923,375.526z"/>
	<path style="fill:#4D4D4D;" d="M503.045,375.526H462.82c-4.946,0-8.955-4.01-8.955-8.955c0-4.946,4.01-8.955,8.955-8.955h40.224
		c4.946,0,8.955,4.01,8.955,8.955C512,371.517,507.99,375.526,503.045,375.526z"/>
</g>
<g>
	<circle style="fill:#666666;" cx="97.029" cy="366.564" r="62.688"/>
	<circle style="fill:#666666;" cx="412.833" cy="366.564" r="62.688"/>
</g>
<g>
	<circle style="fill:#E6E6E6;" cx="412.833" cy="366.564" r="27.991"/>
	<path style="fill:#E6E6E6;" d="M125.021,366.569c0,13.397-9.433,24.61-22.03,27.344c-1.922,0.418-3.917,0.645-5.97,0.645
		c-15.451,0-27.989-12.538-27.989-27.989c0-15.463,12.538-27.989,27.989-27.989c2.054,0,4.048,0.215,5.97,0.645
		C115.588,341.96,125.021,353.159,125.021,366.569z"/>
</g>
<g>
	<path style="fill:#FFFFFF;" d="M125.021,366.569c0,13.397-9.433,24.61-22.03,27.344c-12.585-2.734-22.018-13.947-22.018-27.344
		c0-13.409,9.433-24.61,22.018-27.344C115.588,341.96,125.021,353.159,125.021,366.569z"/>
	<path style="fill:#FFFFFF;" d="M440.828,366.569c0,13.397-9.433,24.61-22.03,27.344c-12.585-2.734-22.018-13.947-22.018-27.344
		c0-13.409,9.433-24.61,22.018-27.344C431.395,341.96,440.828,353.159,440.828,366.569z"/>
</g>
<rect x="409.98" y="144.684" style="fill:#E6E6E6;" width="93.065" height="82.02"/>
<g>
	<rect x="323.411" y="144.684" style="fill:#F2F2F2;" width="55.524" height="82.02"/>
	<polygon style="fill:#F2F2F2;" points="503.048,144.678 503.048,226.698 435.476,226.698 498.463,144.678 	"/>
</g>
<rect x="464.011" y="256.567" style="fill:#F7B239;" width="22.687" height="44.18"/>
<g>
</g>
<g>
</g>
<g>
</g>
<g>
</g>
<g>
</g>
<g>
</g>
<g>
</g>
<g>
</g>
<g>
</g>
<g>
</g>
<g>
</g>
<g>
</g>
<g>
</g>
<g>
</g>
<g>
</g>
</svg>
