<?xml version="1.0" encoding="iso-8859-1"?>
<!-- Generator: Adobe Illustrator 19.0.0, SVG Export Plug-In . SVG Version: 6.00 Build 0)  -->
<svg version="1.1" id="Layer_1" xmlns="http://www.w3.org/2000/svg" xmlns:xlink="http://www.w3.org/1999/xlink" x="0px" y="0px"
	 viewBox="0 0 512 512" style="enable-background:new 0 0 512 512;" xml:space="preserve">
<g>
	<path style="fill:#F7B239;" d="M125.964,484.481c-1.356,0-2.733-0.316-4.022-0.978c-24.893-12.828-44.829-33.971-56.137-59.534
		c-11.138-25.178-13.544-53.655-6.773-80.185c1.201-4.707,5.992-7.552,10.7-6.35c4.709,1.201,7.551,5.992,6.35,10.7
		c-5.799,22.726-3.734,47.13,5.816,68.718c9.829,22.218,26.463,39.858,48.106,51.011c4.319,2.225,6.016,7.531,3.79,11.851
		C132.23,482.741,129.152,484.481,125.964,484.481z"/>
	<path style="fill:#F7B239;" d="M386.025,484.481c-3.189,0-6.266-1.738-7.828-4.77c-2.225-4.319-0.529-9.625,3.79-11.851
		c21.643-11.153,38.277-28.792,48.104-51.009c9.548-21.586,11.609-45.986,5.806-68.705c-1.202-4.707,1.639-9.499,6.346-10.701
		c4.707-1.202,9.499,1.639,10.701,6.346c6.777,26.524,4.374,54.999-6.762,80.178c-11.307,25.562-31.243,46.704-56.136,59.532
		C388.759,484.165,387.381,484.481,386.025,484.481z"/>
</g>
<g>
	<path style="fill:#F95428;" d="M284.152,268.568h131.073v-72.246c0-74.463-57.865-135.402-131.073-140.317h-56.305
		c-73.22,4.903-131.085,65.853-131.085,140.317v72.246h131.085H284.152z"/>
	<path style="fill:#F95428;" d="M415.226,268.575H96.762L0,324.141c44.352,18.639,90.24,32.235,136.821,40.774
		c125.361,22.991,255.801,9.396,375.179-40.774L415.226,268.575z"/>
</g>
<g>
	<path style="fill:#E03F20;" d="M239.174,56.006h-11.327c-73.22,4.903-131.085,65.853-131.085,140.317v72.246h64.075v-72.246
		C160.838,121.858,195.417,60.908,239.174,56.006z"/>
	<path style="fill:#E03F20;" d="M160.833,268.575l-24.012,96.34C90.24,356.375,44.352,342.78,0,324.141l96.762-55.566H160.833
		L160.833,268.575z"/>
</g>
<g>
	<polygon style="fill:#F95428;" points="336.927,173.419 306.018,268.575 205.971,268.575 175.062,173.419 227.848,135.073 
		256,114.616 284.152,135.073 	"/>
	<path style="fill:#F95428;" d="M284.152,55.672v79.402h-56.305V55.672c0-15.543,12.61-28.152,28.152-28.152
		c7.765,0,14.803,3.155,19.906,8.246C280.997,40.868,284.152,47.906,284.152,55.672z"/>
</g>
<path style="fill:#E03F20;" d="M227.848,55.672v79.402h19.941V55.672c0-15.543,3.677-28.152,8.211-28.152
	C240.457,27.519,227.848,40.129,227.848,55.672z"/>
<polygon style="fill:#E6E6E6;" points="227.848,135.073 256,114.616 284.152,135.073 336.927,173.419 306.018,268.575 
	205.971,268.575 175.062,173.419 "/>
<path style="fill:#F95428;" d="M249.341,151.512c0,42.269-29.913,35.116-29.263,63.729c0.367,16.155,13.965,25.403,29.226,27.2
	c-3.657-4.228-19.792-25.275,5.24-42.157c0.804,16.271,14.306,18.859,14.306,30.564c0,4.929-1.038,8.239-2.24,10.426
	c12.594-3.293,23.267-12.07,25.001-26.683C296.162,176.223,249.341,151.512,249.341,151.512z"/>
<g>
</g>
<g>
</g>
<g>
</g>
<g>
</g>
<g>
</g>
<g>
</g>
<g>
</g>
<g>
</g>
<g>
</g>
<g>
</g>
<g>
</g>
<g>
</g>
<g>
</g>
<g>
</g>
<g>
</g>
</svg>
