<?xml version="1.0" encoding="iso-8859-1"?>
<!-- Generator: Adobe Illustrator 19.0.0, SVG Export Plug-In . SVG Version: 6.00 Build 0)  -->
<svg version="1.1" id="Layer_1" xmlns="http://www.w3.org/2000/svg" xmlns:xlink="http://www.w3.org/1999/xlink" x="0px" y="0px"
	 viewBox="0 0 512 512" style="enable-background:new 0 0 512 512;" xml:space="preserve">
<path style="fill:#E03F20;" d="M10.815,220.245h39.091v-92.134H10.815C4.843,128.111,0,132.953,0,138.926v70.504
	C0,215.404,4.843,220.245,10.815,220.245z"/>
<path style="fill:#F95428;" d="M462.093,220.245h39.091c5.973,0,10.815-4.842,10.815-10.815v-70.504
	c0-5.973-4.842-10.815-10.815-10.815h-39.091V220.245z"/>
<path style="fill:#CCCCCC;" d="M238.313,54.103v32.773h-63.339V54.103c0-6.283,5.094-11.377,11.377-11.377h40.586
	C233.219,42.727,238.313,47.819,238.313,54.103z"/>
<path style="fill:#2BA5F7;" d="M435.744,54.103v32.773h-63.339V54.103c0-6.283,5.094-11.377,11.377-11.377h40.586
	C430.651,42.727,435.744,47.819,435.744,54.103z"/>
<path style="fill:#CCCCCC;" d="M337.035,54.103v32.773h-63.339V54.103c0-6.283,5.094-11.377,11.377-11.377h40.586
	C331.941,42.727,337.035,47.819,337.035,54.103z"/>
<path style="fill:#2BA5F7;" d="M139.603,54.103v32.773H76.252V54.103c0-6.283,5.094-11.377,11.377-11.377h40.599
	C134.509,42.727,139.603,47.819,139.603,54.103z"/>
<polyline style="fill:#F95428;" points="463.308,358.444 463.308,82.041 48.697,82.041 48.697,358.444 "/>
<g>
	<path style="fill:#CCCCCC;" d="M80.972,209.817v-88.345c0-4.107,3.329-7.435,7.435-7.435h143.238c4.107,0,7.435,3.329,7.435,7.435
		v88.345c0,4.107-3.329,7.435-7.435,7.435H88.408C84.302,217.254,80.972,213.925,80.972,209.817z"/>
	<path style="fill:#CCCCCC;" d="M431.023,121.471v88.342c0,4.107-3.329,7.435-7.435,7.435H280.358c-4.107,0-7.435-3.329-7.435-7.435
		v-88.342c0-4.107,3.329-7.435,7.435-7.435h143.228C427.693,114.036,431.023,117.364,431.023,121.471z"/>
</g>
<g>
	<path style="fill:#F2F2F2;" d="M431.023,121.471v88.342c0,4.107-3.329,7.435-7.435,7.435h-88.883l40.201-103.214h48.682
		C427.693,114.036,431.023,117.364,431.023,121.471z"/>
	<path style="fill:#F2F2F2;" d="M239.081,121.471v88.342c0,4.107-3.329,7.435-7.435,7.435h-88.883l40.201-103.214h48.682
		C235.753,114.036,239.081,117.364,239.081,121.471z"/>
	<path style="fill:#F2F2F2;" d="M339.451,250.957H172.549c-6.386,0-11.563,5.177-11.563,11.563v95.927h190.027V262.52
		C351.013,256.133,345.837,250.957,339.451,250.957z"/>
</g>
<g>
	<rect x="371.291" y="289.575" style="fill:#F7B239;" width="70.839" height="47.543"/>
	<rect x="69.866" y="289.575" style="fill:#F7B239;" width="70.839" height="47.543"/>
</g>
<g>
	<rect x="180.718" y="278.852" style="fill:#666666;" width="150.552" height="18.114"/>
	<rect x="180.718" y="312.435" style="fill:#666666;" width="150.552" height="18.114"/>
</g>
<g>
	<rect x="64.221" y="417.449" style="fill:#808080;" width="93.722" height="51.826"/>
	<rect x="354.058" y="417.449" style="fill:#808080;" width="93.722" height="51.826"/>
</g>
<g>
	<rect x="64.221" y="417.449" style="fill:#666666;" width="93.722" height="22.843"/>
	<rect x="354.058" y="417.449" style="fill:#666666;" width="93.722" height="22.843"/>
</g>
<path style="fill:#CCCCCC;" d="M474.469,357.239H37.53c-4.963,0-8.986,4.024-8.986,8.986v43.45c0,4.963,4.024,8.986,8.986,8.986
	h436.939c4.963,0,8.986-4.024,8.986-8.986v-43.45C483.456,361.262,479.432,357.239,474.469,357.239z"/>
<g>
	<circle style="fill:#F7B239;" cx="65.501" cy="387.947" r="10.567"/>
	<circle style="fill:#F7B239;" cx="446.501" cy="387.947" r="10.567"/>
</g>
<g>
</g>
<g>
</g>
<g>
</g>
<g>
</g>
<g>
</g>
<g>
</g>
<g>
</g>
<g>
</g>
<g>
</g>
<g>
</g>
<g>
</g>
<g>
</g>
<g>
</g>
<g>
</g>
<g>
</g>
</svg>
