<?xml version="1.0" encoding="iso-8859-1"?>
<!-- Generator: Adobe Illustrator 19.0.0, SVG Export Plug-In . SVG Version: 6.00 Build 0)  -->
<svg version="1.1" id="Layer_1" xmlns="http://www.w3.org/2000/svg" xmlns:xlink="http://www.w3.org/1999/xlink" x="0px" y="0px"
	 viewBox="0 0 512 512" style="enable-background:new 0 0 512 512;" xml:space="preserve">
<path style="fill:#2BA5F7;" d="M447.72,143.107h-29.911c-4.216,0-7.634,3.417-7.634,7.634v26.463h45.178v-26.463
	C455.354,146.526,451.937,143.107,447.72,143.107z"/>
<path style="fill:#269BDB;" d="M423.295,143.107h-5.487c-4.216,0-7.634,3.417-7.634,7.634v26.463h13.12V143.107z"/>
<polyline style="fill:#F95428;" points="159.705,426.93 294.741,426.93 294.741,297.291 8.955,297.291 8.955,426.93 34.341,426.93 
	"/>
<polyline style="fill:#E03F20;" points="28.463,426.93 42.098,426.93 42.098,297.291 8.955,297.291 8.955,426.93 12.24,426.93 "/>
<path style="fill:#F95428;" d="M475.522,426.93h27.523V188.477c0-11.501-9.323-20.824-20.824-20.824H313.563
	c-10.395,0-18.822,8.426-18.822,18.822V426.93h55.416"/>
<path style="fill:#E03F20;" d="M311.076,426.93h2.487V167.652l0,0c-10.395,0-18.822,8.426-18.822,18.822V426.93h5.008"/>
<g>
	<path style="fill:#4D4D4D;" d="M401.923,435.885H8.955c-4.946,0-8.955-4.01-8.955-8.955c0-4.946,4.01-8.955,8.955-8.955h392.968
		c4.946,0,8.955,4.01,8.955,8.955C410.879,431.876,406.869,435.885,401.923,435.885z"/>
	<path style="fill:#4D4D4D;" d="M503.045,435.885H462.82c-4.946,0-8.955-4.01-8.955-8.955c0-4.946,4.01-8.955,8.955-8.955h40.224
		c4.946,0,8.955,4.01,8.955,8.955C512,431.876,507.99,435.885,503.045,435.885z"/>
</g>
<g>
	<circle style="fill:#666666;" cx="97.029" cy="426.923" r="62.688"/>
	<circle style="fill:#666666;" cx="412.833" cy="426.923" r="62.688"/>
</g>
<g>
	<circle style="fill:#E6E6E6;" cx="412.833" cy="426.923" r="27.991"/>
	<path style="fill:#E6E6E6;" d="M125.021,426.928c0,13.397-9.433,24.609-22.03,27.344c-1.922,0.418-3.917,0.645-5.97,0.645
		c-15.451,0-27.989-12.538-27.989-27.989c0-15.463,12.538-27.989,27.989-27.989c2.054,0,4.048,0.215,5.97,0.645
		C115.588,402.318,125.021,413.518,125.021,426.928z"/>
</g>
<g>
	<path style="fill:#FFFFFF;" d="M125.021,426.928c0,13.397-9.433,24.609-22.03,27.344c-12.585-2.734-22.018-13.947-22.018-27.344
		c0-13.409,9.433-24.61,22.018-27.344C115.588,402.318,125.021,413.518,125.021,426.928z"/>
	<path style="fill:#FFFFFF;" d="M440.828,426.928c0,13.397-9.433,24.609-22.03,27.344c-12.585-2.734-22.018-13.947-22.018-27.344
		c0-13.409,9.433-24.61,22.018-27.344C431.395,402.318,440.828,413.518,440.828,426.928z"/>
</g>
<rect x="409.98" y="205.031" style="fill:#E6E6E6;" width="93.065" height="82.02"/>
<g>
	<rect x="323.411" y="205.043" style="fill:#F2F2F2;" width="55.524" height="82.02"/>
	<polygon style="fill:#F2F2F2;" points="503.048,205.036 503.048,287.056 435.476,287.056 498.463,205.036 	"/>
</g>
<g>
	<path style="fill:#F7B239;" d="M376.668,99.243c-2.789-4.082-8.362-5.132-12.447-2.34l-17.573,12.01l-39.75-58.164l17.574-12.01
		c4.082-2.791,5.131-8.363,2.34-12.447c-2.789-4.082-8.362-5.132-12.447-2.34L50.117,204.544c-4.082,2.791-5.131,8.363-2.34,12.447
		c1.734,2.537,4.543,3.903,7.402,3.903c1.741,0,3.5-0.506,5.045-1.563l17.573-12.01l39.75,58.164l-17.574,12.01
		c-4.082,2.791-5.131,8.363-2.34,12.447c1.734,2.537,4.543,3.903,7.402,3.903c1.741,0,3.5-0.506,5.045-1.563l264.249-180.593
		C378.41,108.9,379.458,103.327,376.668,99.243z M331.861,119.018l-38.791,26.51l-39.75-58.164l38.791-26.51L331.861,119.018z
		 M239.491,182.146l-39.75-58.164l38.791-26.51l39.75,58.164L239.491,182.146z M185.912,218.763l-39.75-58.164l38.791-26.51
		l39.75,58.164L185.912,218.763z M92.584,197.215l38.791-26.51l39.75,58.164l-38.791,26.51L92.584,197.215z"/>
	<rect x="464.011" y="316.914" style="fill:#F7B239;" width="22.687" height="44.18"/>
</g>
<g>
</g>
<g>
</g>
<g>
</g>
<g>
</g>
<g>
</g>
<g>
</g>
<g>
</g>
<g>
</g>
<g>
</g>
<g>
</g>
<g>
</g>
<g>
</g>
<g>
</g>
<g>
</g>
<g>
</g>
</svg>
