<?xml version="1.0" encoding="iso-8859-1"?>
<!-- Generator: Adobe Illustrator 19.0.0, SVG Export Plug-In . SVG Version: 6.00 Build 0)  -->
<svg version="1.1" id="Layer_1" xmlns="http://www.w3.org/2000/svg" xmlns:xlink="http://www.w3.org/1999/xlink" x="0px" y="0px"
	 viewBox="0 0 512 512" style="enable-background:new 0 0 512 512;" xml:space="preserve">
<rect x="79.199" style="fill:#F95428;" width="353.603" height="512"/>
<polyline style="fill:#E03F20;" points="285.474,256.315 391.728,256.315 391.728,462.126 120.26,462.126 120.26,256.315 
	226.513,256.315 "/>
<path style="fill:#666666;" d="M289.049,386.367h28.449c5.43,0,9.833-4.403,9.833-9.833v-34.626c0-5.43-4.403-9.833-9.833-9.833
	h-28.449h-66.112h-28.449c-5.43,0-9.833,4.403-9.833,9.833v34.626c0,5.432,4.403,9.833,9.833,9.833h28.449"/>
<path style="fill:#999999;" d="M289.055,206.406v203.047c0,8.864-7.196,16.06-16.06,16.06h-34.008c-8.864,0-16.06-7.196-16.06-16.06
	V206.406H289.055z"/>
<g>
	<path style="fill:#FFFFFF;" d="M176.448,24.328h-37.879c-5.043,0-9.132,4.089-9.132,9.132v88.384c0,5.043,4.089,9.132,9.132,9.132
		s9.132-4.089,9.132-9.132V87.415h21.172c5.043,0,9.132-4.089,9.132-9.132s-4.089-9.132-9.132-9.132h-21.172V42.592h28.747
		c5.043,0,9.132-4.089,9.132-9.132S181.492,24.328,176.448,24.328z"/>
	<path style="fill:#FFFFFF;" d="M211.801,24.328c-5.043,0-9.132,4.089-9.132,9.132v88.384c0,5.043,4.089,9.132,9.132,9.132
		s9.132-4.089,9.132-9.132V33.46C220.933,28.416,216.844,24.328,211.801,24.328z"/>
	<path style="fill:#FFFFFF;" d="M373.42,112.713h-28.748V87.415h21.172c5.045,0,9.132-4.089,9.132-9.132s-4.087-9.132-9.132-9.132
		h-21.173V42.592h28.748c5.044,0,9.132-4.089,9.132-9.132s-4.087-9.132-9.132-9.132H335.54c-5.045,0-9.132,4.089-9.132,9.132v88.384
		c0,5.043,4.087,9.132,9.132,9.132h37.879c5.044,0,9.132-4.089,9.132-9.132S378.464,112.713,373.42,112.713z"/>
	<path style="fill:#FFFFFF;" d="M290.607,87.268c11.064-5.37,18.711-16.716,18.711-29.818c0-18.264-14.858-33.122-33.122-33.122
		h-22.096c-5.043,0-9.132,4.089-9.132,9.132v88.384c0,5.043,4.089,9.132,9.132,9.132c5.043,0,9.132-4.089,9.132-9.132V90.572h7.902
		l22.572,36.113c1.733,2.771,4.708,4.293,7.752,4.293c1.654,0,3.326-0.448,4.833-1.389c4.276-2.673,5.577-8.308,2.904-12.584
		L290.607,87.268z M263.23,42.592h12.964c8.193,0,14.858,6.665,14.858,14.858s-6.666,14.858-14.858,14.858H263.23V42.592z"/>
</g>
<rect x="222.924" y="206.407" style="fill:#808080;" width="66.128" height="39.876"/>
<path style="fill:#E6E6E6;" d="M377.1,166.03v48.119c0,4.969-4.029,8.998-8.998,8.998h-79.046h-66.128h-79.046
	c-4.969,0-8.998-4.029-8.998-8.998V166.03c0-4.969,4.029-8.998,8.998-8.998h224.221C373.072,157.032,377.1,161.06,377.1,166.03z"/>
<g>
</g>
<g>
</g>
<g>
</g>
<g>
</g>
<g>
</g>
<g>
</g>
<g>
</g>
<g>
</g>
<g>
</g>
<g>
</g>
<g>
</g>
<g>
</g>
<g>
</g>
<g>
</g>
<g>
</g>
</svg>
