<?xml version="1.0" encoding="iso-8859-1"?>
<!-- Generator: Adobe Illustrator 19.0.0, SVG Export Plug-In . SVG Version: 6.00 Build 0)  -->
<svg version="1.1" id="Layer_1" xmlns="http://www.w3.org/2000/svg" xmlns:xlink="http://www.w3.org/1999/xlink" x="0px" y="0px"
	 viewBox="0 0 512 512" style="enable-background:new 0 0 512 512;" xml:space="preserve">
<rect x="190.155" y="38.927" style="fill:#808080;" width="129.308" height="240.142"/>
<g>
	<polygon style="fill:#B3B3B3;" points="75.411,69.458 0,263.938 75.411,397.603 124.301,235.968 	"/>
	<polygon style="fill:#B3B3B3;" points="436.589,69.458 512,263.938 436.589,397.603 399.679,231.179 	"/>
</g>
<polygon style="fill:#CCCCCC;" points="350.263,69.458 350.263,19.845 285.767,19.845 252.031,188.528 218.295,19.845 
	161.737,19.845 161.737,69.458 75.411,69.458 75.411,492.155 436.589,492.155 436.589,69.458 "/>
<rect x="161.743" y="19.845" style="fill:#B3B3B3;" width="14.048" height="49.616"/>
<g>
	<polygon style="fill:#E09B2D;" points="493.859,217.158 493.859,217.17 436.592,316.367 436.592,248.24 478.066,176.414 	"/>
	<polygon style="fill:#E09B2D;" points="18.137,217.17 75.415,316.39 75.415,248.24 33.941,176.414 	"/>
</g>
<g>
	<rect x="75.411" y="419.221" style="fill:#F7B239;" width="361.177" height="34.068"/>
	<rect x="75.411" y="335.914" style="fill:#F7B239;" width="361.177" height="34.068"/>
</g>
<circle style="fill:#F95428;" cx="351.251" cy="212.341" r="39.69"/>
<g>
</g>
<g>
</g>
<g>
</g>
<g>
</g>
<g>
</g>
<g>
</g>
<g>
</g>
<g>
</g>
<g>
</g>
<g>
</g>
<g>
</g>
<g>
</g>
<g>
</g>
<g>
</g>
<g>
</g>
</svg>
