<?xml version="1.0" encoding="iso-8859-1"?>
<!-- Generator: Adobe Illustrator 19.0.0, SVG Export Plug-In . SVG Version: 6.00 Build 0)  -->
<svg version="1.1" id="Layer_1" xmlns="http://www.w3.org/2000/svg" xmlns:xlink="http://www.w3.org/1999/xlink" x="0px" y="0px"
	 viewBox="0 0 511.999 511.999" style="enable-background:new 0 0 511.999 511.999;" xml:space="preserve">
<path style="fill:#E03F20;" d="M362.181,36.071v34.388H262.54l21.582-11.565c12.606,0,22.824-10.217,22.824-22.824
	C306.946,36.071,362.181,36.071,362.181,36.071z"/>
<g>
	<path style="fill:#F95428;" d="M284.12,129.789v-59.33l-85.877,15.229v44.101l-43.308,18.757
		c-12.343,5.346-20.332,17.511-20.332,30.962v311.077c0,11.826,9.588,21.413,21.413,21.413h170.329
		c11.826,0,21.413-9.588,21.413-21.413V179.51c0-13.45-7.989-25.617-20.332-30.962L284.12,129.789z"/>
	<path style="fill:#F95428;" d="M456.407,13.325v79.892c0,8.329-7.559,14.615-15.749,13.096l-80.311-14.893
		c-6.312-1.17-10.891-6.677-10.891-13.096v-7.864V36.071v-7.863c0-6.421,4.579-11.926,10.892-13.096l80.311-14.885
		C448.849-1.291,456.407,4.995,456.407,13.325z"/>
</g>
<g>
	<path style="fill:#E03F20;" d="M349.456,64.089l106.951,5.942v23.186c0,8.329-7.559,14.615-15.749,13.096l-80.311-14.893
		c-6.312-1.17-10.891-6.677-10.891-13.096L349.456,64.089L349.456,64.089z"/>
	<path style="fill:#E03F20;" d="M221.605,78.769v-8.367l-23.361,0.817v58.571l-43.308,18.757
		c-12.343,5.346-20.332,17.512-20.332,30.962v311.077c0,11.826,9.588,21.413,21.413,21.413h36.572V179.509
		c0-13.45,3.642-25.617,9.27-30.962l0,0c12.677-12.043,29.494-18.757,46.98-18.757h6.35l0,0
		C234.809,121.016,221.605,100.957,221.605,78.769z"/>
</g>
<path style="fill:#E6E6E6;" d="M284.122,70.459v15.228h-85.879L73.05,125.196l-17.458-17.458l142.65-71.668h63.056
	c0,12.606,10.217,22.824,22.824,22.824V70.459z"/>
<circle style="fill:#999999;" cx="284.124" cy="36.071" r="32.942"/>
<path style="fill:#CCCCCC;" d="M64.443,116.588c2.677-2.677,93.83-45.701,128.521-62.024c6.999-3.293,9.481-11.999,5.279-18.493l0,0
	l-142.65,71.668L64.443,116.588z"/>
<g>
</g>
<g>
</g>
<g>
</g>
<g>
</g>
<g>
</g>
<g>
</g>
<g>
</g>
<g>
</g>
<g>
</g>
<g>
</g>
<g>
</g>
<g>
</g>
<g>
</g>
<g>
</g>
<g>
</g>
</svg>
