<?xml version="1.0" encoding="iso-8859-1"?>
<!-- Generator: Adobe Illustrator 19.0.0, SVG Export Plug-In . SVG Version: 6.00 Build 0)  -->
<svg version="1.1" id="Layer_1" xmlns="http://www.w3.org/2000/svg" xmlns:xlink="http://www.w3.org/1999/xlink" x="0px" y="0px"
	 viewBox="0 0 512 512" style="enable-background:new 0 0 512 512;" xml:space="preserve">
<path style="fill:#B3B3B3;" d="M374.39,149.875h-20.51V71.953c0-10.73-8.729-19.459-19.459-19.459H177.576
	c-10.73,0-19.459,8.729-19.459,19.459v77.922h-20.51V71.953c0-22.039,17.93-39.969,39.969-39.969H334.42
	c22.039,0,39.969,17.93,39.969,39.969V149.875z"/>
<path style="fill:#E6E6E6;" d="M512,150.659v290.196c0,21.618-17.543,39.161-39.161,39.161H39.165
	c-21.632,0-39.161-17.543-39.161-39.161V150.659c0-21.632,17.53-39.161,39.161-39.161h433.673
	C494.457,111.498,512,129.027,512,150.659z"/>
<path style="fill:#CCCCCC;" d="M43.069,440.851V150.662c0-21.629,17.534-39.163,39.163-39.163H39.163
	C17.534,111.498,0,129.031,0,150.662v290.19c0,21.629,17.534,39.163,39.163,39.163h43.071
	C60.603,480.013,43.069,462.48,43.069,440.851z"/>
<circle style="fill:#F95428;" cx="255.998" cy="301.23" r="114.353"/>
<polygon style="fill:#FFFFFF;" points="321.631,273.878 283.345,273.878 283.345,235.591 228.651,235.591 228.651,273.878 
	190.364,273.878 190.364,328.572 228.651,328.572 228.651,366.858 283.345,366.858 283.345,328.572 321.631,328.572 "/>
<g>
	<path style="fill:#B3B3B3;" d="M70.082,480.002v0.014h-20.51v-0.014c0-27.32-22.233-49.567-49.567-49.567v-20.51
		C38.646,409.925,70.082,441.361,70.082,480.002z"/>
	<path style="fill:#B3B3B3;" d="M441.923,480.002v0.014h20.51v-0.014c0-27.32,22.233-49.567,49.567-49.567v-20.51
		C473.358,409.925,441.923,441.361,441.923,480.002z"/>
</g>
<g>
</g>
<g>
</g>
<g>
</g>
<g>
</g>
<g>
</g>
<g>
</g>
<g>
</g>
<g>
</g>
<g>
</g>
<g>
</g>
<g>
</g>
<g>
</g>
<g>
</g>
<g>
</g>
<g>
</g>
</svg>
