<?xml version="1.0" encoding="iso-8859-1"?>
<!-- Generator: Adobe Illustrator 19.0.0, SVG Export Plug-In . SVG Version: 6.00 Build 0)  -->
<svg version="1.1" id="Layer_1" xmlns="http://www.w3.org/2000/svg" xmlns:xlink="http://www.w3.org/1999/xlink" x="0px" y="0px"
	 viewBox="0 0 512 512" style="enable-background:new 0 0 512 512;" xml:space="preserve">
<path style="fill:#F95428;" d="M389.448,405.083H122.552V258.592c0-73.701,59.747-133.448,133.448-133.448l0,0
	c73.701,0,133.448,59.747,133.448,133.448v146.491H389.448z"/>
<g>
	<path style="fill:#E03F20;" d="M255.999,125.145L255.999,125.145c-73.701,0-133.448,59.747-133.448,133.448v146.491h52.226V258.592
		C174.779,184.89,211.143,125.145,255.999,125.145z"/>
	<path style="fill:#E03F20;" d="M312.011,405.083H199.989v-61.486c0-30.934,25.077-56.012,56.012-56.012l0,0
		c30.934,0,56.012,25.077,56.012,56.012v61.486H312.011z"/>
</g>
<g>
	<path style="fill:#F95428;" d="M256.001,100.005c-5.34,0-9.67-4.329-9.67-9.67V18.784c0-5.34,4.329-9.67,9.67-9.67
		c5.34,0,9.67,4.329,9.67,9.67v71.552C265.67,95.675,261.341,100.005,256.001,100.005z"/>
	<path style="fill:#F95428;" d="M379.588,151.196c-2.474,0-4.95-0.944-6.837-2.833c-3.776-3.776-3.776-9.899,0-13.674l50.594-50.594
		c3.776-3.776,9.899-3.776,13.674,0c3.776,3.776,3.776,9.898,0,13.674l-50.594,50.594
		C384.536,150.252,382.062,151.196,379.588,151.196z"/>
	<path style="fill:#F95428;" d="M502.33,274.783h-71.552c-5.34,0-9.67-4.329-9.67-9.67c0-5.34,4.329-9.67,9.67-9.67h71.552
		c5.34,0,9.67,4.329,9.67,9.67C512,270.454,507.671,274.783,502.33,274.783z"/>
	<path style="fill:#F95428;" d="M132.414,151.196c-2.474,0-4.95-0.944-6.837-2.833L74.981,97.769c-3.776-3.776-3.776-9.898,0-13.674
		s9.899-3.776,13.674,0l50.595,50.594c3.776,3.776,3.776,9.899,0,13.674C137.363,150.252,134.888,151.196,132.414,151.196z"/>
	<path style="fill:#F95428;" d="M81.221,274.783H9.67c-5.34,0-9.67-4.329-9.67-9.67c0-5.34,4.329-9.67,9.67-9.67h71.552
		c5.34,0,9.67,4.329,9.67,9.67C90.891,270.454,86.561,274.783,81.221,274.783z"/>
</g>
<path style="fill:#E6E6E6;" d="M414.279,403.794H97.72c-5.343,0-9.674,4.331-9.674,9.674v79.745c0,5.343,4.331,9.673,9.674,9.673
	h316.558c5.343,0,9.673-4.331,9.673-9.673v-79.745C423.952,408.125,419.621,403.794,414.279,403.794z"/>
<path style="fill:#CCCCCC;" d="M156.729,403.794H97.72c-5.343,0-9.674,4.331-9.674,9.674v79.745c0,5.343,4.331,9.673,9.674,9.673
	h59.008v-99.092H156.729z"/>
<g>
</g>
<g>
</g>
<g>
</g>
<g>
</g>
<g>
</g>
<g>
</g>
<g>
</g>
<g>
</g>
<g>
</g>
<g>
</g>
<g>
</g>
<g>
</g>
<g>
</g>
<g>
</g>
<g>
</g>
</svg>
