<?xml version="1.0" encoding="iso-8859-1"?>
<!-- Generator: Adobe Illustrator 19.0.0, SVG Export Plug-In . SVG Version: 6.00 Build 0)  -->
<svg version="1.1" id="Layer_1" xmlns="http://www.w3.org/2000/svg" xmlns:xlink="http://www.w3.org/1999/xlink" x="0px" y="0px"
	 viewBox="0 0 511.999 511.999" style="enable-background:new 0 0 511.999 511.999;" xml:space="preserve">
<path style="fill:#F7B239;" d="M294.081,101.215c-2.42,0-4.842-0.923-6.69-2.771l-51.664-51.665l-44.085,16.332
	c-4.904,1.814-10.342-0.685-12.157-5.584c-1.815-4.899,0.686-10.341,5.585-12.156l49.772-18.438
	c3.465-1.284,7.361-0.433,9.975,2.181l55.953,55.953c3.694,3.694,3.694,9.684,0,13.377
	C298.923,100.292,296.501,101.215,294.081,101.215z"/>
<path style="fill:#E6E6E6;" d="M348.194,109.519l22.738,22.738l46.604-46.604l62.347,17.23l8.643-30.973l-71.395-19.755
	c-5.59-1.56-11.587,0.014-15.69,4.118L348.194,109.519z"/>
<path style="fill:#B3B3B3;" d="M350.072,93.578l36.801,36.801c3.65,3.65,3.65,9.569,0,13.219l-25.002,25.002l-50.02-50.02
	l25.002-25.002C340.503,89.928,346.422,89.928,350.072,93.578z"/>
<path style="fill:#F95428;" d="M401.916,250.576c0,109.278-77.335,90.786-75.654,164.759c0.95,41.764,36.102,65.675,75.557,70.32
	c-9.456-10.928-51.169-65.343,13.546-108.988c2.077,42.066,36.986,48.755,36.986,79.017c0,12.744-2.685,21.301-5.792,26.953
	c32.559-8.512,60.152-31.205,64.633-68.983C522.963,314.462,401.916,250.576,401.916,250.576z"/>
<path style="fill:#E09B2D;" d="M374.525,158.956c6.701,6.701,6.701,17.566,0,24.267l-37.888,37.888L179.938,377.822
	c-9.523,9.51-24.948,9.51-34.458,0L7.132,239.476c-9.51-9.51-9.51-24.935,0-34.458l161.9-161.889c5.925-5.924,15.531-5.924,21.455,0
	l16.39,16.39l42.227,42.227l50.022-18.187l27.117,27.117L374.525,158.956z"/>
<path style="fill:#F7B239;" d="M378.081,162.512c4.737,4.737,4.737,12.418,0,17.156l-41.444,41.444L179.938,377.824
	c-9.523,9.51-24.948,9.51-34.458,0L34.25,266.593c-9.51-9.51-9.51-24.935,0-34.458L206.878,59.519l33.024,33.024
	c5.615,5.615,13.973,7.469,21.436,4.756l37.789-13.74L378.081,162.512z"/>
<path style="fill:#CE8A28;" d="M288.207,205.014H179.943V96.75c0-5.224-4.234-9.459-9.459-9.459c-5.225,0-9.459,4.235-9.459,9.459
	v108.264H52.759c-5.225,0-9.459,4.235-9.459,9.459c0,5.224,4.234,9.459,9.459,9.459h108.265v108.264
	c0,5.224,4.234,9.459,9.459,9.459c5.225,0,9.459-4.235,9.459-9.459V223.933h108.264c5.225,0,9.459-4.235,9.459-9.459
	S293.432,205.014,288.207,205.014z"/>
<g>
</g>
<g>
</g>
<g>
</g>
<g>
</g>
<g>
</g>
<g>
</g>
<g>
</g>
<g>
</g>
<g>
</g>
<g>
</g>
<g>
</g>
<g>
</g>
<g>
</g>
<g>
</g>
<g>
</g>
</svg>
