<?xml version="1.0" encoding="iso-8859-1"?>
<!-- Generator: Adobe Illustrator 19.0.0, SVG Export Plug-In . SVG Version: 6.00 Build 0)  -->
<svg version="1.1" id="Layer_1" xmlns="http://www.w3.org/2000/svg" xmlns:xlink="http://www.w3.org/1999/xlink" x="0px" y="0px"
	 viewBox="0 0 512 512" style="enable-background:new 0 0 512 512;" xml:space="preserve">
<g>
	<polyline style="fill:#4D4D4D;" points="95.217,339.46 61.512,354.916 103.365,446.232 152.732,423.619 	"/>
	<polyline style="fill:#4D4D4D;" points="416.784,339.46 450.488,354.916 408.636,446.232 359.268,423.619 	"/>
</g>
<path style="fill:#999999;" d="M85.17,119.226C113.795,53.251,179.513,7.123,256.005,7.123s142.197,46.127,170.822,112.103v0.013
	l-1.92,183.685c-0.851,13.069-3.183,25.738-6.831,37.827c-10.169,33.677-30.533,62.934-57.521,84.161
	c-24.011,18.894-53.28,31.409-85.231,35.043c-0.013,0-0.013,0-0.026,0c-6.328,0.722-12.772,1.096-19.294,1.096
	c-6.522,0-12.966-0.374-19.294-1.096c-0.013,0-0.013,0-0.026,0c-31.963-3.635-61.22-16.149-85.244-35.043
	c-5.31-4.189-10.362-8.674-15.131-13.443c-19.474-19.461-34.231-43.666-42.39-70.718c-3.647-12.089-5.98-24.759-6.831-37.827"/>
<path style="fill:#808080;" d="M207.504,424.912c-5.31-4.189-10.362-8.674-15.131-13.443c-19.474-19.461-34.231-43.666-42.39-70.718
	c-3.647-12.089-5.98-24.759-6.831-37.827l-1.92-183.698c25.06-57.758,78.547-100.301,142.804-110.005
	c-9.143-1.38-18.503-2.098-28.031-2.098c-76.492,0-142.21,46.127-170.835,112.103l1.92,183.698
	c0.851,13.069,3.183,25.738,6.831,37.827c8.158,27.053,22.915,51.257,42.39,70.718c4.769,4.769,9.821,9.254,15.131,13.443
	c24.024,18.894,53.28,31.409,85.244,35.043c0.013,0,0.013,0,0.026,0c6.328,0.722,12.772,1.096,19.294,1.096
	c6.522,0,12.966-0.374,19.294-1.096c0.013,0,0.013,0,0.026,0c2.93-0.334,5.827-0.767,8.71-1.248
	C255.472,453.947,229.325,442.074,207.504,424.912z"/>
<circle style="fill:#F95428;" cx="256.001" cy="353.205" r="82.846"/>
<path style="fill:#E03F20;" d="M255.999,445.718c-51.012,0-92.513-41.5-92.513-92.513s41.5-92.513,92.513-92.513
	c51.011,0,92.511,41.5,92.511,92.513S307.01,445.718,255.999,445.718z M255.999,280.027c-40.352,0-73.18,32.828-73.18,73.18
	s32.828,73.18,73.18,73.18s73.179-32.828,73.179-73.18S296.351,280.027,255.999,280.027z"/>
<path style="fill:#F95428;" d="M230.662,219.587c-29.398,27.169-64.674,54.724-94.82,76.956
	c-12.218,9.009-26.344,12.115-39.657,10.427c-23.315-2.964-44.143-20.647-47.738-46.991c-4.176-30.648-4.73-58.32-3.712-81.209
	c1.366-30.584,21.085-56.129,48.19-66.246c8.377-3.132,17.464-4.782,26.937-4.653c29.321,0.387,56.593,3.519,80.372,7.694
	C249.53,124.213,267.406,185.613,230.662,219.587z"/>
<path style="fill:#E03F20;" d="M96.185,306.97c-23.315-2.964-44.143-20.647-47.738-46.991c-4.176-30.648-4.73-58.32-3.712-81.209
	c1.366-30.584,21.085-56.129,48.19-66.246l1.895,181.378C95.102,298.309,95.566,302.665,96.185,306.97z"/>
<path style="fill:#F95428;" d="M311.762,115.565c23.778-4.173,51.047-7.303,80.372-7.697c40.084-0.54,73.353,30.856,75.13,70.905
	c1.016,22.892,0.463,50.556-3.722,81.206c-5.652,41.383-53.778,61.36-87.388,36.564c-30.142-22.236-65.42-49.786-94.816-76.959
	C244.58,185.606,262.46,124.219,311.762,115.565z"/>
<g>
	<path style="fill:#E6E6E6;" d="M103.16,275.179c-9.995,0-21.03-6.72-22.784-19.562c-3.408-24.957-4.57-50.33-3.457-75.416
		c0.999-22.498,19.414-40.12,41.922-40.12l0.584,0.004c24.529,0.33,49.842,2.758,75.236,7.215
		c15.51,2.722,20.627,14.72,22.107,19.751c1.166,3.963,4.037,17.759-7.984,28.87c-24.059,22.239-55.037,47.369-92.073,74.691
		C112.604,273.643,108.046,275.179,103.16,275.179L103.16,275.179z"/>
	<path style="fill:#E6E6E6;" d="M431.617,255.622c-1.753,12.837-12.785,19.552-22.787,19.552c-4.885,0-9.447-1.534-13.546-4.562
		c-12.399-9.151-24.127-18.057-35.147-26.692c-21.872-17.142-40.933-33.213-56.928-47.996c-12.025-11.11-9.151-24.913-7.991-28.87
		c1.482-5.039,6.599-17.026,22.116-19.758c25.39-4.446,50.703-6.882,75.229-7.205l0.58-0.013c5.735,0,11.2,1.147,16.188,3.222
		c14.59,6.083,25.003,20.144,25.738,36.899C436.192,205.293,435.019,230.671,431.617,255.622z"/>
</g>
<path style="fill:#F2F2F2;" d="M431.617,255.622c-1.753,12.837-12.785,19.552-22.787,19.552c-4.885,0-9.447-1.534-13.546-4.562
	c-12.399-9.151-24.127-18.057-35.147-26.692L409.333,143.3c14.59,6.083,25.003,20.144,25.738,36.899
	C436.192,205.293,435.019,230.671,431.617,255.622z"/>
<path style="fill:#4D4D4D;" d="M255.836,403.632c-5.336-0.026-9.64-4.356-9.628-9.705l0,0c0.013-5.336,4.356-9.653,9.692-9.628l0,0
	c5.336,0.013,9.653,4.356,9.639,9.692l0,0c-0.013,5.323-4.342,9.641-9.666,9.641l0,0
	C255.862,403.632,255.849,403.632,255.836,403.632z M277.85,388.94c-3.763-3.789-3.738-9.911,0.052-13.674l0,0
	c3.788-3.751,9.91-3.738,13.673,0.052l0,0c3.763,3.789,3.738,9.911-0.052,13.675l0,0c-1.882,1.869-4.343,2.81-6.818,2.81l0,0
	C282.232,391.799,279.744,390.847,277.85,388.94z M220.252,388.772c-3.763-3.789-3.751-9.911,0.039-13.675l0,0
	c3.789-3.763,9.898-3.751,13.675,0.039l0,0c3.763,3.776,3.738,9.898-0.039,13.662l0,0c-1.895,1.882-4.356,2.823-6.818,2.823l0,0
	C224.621,391.62,222.146,390.667,220.252,388.772z M296.718,363.034c-5.349-0.013-9.653-4.356-9.628-9.705l0,0
	c0-0.064,0-0.129,0-0.206l0,0c0.037-5.297,4.356-9.589,9.666-9.589l0,0c5.336,0,9.666,4.33,9.666,9.679l0,0c0,0.013,0,0.039,0,0.064
	l0,0c0,0.052,0,0.09,0,0.129l0,0c-0.027,5.336-4.356,9.628-9.666,9.628l0,0C296.744,363.034,296.731,363.034,296.718,363.034z
	 M215.225,362.789c-5.336-0.013-9.653-4.343-9.64-9.679l0,0c0-5.349,4.343-9.666,9.679-9.653l0,0
	c5.336,0.013,9.653,4.343,9.64,9.679l0,0c0,5.336-4.33,9.653-9.666,9.653l0,0H215.225z M277.992,331.238L277.992,331.238
	L277.992,331.238c-3.776-3.776-3.776-9.898,0-13.675l0,0c3.789-3.776,9.911-3.776,13.675,0.013l0,0
	c3.776,3.776,3.776,9.885,0,13.662l0,0c-1.895,1.882-4.369,2.835-6.831,2.835l0,0C282.361,334.073,279.873,333.12,277.992,331.238z
	 M220.381,331.173c-3.763-3.789-3.763-9.911,0.026-13.675l0,0c3.776-3.776,9.898-3.763,13.662,0.013l0,0
	c3.776,3.789,3.763,9.911-0.013,13.674l0,0c-1.895,1.882-4.356,2.823-6.831,2.823l0,0
	C224.75,334.009,222.262,333.056,220.381,331.173z M256.03,322.113c-5.336,0-9.666-4.331-9.653-9.666l0,0
	c0-5.349,4.33-9.666,9.666-9.666l0,0c5.347,0.013,9.666,4.343,9.666,9.679l0,0c-0.014,5.336-4.33,9.653-9.666,9.653l0,0H256.03z"/>
<path style="fill:#F95428;" d="M118.653,487.626l-34.885,15.989c-6.949,3.185-15.166,0.134-18.35-6.815L1.262,356.823
	c-3.185-6.949-0.134-15.166,6.815-18.35l34.885-15.989c6.949-3.185,15.166-0.134,18.35,6.815l64.156,139.975
	C128.654,476.225,125.602,484.441,118.653,487.626z"/>
<path style="fill:#E03F20;" d="M118.653,487.626l-34.885,15.989c-6.949,3.185-15.166,0.134-18.35-6.815l-7.047-15.377l60.052-27.523
	l7.047,15.377C128.654,476.225,125.602,484.441,118.653,487.626z"/>
<path style="fill:#F95428;" d="M393.347,487.626l34.885,15.989c6.949,3.185,15.166,0.134,18.35-6.815l64.156-139.975
	c3.185-6.949,0.134-15.166-6.815-18.35l-34.885-15.989c-6.949-3.185-15.166-0.134-18.35,6.815l-64.156,139.975
	C383.346,476.225,386.398,484.441,393.347,487.626z"/>
<path style="fill:#E03F20;" d="M393.347,487.626l34.885,15.989c6.949,3.185,15.166,0.134,18.35-6.815l5.707-12.451l-60.052-27.523
	l-5.707,12.451C383.346,476.225,386.398,484.441,393.347,487.626z"/>
<g>
</g>
<g>
</g>
<g>
</g>
<g>
</g>
<g>
</g>
<g>
</g>
<g>
</g>
<g>
</g>
<g>
</g>
<g>
</g>
<g>
</g>
<g>
</g>
<g>
</g>
<g>
</g>
<g>
</g>
</svg>
