<?xml version="1.0" encoding="iso-8859-1"?>
<!-- Generator: Adobe Illustrator 19.0.0, SVG Export Plug-In . SVG Version: 6.00 Build 0)  -->
<svg version="1.1" id="Layer_1" xmlns="http://www.w3.org/2000/svg" xmlns:xlink="http://www.w3.org/1999/xlink" x="0px" y="0px"
	 viewBox="0 0 512 512" style="enable-background:new 0 0 512 512;" xml:space="preserve">
<g>
	<rect x="83.855" y="86.881" style="fill:#E03F20;" width="48.128" height="201.729"/>
	<rect x="380.008" y="86.881" style="fill:#E03F20;" width="48.128" height="201.729"/>
</g>
<g>
	<path style="fill:#F95428;" d="M83.86,375.474c-4.714,0-8.533-3.821-8.533-8.533V8.533C75.327,3.821,79.146,0,83.86,0
		s8.533,3.821,8.533,8.533v358.407C92.394,371.653,88.574,375.474,83.86,375.474z"/>
	<path style="fill:#F95428;" d="M428.14,375.474c-4.714,0-8.533-3.821-8.533-8.533V8.533c0-4.713,3.82-8.533,8.533-8.533
		s8.533,3.821,8.533,8.533v358.407C436.673,371.653,432.854,375.474,428.14,375.474z"/>
</g>
<path style="fill:#E6E6E6;" d="M367.761,25.205L367.761,25.205c-15.432,0-27.941,12.51-27.941,27.941
	c0-15.431-12.51-27.941-27.941-27.941l0,0c-15.432,0-27.941,12.51-27.941,27.941c0-15.431-12.51-27.941-27.941-27.941
	s-27.941,12.51-27.941,27.941c0-15.431-12.509-27.941-27.941-27.941c-15.431,0-27.941,12.51-27.941,27.941
	c0-15.431-12.509-27.941-27.941-27.941s-27.941,12.51-27.941,27.941V322.33c0,15.431,12.51,27.941,27.941,27.941
	s27.941-12.51,27.941-27.941c0,15.431,12.51,27.941,27.941,27.941c15.432,0,27.941-12.51,27.941-27.941
	c0,15.431,12.51,27.941,27.941,27.941s27.941-12.51,27.941-27.941c0,15.431,12.509,27.941,27.941,27.941l0,0
	c15.431,0,27.941-12.51,27.941-27.941v58.771h55.881V53.145C395.702,37.714,383.193,25.205,367.761,25.205z"/>
<g>
	<path style="fill:#CCCCCC;" d="M138.812,322.329V53.145c0-15.431,2.429-27.941,5.427-27.941c-15.432,0-27.941,12.51-27.941,27.941
		v269.185c0,15.431,12.51,27.941,27.941,27.941C141.241,350.27,138.812,337.76,138.812,322.329z"/>
	<path style="fill:#CCCCCC;" d="M194.693,322.329V53.145c0-15.431,2.429-27.941,5.427-27.941c-15.432,0-27.941,12.51-27.941,27.941
		v269.185c0,15.431,12.51,27.941,27.941,27.941C197.122,350.27,194.693,337.76,194.693,322.329z"/>
	<path style="fill:#CCCCCC;" d="M250.574,322.329V53.145c0-15.431,2.429-27.941,5.427-27.941c-15.432,0-27.941,12.51-27.941,27.941
		v269.185c0,15.431,12.51,27.941,27.941,27.941C253.003,350.27,250.574,337.76,250.574,322.329z"/>
	<path style="fill:#CCCCCC;" d="M306.454,322.329V53.145c0-15.431,2.429-27.941,5.427-27.941c-15.432,0-27.941,12.51-27.941,27.941
		v269.185c0,15.431,12.51,27.941,27.941,27.941C308.883,350.27,306.454,337.76,306.454,322.329z"/>
	<path style="fill:#CCCCCC;" d="M362.335,383.169V53.145c0-15.431,2.429-27.941,5.427-27.941c-15.432,0-27.941,12.51-27.941,27.941
		v330.024C339.82,398.599,362.335,398.599,362.335,383.169z"/>
</g>
<polyline style="fill:#F95428;" points="395.698,409.881 382.779,512 352.733,512 339.815,409.881 "/>
<polygon style="fill:#E03F20;" points="339.815,409.881 352.733,512 365.58,512 363.708,409.881 "/>
<rect x="326.123" y="378.825" style="fill:#F95428;" width="83.263" height="32.758"/>
<rect x="326.123" y="378.825" style="fill:#E03F20;" width="30" height="32.758"/>
<g>
</g>
<g>
</g>
<g>
</g>
<g>
</g>
<g>
</g>
<g>
</g>
<g>
</g>
<g>
</g>
<g>
</g>
<g>
</g>
<g>
</g>
<g>
</g>
<g>
</g>
<g>
</g>
<g>
</g>
</svg>
