<?xml version="1.0" encoding="iso-8859-1"?>
<!-- Generator: Adobe Illustrator 19.0.0, SVG Export Plug-In . SVG Version: 6.00 Build 0)  -->
<svg version="1.1" id="Layer_1" xmlns="http://www.w3.org/2000/svg" xmlns:xlink="http://www.w3.org/1999/xlink" x="0px" y="0px"
	 viewBox="0 0 512 512" style="enable-background:new 0 0 512 512;" xml:space="preserve">
<polygon style="fill:#E6E6E6;" points="419.771,211.79 419.771,501.868 92.241,501.868 92.241,211.778 256.006,48.025 "/>
<polygon style="fill:#CCCCCC;" points="419.771,211.79 419.771,259.469 256.006,95.703 92.241,259.457 92.241,211.778 
	256.006,48.025 "/>
<g>
	<path style="fill:#F95428;" d="M429.904,512H82.108V207.581L256.006,33.696l173.898,173.897L429.904,512L429.904,512z
		 M102.371,491.736h307.268v-275.75L256.006,62.353L102.371,215.975V491.736z"/>
	<path style="fill:#F95428;" d="M237.29,184.238c0,118.875-84.127,98.759-82.299,179.229c1.032,45.409,39.235,71.417,82.128,76.489
		c0.023,0.002,0.039-0.021,0.024-0.039c-10.364-11.996-55.53-71.098,14.777-118.513c2.26,45.76,40.235,53.037,40.235,85.957
		c0,13.863-2.92,23.172-6.301,29.32c35.418-9.259,65.435-33.945,70.311-75.042C368.968,253.735,237.29,184.238,237.29,184.238z"/>
	<polygon style="fill:#F95428;" points="419.771,213.578 256.006,49.813 92.241,213.566 15.466,290.341 15.466,240.528 256.006,0 
		496.534,240.528 496.534,290.341 	"/>
</g>
<g>
</g>
<g>
</g>
<g>
</g>
<g>
</g>
<g>
</g>
<g>
</g>
<g>
</g>
<g>
</g>
<g>
</g>
<g>
</g>
<g>
</g>
<g>
</g>
<g>
</g>
<g>
</g>
<g>
</g>
</svg>
