<?xml version="1.0" encoding="iso-8859-1"?>
<!-- Generator: Adobe Illustrator 19.0.0, SVG Export Plug-In . SVG Version: 6.00 Build 0)  -->
<svg version="1.1" id="Layer_1" xmlns="http://www.w3.org/2000/svg" xmlns:xlink="http://www.w3.org/1999/xlink" x="0px" y="0px"
	 viewBox="0 0 512 512" style="enable-background:new 0 0 512 512;" xml:space="preserve">
<g>
	<path style="fill:#F95428;" d="M390.423,129.844h-31.908c-7.771-15.282-18.871-28.609-32.334-39.004V39.912
		c0-3.673-2.977-6.65-6.65-6.65h-31.71V6.65c0-3.673-2.977-6.65-6.65-6.65h-50.329c-3.673,0-6.65,2.977-6.65,6.65v26.612h-31.71
		c-3.673,0-6.65,2.977-6.65,6.65v50.915c-13.476,10.407-24.563,23.734-32.334,39.016h-31.908c-3.673,0-6.65,2.977-6.65,6.65v23.947
		c0,3.673,2.977,6.65,6.65,6.65h20.425c-0.495,3.886-0.804,7.821-0.903,11.817c-0.025,0.978-0.037,1.955-0.037,2.945v286.416
		h229.865V181.853c0-0.99-0.012-1.968-0.037-2.945c-0.099-3.997-0.408-7.932-0.903-11.817h20.425c3.673,0,6.65-2.977,6.65-6.65
		v-23.947C397.073,132.821,394.096,129.844,390.423,129.844z"/>
	<path style="fill:#F95428;" d="M256.006,256.656c12.622,0,22.855,10.234,22.855,22.855c0,12.634-10.234,22.868-22.855,22.868
		c-12.634,0-22.868-10.234-22.868-22.868C233.138,266.889,243.372,256.656,256.006,256.656z"/>
</g>
<g>
	<path style="fill:#E03F20;" d="M256.006,218.555c33.671,0,60.956,27.285,60.956,60.956s-27.285,60.968-60.956,60.968
		s-60.968-27.298-60.968-60.968S222.336,218.555,256.006,218.555z M278.862,279.511c0-12.622-10.234-22.855-22.855-22.855
		c-12.634,0-22.868,10.234-22.868,22.855c0,12.634,10.234,22.868,22.868,22.868C268.628,302.379,278.862,292.145,278.862,279.511z"
		/>
	<path style="fill:#E03F20;" d="M87.579,247.709v63.616H60.124c-3.214,0-5.82-2.605-5.82-5.82v-51.978c0-3.214,2.605-5.82,5.82-5.82
		h27.455V247.709z"/>
	<path style="fill:#E03F20;" d="M142.311,218.555v121.924H92.161c-3.214,0-5.82-2.605-5.82-5.82v-23.334v-63.616v-23.334
		c0-3.214,2.605-5.82,5.82-5.82H142.311z"/>
</g>
<path style="fill:#F95428;" d="M457.695,253.529v51.978c0,3.214-2.605,5.82-5.82,5.82h-27.443V247.71h27.443
	C455.09,247.709,457.695,250.314,457.695,253.529z"/>
<path style="fill:#E03F20;" d="M457.695,295.52v9.987c0,3.214-2.605,5.82-5.82,5.82h-27.443v-15.806h33.262V295.52z"/>
<path style="fill:#F95428;" d="M425.671,311.326v23.334c0,3.214-2.605,5.82-5.82,5.82h-50.149V218.555h50.149
	c3.214,0,5.82,2.605,5.82,5.82v23.334V311.326z"/>
<g>
	<path style="fill:#E03F20;" d="M425.671,334.66L425.671,334.66c0,3.214-2.605,5.82-5.82,5.82h-50.149v-24.337h55.969v5.82V334.66z"
		/>
	<path style="fill:#E03F20;" d="M370.902,178.908c-0.099-3.997-0.408-7.932-0.903-11.817H197.614h-13.379v-37.247h31.134
		c3.081-15.282,7.477-28.609,12.819-39.016c7.697-14.985,17.346-23.907,27.819-23.907c-12.859,0-25.219,2.128-36.764,6.026V33.262
		h-26.761c-3.673,0-6.65,2.977-6.65,6.65v50.915l0,0c-13.476,10.407-24.563,23.734-32.334,39.016h-29.088h-2.82
		c-3.673,0-6.65,2.977-6.65,6.65v23.947c0,3.673,2.977,6.65,6.65,6.65l0,0h19.717c-0.153,4.838-0.233,9.763-0.233,14.763v36.702
		v121.924v127.79h56.773v-127.79V218.555v-36.702c0-0.989-0.017-1.961-0.024-2.945L370.902,178.908L370.902,178.908z"/>
	<path style="fill:#E03F20;" d="M278.862,279.511c0,12.634-10.234,22.868-22.855,22.868c-12.634,0-22.868-10.234-22.868-22.868
		c0-12.622,10.234-22.855,22.868-22.855C268.628,256.656,278.862,266.889,278.862,279.511z"/>
</g>
<path style="fill:#F95428;" d="M278.862,279.511c0,12.634-10.234,22.868-22.855,22.868c-12.634,0-22.868-10.234-22.868-22.868
	c0-12.622,10.234-22.855,22.868-22.855C268.628,256.656,278.862,266.889,278.862,279.511z"/>
<rect x="111.097" y="465.807" style="fill:#E6E6E6;" width="289.831" height="46.193"/>
<rect x="111.097" y="465.807" style="fill:#B3B3B3;" width="73.145" height="46.193"/>
<path style="fill:#E03F20;" d="M246.985,0v33.262h-22.794V6.65c0-3.673,2.977-6.65,6.65-6.65H246.985z"/>
<g>
</g>
<g>
</g>
<g>
</g>
<g>
</g>
<g>
</g>
<g>
</g>
<g>
</g>
<g>
</g>
<g>
</g>
<g>
</g>
<g>
</g>
<g>
</g>
<g>
</g>
<g>
</g>
<g>
</g>
</svg>
