<?xml version="1.0" encoding="iso-8859-1"?>
<!-- Generator: Adobe Illustrator 19.0.0, SVG Export Plug-In . SVG Version: 6.00 Build 0)  -->
<svg version="1.1" id="Layer_1" xmlns="http://www.w3.org/2000/svg" xmlns:xlink="http://www.w3.org/1999/xlink" x="0px" y="0px"
	 viewBox="0 0 512 512" style="enable-background:new 0 0 512 512;" xml:space="preserve">
<polyline style="fill:#E6E6E6;" points="414.705,193.812 414.705,8.208 97.292,8.208 97.292,193.812 "/>
<path style="fill:#808080;" d="M414.706,202.02c-4.533,0-8.208-3.674-8.208-8.208V16.415H105.5v177.397
	c0,4.533-3.674,8.208-8.208,8.208s-8.208-3.674-8.208-8.208V0h333.829v193.812C422.914,198.345,419.238,202.02,414.706,202.02z"/>
<g>
	<path style="fill:#F7B239;" d="M370.594,104.98v50.95h-35.987v-50.925c5.127,3.46,11.314,5.48,17.981,5.48
		S365.455,108.452,370.594,104.98z"/>
	<path style="fill:#F7B239;" d="M306.196,104.992v50.937h-35.987v-50.925c5.127,3.46,11.314,5.48,17.981,5.48
		C294.87,110.485,301.057,108.465,306.196,104.992z"/>
	<path style="fill:#F7B239;" d="M241.798,105.005v50.925h-35.987v-50.925c5.139,3.46,11.326,5.48,17.993,5.48
		C230.472,110.485,236.659,108.465,241.798,105.005z"/>
	<path style="fill:#F7B239;" d="M177.401,105.005v50.925h-35.987v-50.925c5.139,3.46,11.326,5.48,17.993,5.48
		C166.074,110.485,172.261,108.465,177.401,105.005z"/>
</g>
<g>
	<path style="fill:#E09B2D;" d="M152.462,96.797v71.785h-11.049V96.797c1.578,3.46,3.477,5.48,5.524,5.48
		C148.985,102.278,150.884,100.257,152.462,96.797z"/>
	<path style="fill:#E09B2D;" d="M216.86,96.797v71.785h-11.049V96.797c1.578,3.46,3.477,5.48,5.524,5.48
		C213.383,102.278,215.282,100.257,216.86,96.797z"/>
	<path style="fill:#E09B2D;" d="M281.258,96.797v71.785h-11.049V96.797c1.578,3.46,3.477,5.48,5.524,5.48
		S279.679,100.257,281.258,96.797z"/>
	<path style="fill:#E09B2D;" d="M345.643,96.797v71.785h-11.049V96.797c1.578,3.46,3.477,5.48,5.524,5.48
		C342.165,102.278,344.065,100.257,345.643,96.797z"/>
</g>
<rect x="76.343" y="154.037" style="fill:#F95428;" width="359.314" height="357.963"/>
<rect x="114.224" y="191.918" style="fill:#E6E6E6;" width="283.552" height="282.201"/>
<g>
	<path style="fill:#F95428;" d="M241.984,239.312c0,89.038-63.011,73.97-61.641,134.242c0.774,34.029,29.416,53.511,61.563,57.296
		c-7.704-8.905-41.692-53.241,11.037-88.802c1.692,34.275,30.136,39.725,30.136,64.381c0,10.383-2.188,17.356-4.719,21.961
		c26.528-6.935,49.01-25.426,52.662-56.205C340.611,291.364,241.984,239.312,241.984,239.312z"/>
	<path style="fill:#F95428;" d="M352.588,47.981c17.779,0,32.199,14.42,32.199,32.199c0,11.112-5.632,20.898-14.193,26.693
		c-5.139,3.472-11.339,5.505-18.006,5.505s-12.854-2.02-17.981-5.48v-0.013c-8.574-5.783-14.218-15.594-14.218-26.706
		C320.389,62.401,334.809,47.981,352.588,47.981z"/>
	<path style="fill:#F95428;" d="M306.196,106.886c-5.139,3.472-11.326,5.493-18.006,5.493c-6.667,0-12.854-2.02-17.981-5.48v-0.013
		c-8.574-5.783-14.205-15.594-14.205-26.706c0-17.779,14.407-32.199,32.186-32.199c17.791,0,32.199,14.42,32.199,32.199
		C320.389,91.292,314.757,101.091,306.196,106.886z"/>
	<path style="fill:#F95428;" d="M241.798,106.899c-5.139,3.46-11.326,5.48-17.993,5.48c-6.667,0-12.854-2.02-17.993-5.48v-0.013
		c-8.574-5.783-14.205-15.594-14.205-26.706c0-17.779,14.407-32.199,32.199-32.199c17.779,0,32.199,14.42,32.199,32.199
		C256.004,91.292,250.359,101.103,241.798,106.899z"/>
	<path style="fill:#F95428;" d="M177.401,106.899c-5.139,3.46-11.326,5.48-17.993,5.48c-6.667,0-12.854-2.02-17.993-5.48v-0.013
		c-8.561-5.783-14.205-15.594-14.205-26.706c0-17.779,14.42-32.199,32.199-32.199s32.199,14.42,32.199,32.199
		C191.606,91.292,185.962,101.103,177.401,106.899z"/>
</g>
<g>
	<path style="fill:#E03F20;" d="M158.249,106.899v-0.013c-8.561-5.783-14.205-15.594-14.205-26.706
		c0-14.866,10.084-27.375,23.78-31.079c-2.685-0.726-5.504-1.12-8.418-1.12c-17.779,0-32.199,14.42-32.199,32.199
		c0,11.112,5.644,20.923,14.205,26.706v0.013c5.139,3.46,11.326,5.48,17.993,5.48c2.917,0,5.733-0.408,8.418-1.131
		C164.372,110.315,161.141,108.845,158.249,106.899z"/>
	<path style="fill:#E03F20;" d="M222.647,106.899v-0.013c-8.561-5.783-14.205-15.594-14.205-26.706
		c0-14.866,10.084-27.375,23.78-31.079c-2.685-0.726-5.504-1.12-8.418-1.12c-17.779,0-32.199,14.42-32.199,32.199
		c0,11.112,5.644,20.923,14.205,26.706v0.013c5.139,3.46,11.326,5.48,17.993,5.48c2.917,0,5.733-0.408,8.418-1.131
		C228.77,110.315,225.539,108.845,222.647,106.899z"/>
	<path style="fill:#E03F20;" d="M287.045,106.899v-0.013c-8.561-5.783-14.205-15.594-14.205-26.706
		c0-14.866,10.084-27.375,23.78-31.079c-2.685-0.726-5.504-1.12-8.418-1.12c-17.779,0-32.199,14.42-32.199,32.199
		c0,11.112,5.644,20.923,14.205,26.706v0.013c5.139,3.46,11.326,5.48,17.993,5.48c2.917,0,5.733-0.408,8.418-1.131
		C293.168,110.315,289.936,108.845,287.045,106.899z"/>
	<path style="fill:#E03F20;" d="M351.43,106.899v-0.013c-8.561-5.783-14.205-15.594-14.205-26.706
		c0-14.866,10.084-27.375,23.78-31.079c-2.685-0.726-5.504-1.12-8.418-1.12c-17.779,0-32.199,14.42-32.199,32.199
		c0,11.112,5.644,20.923,14.205,26.706v0.013c5.139,3.46,11.326,5.48,17.993,5.48c2.917,0,5.733-0.408,8.418-1.131
		C357.553,110.315,354.321,108.845,351.43,106.899z"/>
</g>
<g>
</g>
<g>
</g>
<g>
</g>
<g>
</g>
<g>
</g>
<g>
</g>
<g>
</g>
<g>
</g>
<g>
</g>
<g>
</g>
<g>
</g>
<g>
</g>
<g>
</g>
<g>
</g>
<g>
</g>
</svg>
