<?xml version="1.0" encoding="iso-8859-1"?>
<!-- Generator: Adobe Illustrator 19.0.0, SVG Export Plug-In . SVG Version: 6.00 Build 0)  -->
<svg version="1.1" id="Layer_1" xmlns="http://www.w3.org/2000/svg" xmlns:xlink="http://www.w3.org/1999/xlink" x="0px" y="0px"
	 viewBox="0 0 512 512" style="enable-background:new 0 0 512 512;" xml:space="preserve">
<polygon style="fill:#E6E6E6;" points="215.938,347.816 210.12,366.027 193.231,418.869 144.379,418.845 159.778,355.833 
	164.285,337.358 "/>
<polygon style="fill:#808080;" points="164.285,337.358 159.778,355.833 144.379,418.845 135.388,455.664 77.064,455.664 
	84.998,340.688 86.067,325.097 86.765,321.659 "/>
<path style="fill:#CCCCCC;" d="M44.104,198.917l-0.385,86.921h-31.41C5.517,285.838,0,280.32,0,273.529v-62.303
	c0-6.792,5.517-12.309,12.309-12.309H44.104z"/>
<g>
	<path style="fill:#B3B3B3;" d="M44.104,257.998l-0.385,27.84H12.311C5.513,285.838,0,280.325,0,273.526v-15.528H44.104z"/>
	<polygon style="fill:#B3B3B3;" points="44.104,198.917 43.719,285.838 26.89,285.838 27.275,198.917 	"/>
</g>
<path style="fill:#F95428;" d="M380.464,98.569l-0.012,88.82l-0.036,107.356l-0.024,88.76l-16.829-3.402L215.938,350.22
	l-51.652-10.458l-77.521-15.699l-6.551-1.334l-29.438-5.962c-5.566-1.13-9.568-6.046-9.544-11.72l0.084-19.209l0.385-86.921
	l0.096-22.274c0.024-5.65,4.015-10.506,9.544-11.624l312.295-63.06l16.757-3.39H380.464z"/>
<polygon style="fill:#CCCCCC;" points="215.938,347.816 210.12,366.027 164.285,356.747 159.778,355.833 164.285,337.358 "/>
<path style="fill:#E03F20;" d="M380.391,324.005L41.323,284.02l-0.008,1.818l-0.079,19.202c-0.024,5.685,3.974,10.593,9.544,11.72
	l329.612,66.746"/>
<polygon style="fill:#666666;" points="164.285,337.358 86.765,321.659 86.067,325.097 84.998,340.688 86.765,341.048 
	159.778,355.833 "/>
<polygon style="fill:#E03F20;" points="380.464,98.569 380.452,187.389 380.415,294.745 380.391,383.505 363.563,380.103 
	363.587,294.745 363.623,187.389 363.635,101.959 380.391,98.569 "/>
<path style="fill:#F95428;" d="M496.27,203.124c20.964,20.964,20.976,54.946,0.024,75.91c-10.482,10.47-24.209,15.711-37.949,15.699
	l-0.012,0.012h-0.024l0.024-107.344C472.06,187.413,485.8,192.654,496.27,203.124z"/>
<path style="fill:#E03F20;" d="M496.294,262.205c-10.482,10.47-24.209,15.711-37.949,15.699l-0.012,0.012h-0.02l-0.004,16.829h0.024
	l0.012-0.012c13.74,0.012,27.467-5.229,37.949-15.699c12.618-12.625,17.621-29.971,15.034-46.353
	C509.621,243.488,504.619,253.875,496.294,262.205z"/>
<path style="fill:#E6E6E6;" d="M460.136,187.401l-0.024,107.344l-0.024,88.772l-0.008,30.574
	c-0.002,7.159-6.393,12.629-13.467,11.525l-57.563-8.981c-5.682-0.887-9.871-5.782-9.869-11.533l0.008-21.597l0.024-88.76
	l0.036-107.356l0.012-88.821V77.022c0-5.747,4.184-10.638,9.863-11.528l57.571-9.015c7.079-1.108,13.475,4.366,13.473,11.53
	l-0.008,30.56L460.136,187.401z"/>
<path style="fill:#CCCCCC;" d="M460.076,353.794L379.2,341.176l-0.012,42.329l-0.008,21.597c-0.002,5.751,4.187,10.647,9.869,11.533
	l57.563,8.981c7.074,1.103,13.464-4.366,13.467-11.525l0.008-30.574L460.076,353.794z"/>
<g>
</g>
<g>
</g>
<g>
</g>
<g>
</g>
<g>
</g>
<g>
</g>
<g>
</g>
<g>
</g>
<g>
</g>
<g>
</g>
<g>
</g>
<g>
</g>
<g>
</g>
<g>
</g>
<g>
</g>
</svg>
