<?xml version="1.0" encoding="iso-8859-1"?>
<!-- Generator: Adobe Illustrator 19.0.0, SVG Export Plug-In . SVG Version: 6.00 Build 0)  -->
<svg version="1.1" id="Layer_1" xmlns="http://www.w3.org/2000/svg" xmlns:xlink="http://www.w3.org/1999/xlink" x="0px" y="0px"
	 viewBox="0 0 512 512" style="enable-background:new 0 0 512 512;" xml:space="preserve">
<circle style="fill:#E6E6E6;" cx="256" cy="255.087" r="227.745"/>
<g>
	<path style="fill:#F95428;" d="M319.381,158.17l-63.384,97.831l-105.51,71.063c-2.64-7.758-4.179-16.217-4.38-25.352
		c-2.09-91.899,93.963-68.912,93.963-204.657C240.07,97.054,281.978,119.166,319.381,158.17z"/>
	<path style="fill:#F95428;" d="M223.878,365.355c4.968,9.485-4.217,20.297-14.303,16.718c-10.824-3.829-20.872-9.022-29.644-15.567
		l3.073-36.338l30.3,2.977C214.831,345.196,219.085,356.208,223.878,365.355z"/>
	<path style="fill:#F95428;" d="M349.888,196.561c18.557,29.169,30.57,63.894,25.928,103.061
		c-4.455,37.615-27.354,63.18-57.099,77.296c-8.447,4.017-18.082-2.953-16.818-12.213c0.526-3.854,0.826-8.134,0.826-12.876
		c0-29.231-26.228-40.756-39.092-69.024l20.731-63.172L349.888,196.561z"/>
</g>
<path style="fill:#F7B239;" d="M256,0c141.377,0,256,114.611,256,256S397.377,512,256,512C114.611,512,0,397.389,0,256
	S114.611,0,256,0z M462.509,256c0-48.252-16.543-92.637-44.273-127.787l-68.348,68.348l-86.255,86.243l-50.329,50.342
	l-33.373,33.361L128.2,418.237c35.163,27.73,79.548,44.285,127.8,44.285C370.048,462.522,462.509,370.06,462.509,256z
	 M319.381,158.17l64.407-64.407C348.637,66.033,304.252,49.478,256,49.478C141.94,49.478,49.478,141.94,49.478,256
	c0,48.252,16.555,92.637,44.285,127.8l56.723-56.736L319.381,158.17z"/>
<g>
</g>
<g>
</g>
<g>
</g>
<g>
</g>
<g>
</g>
<g>
</g>
<g>
</g>
<g>
</g>
<g>
</g>
<g>
</g>
<g>
</g>
<g>
</g>
<g>
</g>
<g>
</g>
<g>
</g>
</svg>
