<?xml version="1.0" encoding="iso-8859-1"?>
<!-- Generator: Adobe Illustrator 19.0.0, SVG Export Plug-In . SVG Version: 6.00 Build 0)  -->
<svg version="1.1" id="Layer_1" xmlns="http://www.w3.org/2000/svg" xmlns:xlink="http://www.w3.org/1999/xlink" x="0px" y="0px"
	 viewBox="0 0 512 512" style="enable-background:new 0 0 512 512;" xml:space="preserve">
<path style="fill:#E6E6E6;" d="M437.658,285.128c-0.635-13.149-4.255-26.575-11.196-39.268
	c-9.469-17.357-23.65-30.722-39.916-39.197c-7.564-3.956-15.583-6.832-23.794-8.57l41.054-41.054
	c6.665,3.764,12.934,8.367,18.627,13.737c7.204,6.784,13.497,14.804,18.483,23.937C457.628,225.314,455.207,260.112,437.658,285.128
	z"/>
<path style="fill:#CCCCCC;" d="M422.435,170.775l-35.888,35.888c-7.564-3.956-15.583-6.832-23.794-8.57l41.054-41.054
	C410.473,160.802,416.742,165.405,422.435,170.775z"/>
<polygon style="fill:#E6E6E6;" points="512,0 412.259,131.806 380.194,99.742 "/>
<rect x="-47.354" y="331.177" transform="matrix(-0.7071 0.7071 -0.7071 -0.7071 523.3832 484.5172)" style="fill:#F95428;" width="417.397" height="38.955"/>
<rect x="-54.545" y="334.152" transform="matrix(-0.7071 0.7071 -0.7071 -0.7071 506.0186 477.3164)" style="fill:#E03F20;" width="417.397" height="18.613"/>
<polygon style="fill:#E6E6E6;" points="423.346,140.497 365.75,198.093 333.65,230.205 321.495,218.05 303.683,200.238 
	291.529,188.084 281.795,178.351 371.504,88.654 "/>
<g>
	<polygon style="fill:#CCCCCC;" points="393.38,110.53 335.784,168.126 303.683,200.238 291.529,188.084 281.795,178.351 
		371.504,88.654 	"/>
	<polygon style="fill:#CCCCCC;" points="512,0 396.22,115.768 380.194,99.742 	"/>
</g>
<g>
</g>
<g>
</g>
<g>
</g>
<g>
</g>
<g>
</g>
<g>
</g>
<g>
</g>
<g>
</g>
<g>
</g>
<g>
</g>
<g>
</g>
<g>
</g>
<g>
</g>
<g>
</g>
<g>
</g>
</svg>
