<?xml version="1.0" encoding="iso-8859-1"?>
<!-- Generator: Adobe Illustrator 19.0.0, SVG Export Plug-In . SVG Version: 6.00 Build 0)  -->
<svg version="1.1" id="Layer_1" xmlns="http://www.w3.org/2000/svg" xmlns:xlink="http://www.w3.org/1999/xlink" x="0px" y="0px"
	 viewBox="0 0 512 512" style="enable-background:new 0 0 512 512;" xml:space="preserve">
<path style="fill:#CCCCCC;" d="M254.964,404.048l-80.698,80.698c-21.999,21.987-53.54,31.553-84.054,25.443l-73.674-14.737
	L1.813,421.79c-6.11-30.514,3.443-62.067,25.443-84.054l80.698-80.698L254.964,404.048z"/>
<path style="fill:#E6E6E6;" d="M254.964,404.048l-80.698,80.698c-21.999,21.987-53.54,31.553-84.054,25.443l-73.674-14.737
	l164.915-164.915L254.964,404.048z"/>
<path style="fill:#F95428;" d="M509.349,25.194L486.806,2.65c-3.533-3.533-9.261-3.533-12.794,0L108.297,368.365
	c-9.168,9.168-9.168,24.032,0,33.2l2.137,2.137c9.168,9.168,24.032,9.168,33.2,0L509.349,37.987
	C512.883,34.455,512.883,28.726,509.349,25.194z"/>
<path style="fill:#E03F20;" d="M123.948,384.017L496.061,11.904l-9.254-9.254c-3.533-3.533-9.261-3.533-12.794,0L108.297,368.365
	c-9.168,9.168-9.168,24.032,0,33.2l2.137,2.137c2.409,2.409,5.215,4.167,8.204,5.31C115.43,400.627,117.19,390.775,123.948,384.017z
	"/>
<g>
</g>
<g>
</g>
<g>
</g>
<g>
</g>
<g>
</g>
<g>
</g>
<g>
</g>
<g>
</g>
<g>
</g>
<g>
</g>
<g>
</g>
<g>
</g>
<g>
</g>
<g>
</g>
<g>
</g>
</svg>
