<?xml version="1.0" encoding="iso-8859-1"?>
<!-- Generator: Adobe Illustrator 19.0.0, SVG Export Plug-In . SVG Version: 6.00 Build 0)  -->
<svg version="1.1" id="Layer_1" xmlns="http://www.w3.org/2000/svg" xmlns:xlink="http://www.w3.org/1999/xlink" x="0px" y="0px"
	 viewBox="0 0 511.999 511.999" style="enable-background:new 0 0 511.999 511.999;" xml:space="preserve">
<path style="fill:#CCCCCC;" d="M391.307,0.001H120.688c-21.86,0-39.581,17.721-39.581,39.581v432.835
	c0,21.86,17.721,39.581,39.581,39.581h270.618c21.86,0,39.581-17.721,39.581-39.581V39.582
	C430.888,17.722,413.167,0.001,391.307,0.001z"/>
<path style="fill:#E6E6E6;" d="M430.892,82.718v331.697H81.111V82.718H430.892z M348.516,293.601
	c11.824-99.662-109.801-163.865-109.801-163.865c0,109.814-77.712,91.222-76.014,165.55c0.95,41.974,36.271,65.99,75.913,70.666
	c-9.505-10.988-51.415-65.66,13.611-109.522c2.091,42.278,37.171,48.995,37.171,79.398c0,12.813-2.699,21.405-5.817,27.083
	C316.288,354.356,344.017,331.557,348.516,293.601z"/>
<circle style="fill:#808080;" cx="255.999" cy="462.915" r="22.812"/>
<path style="fill:#F95428;" d="M238.715,129.736c0,0,121.625,64.203,109.801,163.865c-4.499,37.956-32.228,60.755-64.938,69.31
	c3.118-5.678,5.817-14.27,5.817-27.083c0-30.403-35.08-37.12-37.171-79.398c-65.026,43.862-23.116,98.534-13.611,109.522
	c-39.642-4.676-74.962-28.692-75.913-70.666C161.003,220.958,238.715,239.55,238.715,129.736z"/>
<g>
	<path style="fill:#666666;" d="M430.892,414.415v58.005c0,21.861-17.73,39.579-39.591,39.579H120.689
		c-21.861,0-39.579-17.717-39.579-39.579v-58.005H430.892z M278.813,462.915c0-12.597-10.215-22.812-22.812-22.812
		s-22.812,10.215-22.812,22.812s10.215,22.812,22.812,22.812S278.813,475.512,278.813,462.915z"/>
	<path style="fill:#666666;" d="M430.892,39.579v43.14H81.111v-43.14C81.111,17.717,98.828,0,120.689,0h270.612
		C413.162,0,430.892,17.717,430.892,39.579z"/>
</g>
<path style="fill:#333333;" d="M290.215,50.401H221.78c-5.251,0-9.505-4.256-9.505-9.505s4.254-9.505,9.505-9.505h68.435
	c5.251,0,9.505,4.256,9.505,9.505S295.466,50.401,290.215,50.401z"/>
<g>
	<rect x="405.619" y="58.282" style="fill:#666666;" width="25.273" height="408.687"/>
	<rect x="81.108" y="58.282" style="fill:#666666;" width="25.273" height="408.687"/>
</g>
<g>
</g>
<g>
</g>
<g>
</g>
<g>
</g>
<g>
</g>
<g>
</g>
<g>
</g>
<g>
</g>
<g>
</g>
<g>
</g>
<g>
</g>
<g>
</g>
<g>
</g>
<g>
</g>
<g>
</g>
</svg>
