<?xml version="1.0" encoding="iso-8859-1"?>
<!-- Generator: Adobe Illustrator 19.0.0, SVG Export Plug-In . SVG Version: 6.00 Build 0)  -->
<svg version="1.1" id="Layer_1" xmlns="http://www.w3.org/2000/svg" xmlns:xlink="http://www.w3.org/1999/xlink" x="0px" y="0px"
	 viewBox="0 0 511.999 511.999" style="enable-background:new 0 0 511.999 511.999;" xml:space="preserve">
<path style="fill:#F95428;" d="M405.703,274.143c0,105.518-74.675,87.662-73.051,159.09c0.917,40.327,34.86,63.416,72.958,67.901
	c-9.13-10.552-49.409-63.095,13.08-105.238c2.006,40.618,35.714,47.078,35.714,76.298c0,12.305-2.593,20.569-5.592,26.026
	c31.439-8.219,58.083-30.131,62.41-66.61C522.584,335.831,405.703,274.143,405.703,274.143z"/>
<circle style="fill:#E6E6E6;" cx="185.932" cy="196.796" r="185.932"/>
<circle style="fill:#B3B3B3;" cx="185.932" cy="196.796" r="124.381"/>
<path style="fill:#999999;" d="M185.927,72.408c-5.785,0-11.475,0.404-17.05,1.168c60.628,8.312,107.336,60.306,107.336,123.218
	s-46.708,114.905-107.336,123.218c5.575,0.765,11.265,1.168,17.05,1.168c68.696,0,124.386-55.689,124.386-124.386
	S254.623,72.408,185.927,72.408z"/>
<g>
	<circle style="fill:#4D4D4D;" cx="247.264" cy="196.796" r="17.724"/>
	<circle style="fill:#4D4D4D;" cx="124.6" cy="196.796" r="17.724"/>
</g>
<g>
</g>
<g>
</g>
<g>
</g>
<g>
</g>
<g>
</g>
<g>
</g>
<g>
</g>
<g>
</g>
<g>
</g>
<g>
</g>
<g>
</g>
<g>
</g>
<g>
</g>
<g>
</g>
<g>
</g>
</svg>
