<?xml version="1.0" encoding="iso-8859-1"?>
<!-- Generator: Adobe Illustrator 19.0.0, SVG Export Plug-In . SVG Version: 6.00 Build 0)  -->
<svg version="1.1" id="Layer_1" xmlns="http://www.w3.org/2000/svg" xmlns:xlink="http://www.w3.org/1999/xlink" x="0px" y="0px"
	 viewBox="0 0 512 512" style="enable-background:new 0 0 512 512;" xml:space="preserve">
<g>
	<path style="fill:#666666;" d="M201.441,167.549c-4.854,0-8.789-3.935-8.789-8.789v-39.407c0-4.854,3.935-8.789,8.789-8.789
		c4.854,0,8.789,3.935,8.789,8.789v39.407C210.23,163.614,206.295,167.549,201.441,167.549z"/>
	<path style="fill:#666666;" d="M310.557,167.549c-4.854,0-8.789-3.935-8.789-8.789v-39.407c0-4.854,3.935-8.789,8.789-8.789
		c4.854,0,8.789,3.935,8.789,8.789v39.407C319.346,163.614,315.411,167.549,310.557,167.549z"/>
</g>
<g>
	<path style="fill:#F95428;" d="M437.589,72.433c1.091,0.273,2.17,0.546,3.248,0.831l28.818,7.469
		c6.317,1.637,11.505,6.139,14.015,12.164l28.328,67.982l-10.33,28.909c-1.495,4.185-5.832,6.64-10.189,5.77l-7.938-1.585v-0.013
		l-94.877-18.975c-7.454-1.491-13.214-7.427-14.479-14.923l-4.842-28.682l-4.687-27.75c-30.874-8.518-69.772-12.772-108.657-12.772
		c-38.896,0-77.794,4.253-108.657,12.772l-4.687,27.762l-4.851,28.675c-1.268,7.493-7.026,13.426-14.478,14.916l-94.87,18.977
		l-7.944,1.591c-4.36,0.873-8.701-1.584-10.195-5.771L0,160.879l28.316-67.98c2.51-6.026,7.697-10.529,14.016-12.166l28.816-7.468
		c1.079-0.285,2.17-0.558,3.261-0.831C184.727,44.534,327.271,44.534,437.589,72.433z"/>
	<path style="fill:#F95428;" d="M449.343,428.254L424.96,228.368c-1.05-8.607-7.446-15.601-15.925-17.412l-39.956-8.54
		c-9.321-1.992-16.44-9.54-17.886-18.961l-4.694-30.601c-1.062-6.917-7.012-12.025-14.01-12.025h-21.933H201.441h-21.935
		c-6.997,0-12.948,5.106-14.009,12.022l-4.703,30.608c-1.447,9.419-8.565,16.965-17.884,18.957l-39.958,8.541
		c-8.479,1.813-14.875,8.806-15.925,17.413L62.658,428.243L449.343,428.254z"/>
</g>
<g>
	<path style="fill:#E03F20;" d="M103.085,428.243l26.122-214.258l69.61-14.88l8.953-58.277h-6.328h-21.935
		c-6.997,0-12.948,5.106-14.009,12.022l-4.701,30.608c-1.447,9.419-8.565,16.965-17.884,18.957l-39.958,8.541
		c-8.479,1.813-14.875,8.806-15.925,17.413L62.658,428.243l386.686,0.012v-0.001L103.085,428.243z"/>
	<path style="fill:#E03F20;" d="M512,160.881l-10.334,28.906c-1.495,4.182-5.829,6.637-10.184,5.769l-7.945-1.583v-0.012
		l-94.87-18.98c-7.453-1.491-13.212-7.426-14.478-14.921l-4.847-28.686l0.844-0.129L512,160.881z"/>
	<path style="fill:#E03F20;" d="M141.796,131.246l0.855,0.141v0.012l-4.846,28.665c-1.267,7.494-7.026,13.428-14.478,14.919
		l-94.871,18.98l-7.949,1.589c-4.359,0.871-8.697-1.587-10.191-5.774L0.005,160.881L141.796,131.246z"/>
</g>
<path style="fill:#F2F2F2;" d="M362.475,294.013c0,58.791-47.682,106.472-106.472,106.472c-3.211,0-6.398-0.141-9.539-0.434
	c-54.349-4.816-96.945-50.459-96.945-106.039c0-55.615,42.631-101.258,96.992-106.05c3.129-0.281,6.293-0.422,9.492-0.422
	C314.793,187.541,362.475,235.199,362.475,294.013z"/>
<path style="fill:#CCCCCC;" d="M254.561,399.032c-2.672,0.445-5.367,0.785-8.097,1.019c-54.349-4.816-96.945-50.459-96.945-106.039
	c0-55.615,42.631-101.258,96.992-106.05c2.707,0.246,5.402,0.586,8.05,1.031c-50.447,8.379-88.895,52.193-88.895,105.019
	C165.666,346.815,204.114,390.654,254.561,399.032z"/>
<path style="fill:#F95428;" d="M245.769,219.871c0,64.994-45.997,53.996-44.996,97.992c0.565,24.84,21.473,39.061,44.938,41.824
	c-5.624-6.5-30.434-38.864,8.056-64.822c1.235,25.019,21.998,28.998,21.998,46.996c0,7.579-1.597,12.67-3.445,16.031
	c19.364-5.062,35.776-18.559,38.442-41.028C317.762,257.868,245.769,219.871,245.769,219.871z"/>
<polygon style="fill:#E6E6E6;" points="470.44,460.491 41.561,460.491 51.571,426.496 460.43,426.496 "/>
<polygon style="fill:#CCCCCC;" points="51.571,426.496 41.561,460.491 127.687,460.491 137.697,426.496 "/>
<g>
</g>
<g>
</g>
<g>
</g>
<g>
</g>
<g>
</g>
<g>
</g>
<g>
</g>
<g>
</g>
<g>
</g>
<g>
</g>
<g>
</g>
<g>
</g>
<g>
</g>
<g>
</g>
<g>
</g>
</svg>
