<?xml version="1.0" encoding="iso-8859-1"?>
<!-- Generator: Adobe Illustrator 19.0.0, SVG Export Plug-In . SVG Version: 6.00 Build 0)  -->
<svg version="1.1" id="Layer_1" xmlns="http://www.w3.org/2000/svg" xmlns:xlink="http://www.w3.org/1999/xlink" x="0px" y="0px"
	 viewBox="0 0 512.001 512.001" style="enable-background:new 0 0 512.001 512.001;" xml:space="preserve">
<path style="fill:#666666;" d="M321.583,0L321.583,0c-10.803,0-19.561,8.757-19.561,19.561V152.75h39.121V19.561
	C341.144,8.757,332.385,0,321.583,0z"/>
<path style="fill:#4D4D4D;" d="M327.049,0.789C325.312,0.284,323.482,0,321.583,0c-10.803,0-19.561,8.757-19.561,19.561V152.75
	h10.931V19.561C312.953,10.657,318.908,3.156,327.049,0.789z"/>
<g>
	<path style="fill:#F7B239;" d="M200.575,115.212h-20.328c-5.189,0-9.396,4.207-9.396,9.396v20.912h39.121v-20.912
		C209.972,119.418,205.764,115.212,200.575,115.212z"/>
	<path style="fill:#F7B239;" d="M266.161,115.212h-20.328c-5.189,0-9.396,4.207-9.396,9.396v20.912h39.121v-20.912
		C275.558,119.418,271.35,115.212,266.161,115.212z"/>
</g>
<g>
	<path style="fill:#E09B2D;" d="M246.058,115.212h-0.226c-5.189,0-9.396,4.207-9.396,9.396v20.912h9.623v-30.308H246.058z"/>
	<path style="fill:#E09B2D;" d="M180.472,115.212h-0.226c-5.189,0-9.396,4.207-9.396,9.396v20.912h9.623v-30.308H180.472z"/>
</g>
<path style="fill:#808080;" d="M372.214,172.185v307.967c0,17.582-14.256,31.849-31.849,31.849h-168.74
	c-17.582,0-31.838-14.268-31.838-31.849V172.185c0-17.582,14.256-31.838,31.838-31.838h168.74
	C357.958,140.346,372.214,154.602,372.214,172.185z"/>
<path style="fill:#666666;" d="M196.939,512h-25.314c-17.582,0-31.838-14.268-31.838-31.849V172.184
	c0-17.582,14.256-31.838,31.838-31.838h25.314c-17.582,0-31.838,14.256-31.838,31.838v307.967
	C165.101,497.732,179.357,512,196.939,512z"/>
<rect x="176.035" y="178.313" style="fill:#F2F2F2;" width="159.938" height="87.448"/>
<polygon style="fill:#FFFFFF;" points="335.969,178.317 335.969,265.765 230.721,265.765 286.009,178.317 "/>
<g>
	<rect x="183.882" y="404.988" style="fill:#4D4D4D;" width="144.22" height="17.259"/>
	<rect x="183.882" y="436.63" style="fill:#4D4D4D;" width="144.22" height="17.259"/>
	<rect x="183.882" y="373.345" style="fill:#4D4D4D;" width="144.22" height="17.259"/>
</g>
<g>
	<circle style="fill:#F7B239;" cx="318.081" cy="314.134" r="17.885"/>
	<circle style="fill:#F7B239;" cx="256.614" cy="314.134" r="17.885"/>
</g>
<path style="fill:#666666;" d="M341.723,271.519H170.279v-98.954h171.444V271.519z M181.785,260.013h148.431v-75.942H181.785
	V260.013z"/>
<g>
</g>
<g>
</g>
<g>
</g>
<g>
</g>
<g>
</g>
<g>
</g>
<g>
</g>
<g>
</g>
<g>
</g>
<g>
</g>
<g>
</g>
<g>
</g>
<g>
</g>
<g>
</g>
<g>
</g>
</svg>
